<svg xmlns="http://www.w3.org/2000/svg" width="613.208" height="477.802" viewBox="0 0 613.208 477.802">
  <g id="Group_227" data-name="Group 227" transform="translate(-753 -1364.198)">
    <circle id="Ellipse_225" data-name="Ellipse 225" cx="10.5" cy="10.5" r="10.5" transform="translate(767 1423)" fill="#8dbfff"/>
    <circle id="Ellipse_226" data-name="Ellipse 226" cx="11" cy="11" r="11" transform="translate(943 1382)" fill="#8dbfff"/>
    <circle id="Ellipse_227" data-name="Ellipse 227" cx="19.5" cy="19.5" r="19.5" transform="translate(927 1550)" fill="#8dbfff"/>
    <circle id="Ellipse_229" data-name="Ellipse 229" cx="5.5" cy="5.5" r="5.5" transform="translate(753 1587)" fill="#ff6584"/>
    <circle id="Ellipse_258" data-name="Ellipse 258" cx="5.5" cy="5.5" r="5.5" transform="translate(876 1412)" fill="#ff6584"/>
    <circle id="Ellipse_259" data-name="Ellipse 259" cx="5.5" cy="5.5" r="5.5" transform="translate(968 1819)" fill="#ff6584"/>
    <circle id="Ellipse_230" data-name="Ellipse 230" cx="5" cy="5" r="5" transform="translate(1321 1597)" fill="#ff6584"/>
    <circle id="Ellipse_232" data-name="Ellipse 232" cx="4" cy="4" r="4" transform="translate(1326 1396)" fill="#8dbfff"/>
    <ellipse id="Ellipse_233" data-name="Ellipse 233" cx="5" cy="4.5" rx="5" ry="4.5" transform="translate(774 1734)" fill="#8dbfff"/>
    <circle id="Ellipse_234" data-name="Ellipse 234" cx="5.5" cy="5.5" r="5.5" transform="translate(1253 1686)" fill="#8dbfff"/>
    <circle id="Ellipse_235" data-name="Ellipse 235" cx="5" cy="5" r="5" transform="translate(1115 1391)" fill="#8dbfff"/>
    <path id="Path_794" data-name="Path 794" d="M839.966,244.425a11.966,11.966,0,1,1,11.966-11.966A11.966,11.966,0,0,1,839.966,244.425Zm0-22.336a10.37,10.37,0,1,0,10.37,10.371A10.371,10.371,0,0,0,839.966,222.088Z" transform="translate(354.378 1240.855)" fill="#8dbfff"/>
    <path id="Path_795" data-name="Path 795" d="M812.775,284.043a8.775,8.775,0,1,1,8.775-8.775,8.775,8.775,0,0,1-8.775,8.775Zm0-15.955a7.18,7.18,0,1,0,7.179,7.18A7.18,7.18,0,0,0,812.775,268.088Z" transform="translate(359.232 1231.551)" fill="#8dbfff"/>
    <path id="Path_796" data-name="Path 796" d="M874.775,337.043a8.775,8.775,0,1,1,8.775-8.775A8.775,8.775,0,0,1,874.775,337.043Zm0-15.955a7.18,7.18,0,1,0,7.18,7.18,7.18,7.18,0,0,0-7.18-7.18Z" transform="translate(346.692 1220.83)" fill="#8dbfff"/>
    <path id="Path_797" data-name="Path 797" d="M840.414,323.32a65.414,65.414,0,1,1,65.414-65.414A65.414,65.414,0,0,1,840.414,323.32Zm0-129.232a63.818,63.818,0,1,0,63.818,63.818A63.818,63.818,0,0,0,840.414,194.088Z" transform="translate(365.099 1246.519)" fill="#8dbfff" opacity="0.231"/>
    <path id="Path_798" data-name="Path 798" d="M832.323,295.534c-54.574,0-97.323-11.563-97.323-26.325,0-8.6,12.688-15.993,35.727-20.813l.327,1.562c-21.9,4.581-34.459,11.6-34.459,19.251,0,13.4,43.838,24.73,95.728,24.73s95.728-11.325,95.728-24.73c0-7.668-12.6-14.693-34.576-19.276l.326-1.562c23.116,4.821,35.846,12.221,35.846,20.837C929.646,283.971,886.9,295.534,832.323,295.534Z" transform="translate(373.19 1235.216)" fill="#8dbfff" opacity="0.231"/>
    <path id="Path_799" data-name="Path 799" d="M742.244,518.315c-2.213,0-4.449-.035-6.644-.1l.05-1.594c3.151.1,6.367.125,9.533.082l.022,1.6Q743.727,518.315,742.244,518.315Zm12.56-.37-.093-1.592c3.156-.186,6.352-.448,9.5-.778l.167,1.586C761.205,517.494,757.985,517.758,754.8,517.945ZM726.01,517.7c-3.182-.244-6.4-.563-9.559-.951l.195-1.583c3.136.384,6.327.7,9.486.943Zm47.895-1.754-.239-1.577c3.136-.476,6.3-1.028,9.389-1.643l.311,1.564C780.247,514.906,777.064,515.463,773.9,515.942Zm-66.957-.583c-3.144-.533-6.317-1.145-9.432-1.821l.338-1.56c3.091.672,6.24,1.279,9.36,1.807Zm85.794-3.161-.383-1.549c3.078-.761,6.173-1.6,9.2-2.5l.453,1.53C798.961,510.584,795.843,511.431,792.742,512.2Zm-104.563-.915c-3.084-.82-6.187-1.723-9.224-2.683l.481-1.521c3.014.953,6.093,1.848,9.153,2.661Zm122.976-4.548-.523-1.507c2.987-1.038,5.991-2.161,8.93-3.337l.592,1.482C817.192,504.558,814.165,505.689,811.155,506.735Zm-141.314-1.25c-2.995-1.1-6.009-2.289-8.956-3.53l.619-1.471c2.925,1.232,5.916,2.411,8.888,3.5Zm159.127-5.878-.66-1.452c2.868-1.3,5.752-2.695,8.569-4.135l.726,1.421C834.763,496.893,831.857,498.295,828.967,499.608ZM652.1,498.017c-2.879-1.372-5.769-2.831-8.588-4.338l.752-1.407c2.8,1.495,5.665,2.943,8.523,4.3Zm193.935-7.135-.79-1.385c2.751-1.57,5.5-3.22,8.16-4.9l.852,1.348c-2.684,1.7-5.45,3.361-8.223,4.942Zm-210.9-1.929c-2.738-1.629-5.481-3.347-8.15-5.1l.878-1.332c2.649,1.745,5.37,3.45,8.088,5.066Zm227.113-8.328-.913-1.307c2.59-1.81,5.175-3.7,7.683-5.632l.972,1.265c-2.526,1.942-5.131,3.852-7.742,5.674Zm-243.168-2.247c-2.575-1.87-5.147-3.83-7.646-5.825l1-1.246c2.48,1.979,5.033,3.924,7.588,5.78Zm258.387-9.45-1.028-1.22c2.414-2.037,4.817-4.16,7.142-6.31l1.083,1.172C882.323,464.737,879.9,466.876,877.468,468.929Zm-273.4-2.541c-2.4-2.1-4.781-4.285-7.081-6.493l1.1-1.151c2.283,2.192,4.648,4.36,7.028,6.445Zm287.5-10.5-1.136-1.12c2.226-2.255,4.427-4.589,6.542-6.937l1.186,1.067C896.027,451.265,893.809,453.616,891.566,455.889Zm-301.36-2.8c-2.2-2.314-4.374-4.705-6.459-7.108l1.205-1.046c2.069,2.385,4.226,4.758,6.41,7.053Zm314.22-11.471-1.232-1.013c2.011-2.447,3.99-4.972,5.886-7.506l1.278.955C908.447,436.606,906.452,439.151,904.426,441.616ZM577.62,438.587c-1.976-2.5-3.922-5.075-5.783-7.662l1.295-.932c1.848,2.567,3.778,5.125,5.74,7.6Zm338.317-12.362-1.32-.9c1.779-2.62,3.522-5.316,5.179-8.015l1.36.835C919.485,420.868,917.729,423.585,915.936,426.225ZM566.41,423.01c-1.738-2.665-3.44-5.407-5.057-8.153l1.374-.81c1.606,2.724,3.294,5.446,5.019,8.09ZM926,409.839l-1.4-.771c1.532-2.772,3.02-5.618,4.424-8.461l1.43.707C929.043,404.178,927.543,407.046,926,409.839Zm-369.325-3.355c-1.488-2.812-2.931-5.7-4.288-8.576l1.443-.681c1.347,2.856,2.779,5.72,4.256,8.51ZM934.52,392.591l-1.461-.64c1.272-2.9,2.492-5.877,3.629-8.837l1.489.572C937.032,386.669,935.8,389.665,934.52,392.591ZM548.5,389.149c-1.223-2.935-2.394-5.939-3.481-8.927l1.5-.545c1.078,2.966,2.241,5.946,3.454,8.858Zm392.922-14.531-1.515-.5c1-3,1.935-6.066,2.792-9.115l1.536.432C943.369,368.5,942.422,371.595,941.419,374.618Zm-399.477-3.5c-.949-3.041-1.841-6.147-2.651-9.233l1.543-.405c.8,3.063,1.689,6.146,2.631,9.163Zm404.677-14.993-1.554-.362c.714-3.075,1.367-6.215,1.941-9.332l1.569.288C948,349.865,947.339,353.028,946.619,356.128ZM537.07,352.543c-.665-3.116-1.268-6.291-1.789-9.437l1.574-.262c.518,3.123,1.116,6.274,1.776,9.366ZM950.1,337.24l-1.581-.217c.429-3.125.791-6.311,1.077-9.471l1.589.143C950.893,330.88,950.527,334.091,950.1,337.24ZM533.925,333.6c-.376-3.158-.685-6.375-.918-9.56l1.592-.117c.231,3.162.538,6.354.911,9.489Zm417.905-15.483-1.594-.072c.142-3.161.214-6.368.214-9.53h1.6c0,3.186-.072,6.417-.216,9.6Zm-419.307-3.671c-.055-1.956-.082-3.952-.083-5.931q0-1.842.032-3.676l1.6.028q-.032,1.821-.032,3.648c0,1.964.028,3.945.082,5.887Zm417.916-8.156c-.033-3.163-.139-6.369-.314-9.53l1.592-.089c.177,3.185.283,6.415.317,9.6ZM534.447,295.339l-1.592-.1c.2-3.188.474-6.408.816-9.57l1.586.172C534.917,288.98,534.645,292.175,534.447,295.339Zm414.932-8.085c-.319-3.145-.715-6.328-1.178-9.459l1.578-.233c.466,3.156.866,6.362,1.187,9.531ZM536.5,276.391l-1.577-.244c.489-3.156,1.057-6.337,1.688-9.456l1.564.316C537.548,270.1,536.984,273.259,536.5,276.391Zm410.092-7.99c-.608-3.112-1.295-6.245-2.041-9.311l1.55-.377c.752,3.09,1.443,6.247,2.057,9.382ZM540.278,257.71l-1.548-.388c.775-3.09,1.633-6.206,2.551-9.261l1.528.459C541.9,251.552,541.047,254.644,540.278,257.71Zm401.8-7.828c-.89-3.038-1.862-6.094-2.89-9.084l1.508-.519c1.036,3.013,2.016,6.093,2.913,9.154ZM545.77,239.431l-1.505-.529c1.06-3.016,2.205-6.046,3.4-9.007l1.479.6C547.959,233.431,546.822,236.439,545.77,239.431Zm390.116-7.574c-1.164-2.936-2.41-5.883-3.705-8.759l1.455-.655c1.3,2.9,2.561,5.867,3.733,8.826ZM552.931,221.724l-1.45-.666c1.333-2.9,2.751-5.812,4.215-8.649l1.418.732C555.661,215.956,554.254,218.844,552.931,221.724Zm375.147-7.208c-1.428-2.817-2.941-5.639-4.5-8.388l1.388-.786c1.568,2.77,3.092,5.614,4.531,8.452Zm-366.39-9.756-1.383-.8c1.591-2.764,3.27-5.53,4.989-8.222l1.345.858c-1.706,2.671-3.372,5.417-4.951,8.159ZM918.7,197.951c-1.686-2.684-3.451-5.357-5.247-7.947l1.31-.909c1.81,2.609,3.589,5.3,5.287,8.008Zm-346.748-9.272-1.3-.919c1.839-2.609,3.762-5.209,5.717-7.728l1.26.978C575.691,183.51,573.782,186.09,571.957,188.679Zm335.9-6.376c-1.923-2.518-3.925-5.022-5.953-7.441l1.223-1.025c2.043,2.438,4.06,4.96,6,7.5Zm-324.206-8.694-1.214-1.035c2.064-2.424,4.215-4.837,6.394-7.172l1.166,1.088C587.83,168.808,585.7,171.2,583.647,173.609Zm311.968-5.91c-2.143-2.333-4.367-4.645-6.607-6.871l1.125-1.132c2.258,2.244,4.5,4.573,6.657,6.924Zm-298.961-8.028-1.115-1.14c2.281-2.232,4.642-4.439,7.016-6.558l1.063,1.19c-2.356,2.1-4.7,4.293-6.964,6.508ZM882.1,154.262c-2.349-2.13-4.774-4.231-7.208-6.245l1.018-1.229c2.452,2.029,4.9,4.146,7.262,6.292Zm-271.228-7.285-1.007-1.237c2.468-2.009,5.018-3.991,7.58-5.891l.95,1.281C615.847,143.017,613.316,144.983,610.867,146.978ZM867.4,142.106c-2.534-1.908-5.142-3.781-7.75-5.565l.9-1.317c2.628,1.8,5.255,3.684,7.809,5.607Zm-241.233-6.47-.89-1.324c2.641-1.777,5.36-3.517,8.081-5.173l.829,1.363C631.489,132.146,628.791,133.873,626.169,135.636Zm225.485-4.3c-2.7-1.669-5.465-3.3-8.229-4.835l.776-1.394c2.786,1.552,5.576,3.191,8.293,4.872Zm-209.222-5.592-.766-1.4c2.794-1.529,5.659-3.012,8.515-4.409l.7,1.433c-2.834,1.386-5.677,2.858-8.45,4.376Zm192.548-3.7c-2.839-1.414-5.747-2.781-8.643-4.061l.645-1.459c2.919,1.29,5.85,2.667,8.711,4.092Zm-175.459-4.662-.634-1.464c2.92-1.266,5.907-2.479,8.877-3.608l.566,1.492C665.384,114.924,662.42,116.129,659.522,117.385Zm157.992-3.059c-2.954-1.146-5.977-2.239-8.987-3.248l.508-1.513c3.032,1.018,6.079,2.119,9.055,3.274Zm-140.2-3.7-.5-1.516c3.032-.994,6.126-1.93,9.194-2.781l.427,1.537C683.4,108.712,680.327,109.64,677.318,110.627Zm122.1-2.372c-3.043-.867-6.147-1.675-9.225-2.4l.366-1.553c3.1.731,6.229,1.545,9.3,2.419ZM695.684,105.53l-.355-1.555c3.108-.71,6.275-1.357,9.411-1.923l.284,1.57c-3.113.562-6.254,1.2-9.339,1.908Zm85.187-1.649c-3.107-.583-6.271-1.1-9.406-1.542l.221-1.58c3.159.444,6.348.966,9.479,1.554Zm-66.431-1.736-.211-1.581c3.158-.421,6.37-.776,9.546-1.052l.139,1.589c-3.152.275-6.339.626-9.474,1.045ZM762,101.23c-3.143-.3-6.341-.524-9.508-.677l.078-1.594c3.19.155,6.413.384,9.58.683Zm-28.57-.741-.067-1.594c2.932-.122,5.921-.185,8.883-.185h.722l0,1.6h-.718c-2.94,0-5.907.063-8.816.184Z" transform="translate(414.161 1265.488)" fill="#0739bf" opacity="0.111"/>
    <path id="Path_803" data-name="Path 803" d="M869.446,277.479h32.209a112.659,112.659,0,0,0,0-38.4h-32.21A69.1,69.1,0,0,1,869.446,277.479Z" transform="translate(345.995 1237.096)" fill="#0739bf"/>
    <path id="Path_814" data-name="Path 814" d="M437.428,463.941c-.853,3.179-1.682,6.205-2.455,8.986-3.977,1.074-10.833-.411-17.99-2.756l1.486-19.513C426.631,453.34,434.561,457.52,437.428,463.941Z" transform="translate(437.518 1194.299)" opacity="0.15"/>
    <rect id="Rectangle_426" data-name="Rectangle 426" width="21" height="3" transform="translate(756 1607)" fill="#f2f2f2"/>
    <rect id="Rectangle_428" data-name="Rectangle 428" width="21" height="2" transform="translate(1223 1486)" fill="#f2f2f2"/>
    <rect id="Rectangle_429" data-name="Rectangle 429" width="21" height="3" transform="translate(1223 1496)" fill="#f2f2f2"/>
    <rect id="Rectangle_430" data-name="Rectangle 430" width="21" height="3" transform="translate(1223 1490)" fill="#f2f2f2"/>
    <g id="Ellipse_236" data-name="Ellipse 236" transform="translate(865 1474)" fill="none" stroke="#707070" stroke-width="1" stroke-dasharray="8">
      <ellipse cx="143.5" cy="144" rx="143.5" ry="144" stroke="none"/>
      <ellipse cx="143.5" cy="144" rx="143" ry="143.5" fill="none"/>
    </g>
    <g id="Group_185" data-name="Group 185" transform="translate(828.891 1432.461)">
      <path id="Path_815" data-name="Path 815" d="M470.205,466.543a182.717,182.717,0,1,1,129.2-53.517,182.716,182.716,0,0,1-129.2,53.517Zm0-364.244c-100.094,0-181.526,81.432-181.526,181.527s81.432,181.527,181.526,181.527,181.527-81.432,181.527-181.527S570.3,102.3,470.205,102.3Z" transform="translate(-287.471 -100.923)" fill="#3f3d56"/>
    </g>
    <g id="Group_225" data-name="Group 225">
      <circle id="Ellipse_231" data-name="Ellipse 231" cx="5" cy="5" r="5" transform="translate(799 1502)" fill="#8dbfff"/>
      <rect id="Rectangle_431" data-name="Rectangle 431" width="90.632" height="92.162" transform="translate(802.805 1496.842)" fill="#ffe18c"/>
      <path id="Path_824" data-name="Path 824" d="M108.248,22.935H22.935v86.293h4.576V27.838h80.737Z" transform="translate(781.764 1476.247)" fill="#3f3d56"/>
      <path id="Path_825" data-name="Path 825" d="M108.248,22.935H22.935v86.293h4.576V27.838h80.737Z" transform="translate(781.764 1476.247)" opacity="0.3"/>
      <path id="Path_826" data-name="Path 826" d="M110.665,44.437H43V56.2h64.066v69.623h16.67V44.437Z" transform="translate(766.271 1459.647)" opacity="0.1"/>
      <path id="Path_827" data-name="Path 827" d="M39.5,16.495v96.753h95.772V16.495Zm90.542,91.523H44.73V21.725h85.313Z" transform="translate(759.969 1477.457)" fill="#3f3d56"/>
    </g>
    <g id="Group_226" data-name="Group 226">
      <rect id="Rectangle_432" data-name="Rectangle 432" width="88.474" height="89.968" transform="translate(1168.753 1815.799) rotate(180)" fill="#ffe18c"/>
      <path id="Path_845" data-name="Path 845" d="M733.389,322.881H816.67V407.12H812.2V327.667H733.389Z" transform="translate(350.232 1405.233)" fill="#3f3d56"/>
      <path id="Path_846" data-name="Path 846" d="M733.389,322.881H816.67V407.12H812.2V327.667H733.389Z" transform="translate(350.232 1405.233)" opacity="0.3"/>
      <path id="Path_847" data-name="Path 847" d="M746.152,343.871H812.2v11.487H749.662v67.965H733.389V343.871Z" transform="translate(350.232 1389.03)" opacity="0.1"/>
      <path id="Path_848" data-name="Path 848" d="M750.5,316.987v94.449h93.492V316.987Zm5.105,5.105h83.281V406.33H755.605Z" transform="translate(328.018 1406.023)" fill="#3f3d56"/>
    </g>
    <path id="Path_809" data-name="Path 809" d="M421.738,575.658h-31a108.412,108.412,0,0,1,0-36.958h31A66.5,66.5,0,0,0,421.738,575.658Z" transform="translate(475.601 1181.277)" fill="#d0cde1"/>
    <path id="Path_810" data-name="Path 810" d="M410.423,577.275h-31a108.414,108.414,0,0,1,0-36.958h31a66.5,66.5,0,0,0,0,36.958Z" transform="translate(495.941 1180.95)" fill="#0739bf"/>
    <g id="Group_186" data-name="Group 186" transform="translate(1097.378 1443.638)">
      <path id="Path_801" data-name="Path 801" d="M493.446,392.531h24.705a86.411,86.411,0,0,0,0-29.456H493.446a53,53,0,0,1,0,29.456Z" transform="translate(-493.446 -363.075)" fill="#0739bf"/>
      <rect id="Rectangle_425" data-name="Rectangle 425" width="17" transform="translate(4.622 10.362)" fill="#f2f2f2"/>
      <rect id="Rectangle_427" data-name="Rectangle 427" width="17" height="1" transform="translate(4.622 13.362)" fill="#f2f2f2"/>
    </g>
    <g id="Group_187" data-name="Group 187" transform="translate(1181.138 1600.04)">
      <path id="Path_801-2" data-name="Path 801" d="M493.446,398.865h30.018a104.992,104.992,0,0,0,0-35.79H493.446a64.4,64.4,0,0,1,0,35.79Z" transform="translate(-493.446 -363.075)" fill="#7c94d6"/>
      <rect id="Rectangle_425-2" data-name="Rectangle 425" width="20" height="3" transform="translate(5.862 10.96)" fill="#f2f2f2"/>
      <rect id="Rectangle_427-2" data-name="Rectangle 427" width="20" height="3" transform="translate(5.862 16.96)" fill="#f2f2f2"/>
    </g>
    <ellipse id="Ellipse_237" data-name="Ellipse 237" cx="233" cy="231.5" rx="233" ry="231.5" transform="translate(774 1379)" fill="rgba(0,108,255,0.18)" opacity="0.148"/>
    <g id="Group_219" data-name="Group 219" transform="translate(-21 -3)">
      <circle id="Ellipse_260" data-name="Ellipse 260" cx="25" cy="25" r="25" transform="translate(950 1769)" fill="#d8e9ff"/>
      <g id="noun_bill_1970983" transform="translate(957.166 1776.69)">
        <path id="Path_1099" data-name="Path 1099" d="M43.416,14.75H27.529L21.76,20.519V42.191H43.416ZM27.348,15.807v4.531H22.816ZM42.8,41.572H22.379V20.957h5.588V15.369H42.8Z" transform="translate(-14.776 -10.785)" fill="#3f3d56"/>
        <rect id="Rectangle_531" data-name="Rectangle 531" width="15.646" height="0.619" transform="translate(9.989 11.985)" fill="#3f3d56"/>
        <path id="Path_1100" data-name="Path 1100" d="M45.75,53.168H44.67V51.021H46.61V50.4H44.67v-.875h-.619V50.4H43.21a1.665,1.665,0,0,0-.68.127,1.145,1.145,0,0,0-.444.342,1.216,1.216,0,0,0-.217.454,2.357,2.357,0,0,0-.066.578v.382a2.357,2.357,0,0,0,.065.576,1.192,1.192,0,0,0,.217.454,1.154,1.154,0,0,0,.445.344,1.653,1.653,0,0,0,.679.127h.841V56h-1.8v.619h1.8v.875h.619v-.875h1.08c.674,0,1.109-.514,1.109-1.309v-.83C46.86,53.682,46.424,53.168,45.75,53.168Zm-1.7,0H43.21a1.069,1.069,0,0,1-.424-.072.544.544,0,0,1-.21-.158.593.593,0,0,1-.107-.227,1.745,1.745,0,0,1-.046-.425V51.9a1.739,1.739,0,0,1,.047-.426.61.61,0,0,1,.108-.228.533.533,0,0,1,.208-.156,1.074,1.074,0,0,1,.426-.073h.841Zm2.19,2.138c0,.315-.085.69-.49.69H44.67V53.787h1.08c.4,0,.49.375.49.69Z" transform="translate(-26.548 -31.211)" fill="#3f3d56"/>
        <path id="Path_1101" data-name="Path 1101" d="M40.088,45.705a5.559,5.559,0,1,0,5.558,5.559A5.565,5.565,0,0,0,40.088,45.705Zm0,10.5a4.94,4.94,0,1,1,4.939-4.94A4.945,4.945,0,0,1,40.088,56.2Z" transform="translate(-22.276 -28.967)" fill="#3f3d56"/>
        <path id="Path_1102" data-name="Path 1102" d="M27.615,87.1a.977.977,0,1,0-.977.977A.978.978,0,0,0,27.615,87.1Zm-1.644,0a.667.667,0,1,1,.667.667A.668.668,0,0,1,25.971,87.1Z" transform="translate(-17.068 -52.707)" fill="#3f3d56"/>
        <path id="Path_1103" data-name="Path 1103" d="M5.384,30.258l.886-.466.886.465-.169-.987.716-.7-.99-.144-.443-.9-.443.9-.992.144.718.7Zm.117-1.47.531-.077.237-.482.238.482.531.077-.385.375.091.529-.475-.25-.475.25.091-.529Z" transform="translate(-4.836 -18.292)" fill="#3f3d56"/>
        <path id="Path_1104" data-name="Path 1104" d="M26.122,7.78l-.121.7.633-.333.633.333-.121-.7.512-.5-.708-.1-.317-.641-.316.641-.708.1Zm.4-.319.111-.225.111.225.249.036-.18.175.043.248L26.634,7.8l-.222.117.042-.247-.18-.175Z" transform="translate(-17.037 -5.961)" fill="#3f3d56"/>
        <path id="Path_1105" data-name="Path 1105" d="M84.4,66.92l.512.5-.12.7.633-.333.633.333-.12-.7.512-.5-.708-.1-.317-.641-.317.641Zm1.025-.045.111.225.248.036-.18.175.042.248-.222-.117-.222.117.042-.248-.179-.175.248-.036Z" transform="translate(-51.57 -40.99)" fill="#3f3d56"/>
        <path id="Path_1106" data-name="Path 1106" d="M84.417,13.73l-.41,1.261H82.681l1.072.78-.409,1.261,1.073-.779,1.072.779-.409-1.261,1.073-.78H84.827Zm.3,1.923.184.569-.484-.352-.484.352.184-.569-.484-.352h.6l.185-.569.184.569h.6Z" transform="translate(-50.558 -10.186)" fill="#3f3d56"/>
        <path id="Path_1107" data-name="Path 1107" d="M77.541,5.142a.977.977,0,1,0,.977.977A.978.978,0,0,0,77.541,5.142Zm0,1.644a.667.667,0,1,1,.667-.667A.668.668,0,0,1,77.541,6.786Z" transform="translate(-46.965 -5.142)" fill="#3f3d56"/>
        <path id="Path_1108" data-name="Path 1108" d="M86.512,47.864a.789.789,0,1,0,.789-.789A.789.789,0,0,0,86.512,47.864Zm.789-.479a.479.479,0,1,1-.479.479A.479.479,0,0,1,87.3,47.384Z" transform="translate(-52.808 -29.771)" fill="#3f3d56"/>
        <path id="Path_1109" data-name="Path 1109" d="M13.3,14.669a1.026,1.026,0,1,0,1.025,1.026A1.027,1.027,0,0,0,13.3,14.669Zm0,1.742a.716.716,0,1,1,.716-.716A.717.717,0,0,1,13.3,16.411Z" transform="translate(-9.204 -10.738)" fill="#3f3d56"/>
        <path id="Path_1110" data-name="Path 1110" d="M22.163,88.3l.06-.3c-.133-.027-.265-.057-.395-.089l-.076.3Q21.955,88.259,22.163,88.3Z" transform="translate(-14.772 -53.754)" fill="#3f3d56"/>
        <path id="Path_1111" data-name="Path 1111" d="M18.75,87.2l.1-.291c-.248-.089-.5-.191-.735-.3l-.132.28C18.236,87.005,18.493,87.112,18.75,87.2Z" transform="translate(-12.56 -52.991)" fill="#3f3d56"/>
        <path id="Path_1112" data-name="Path 1112" d="M6.32,68.256q0,.2.009.406l.309-.015c-.006-.13-.009-.261-.009-.392s0-.269.01-.4l-.309-.015Q6.32,68.047,6.32,68.256Z" transform="translate(-5.708 -41.966)" fill="#3f3d56"/>
        <path id="Path_1113" data-name="Path 1113" d="M8.109,76.186c-.113-.239-.215-.486-.3-.735l-.291.1c.093.258.2.515.316.763Z" transform="translate(-6.409 -46.438)" fill="#3f3d56"/>
        <path id="Path_1114" data-name="Path 1114" d="M7,72.5c-.064-.255-.116-.517-.155-.78l-.306.045c.041.273.095.546.162.81Z" transform="translate(-5.836 -44.245)" fill="#3f3d56"/>
        <path id="Path_1115" data-name="Path 1115" d="M12.184,82.822l.209-.229c-.2-.178-.385-.368-.562-.564l-.23.208C11.785,82.44,11.981,82.637,12.184,82.822Z" transform="translate(-8.809 -50.301)" fill="#3f3d56"/>
        <path id="Path_1116" data-name="Path 1116" d="M9.222,79.092c.14.234.294.465.458.687l.249-.184c-.158-.214-.307-.437-.441-.662Z" transform="translate(-7.412 -48.483)" fill="#3f3d56"/>
        <path id="Path_1117" data-name="Path 1117" d="M15.4,85.065c-.227-.136-.449-.285-.661-.443l-.184.248c.22.164.451.319.686.46Z" transform="translate(-10.546 -51.824)" fill="#3f3d56"/>
        <path id="Path_1118" data-name="Path 1118" d="M6.922,64.887l-.3-.06c-.027.138-.052.276-.072.414l.306.045C6.872,65.153,6.9,65.021,6.922,64.887Z" transform="translate(-5.84 -40.198)" fill="#3f3d56"/>
        <path id="Path_1119" data-name="Path 1119" d="M89.189,76,88.879,76c0,.135-.01.269-.022.4l.308.028Q89.185,76.218,89.189,76Z" transform="translate(-54.186 -46.759)" fill="#3f3d56"/>
        <path id="Path_1120" data-name="Path 1120" d="M79.138,88.256a5.5,5.5,0,0,1-.84.25l.064.3a5.766,5.766,0,0,0,.887-.265Z" transform="translate(-47.984 -53.959)" fill="#3f3d56"/>
        <path id="Path_1121" data-name="Path 1121" d="M83.162,86.359l-.2-.239a5.566,5.566,0,0,1-.72.5l.156.267A5.876,5.876,0,0,0,83.162,86.359Z" transform="translate(-50.303 -52.704)" fill="#3f3d56"/>
        <path id="Path_1122" data-name="Path 1122" d="M87.807,79.9l.284.123a5.866,5.866,0,0,0,.3-.876l-.3-.077A5.675,5.675,0,0,1,87.807,79.9Z" transform="translate(-53.569 -48.562)" fill="#3f3d56"/>
        <path id="Path_1123" data-name="Path 1123" d="M85.524,83.652l.231.206a5.886,5.886,0,0,0,.559-.738l-.261-.167A5.507,5.507,0,0,1,85.524,83.652Z" transform="translate(-52.228 -50.844)" fill="#3f3d56"/>
        <path id="Path_1124" data-name="Path 1124" d="M75.314,89.457q.153,0,.3-.008L75.6,89.14c-.132.007-.267.009-.4.006l-.007.309Z" transform="translate(-46.161 -54.478)" fill="#3f3d56"/>
        <rect id="Rectangle_532" data-name="Rectangle 532" width="0.309" height="0.825" transform="translate(34.338 11.239)" fill="#3f3d56"/>
        <rect id="Rectangle_533" data-name="Rectangle 533" width="0.309" height="0.825" transform="translate(34.338 9.588)" fill="#3f3d56"/>
        <rect id="Rectangle_534" data-name="Rectangle 534" width="0.309" height="0.825" transform="translate(34.338 12.889)" fill="#3f3d56"/>
        <rect id="Rectangle_535" data-name="Rectangle 535" width="0.309" height="0.825" transform="translate(34.338 14.54)" fill="#3f3d56"/>
      </g>
    </g>
    <g id="Group_220" data-name="Group 220" transform="translate(124 -16.427)">
      <circle id="Ellipse_261" data-name="Ellipse 261" cx="25" cy="25" r="25" transform="translate(1033 1678.427)" fill="#d8e9ff"/>
      <g id="noun_account_1970990" transform="translate(1039.692 1685.674)">
        <path id="Path_973" data-name="Path 973" d="M42.632,35.93l.052-.079v-.094c0-3.1-3.649-4.033-4.574-4.218l-.134-.52a5.128,5.128,0,0,0-2.941-9.825,7.285,7.285,0,0,0-12.36.021,5.128,5.128,0,0,0-3.2,9.742l-.151.583c-.924.185-4.573,1.113-4.573,4.218v.094l.052.079a7.017,7.017,0,0,0,4.949,2.65c-.016.165-.026.333-.026.507v.094l.052.079c.1.159,2.629,3.9,8.929,3.908h.023c6.3-.009,8.825-3.749,8.929-3.908l.052-.079v-.094c0-.174-.011-.342-.026-.507A7.019,7.019,0,0,0,42.632,35.93Zm-1.642-9.82A4.492,4.492,0,0,1,34.242,30a7.269,7.269,0,0,0,1.923-4.922c0-.123-.012-.244-.018-.367a5.825,5.825,0,0,0,1.639-1.043,4.4,4.4,0,0,0,3.04,1.256A4.471,4.471,0,0,1,40.989,26.109Zm-4.574,6.525h-.009c-.673,0-1.024-.092-1.124-.585l0-.011a1.664,1.664,0,0,1-.026-.229h0l.176-.682a4.953,4.953,0,0,0,1.932.032l.168.65h0a1.644,1.644,0,0,1-.022.2c0,.018-.005.034-.008.052C37.4,32.542,37.06,32.634,36.415,32.634Zm.867.519A8.612,8.612,0,0,1,36.4,35.4a8.536,8.536,0,0,1-.9-2.256,2.761,2.761,0,0,0,.906.117h.035A2.624,2.624,0,0,0,37.282,33.153Zm-2.62-.969a10.784,10.784,0,0,0,.748,2.674,10.735,10.735,0,0,0-3.364-1.549A7.072,7.072,0,0,1,34.662,32.185Zm-3.377.938-.189-.038-.254-.98a7.3,7.3,0,0,0,2.942-1.645,5.124,5.124,0,0,0,1.037.5l-.15.583A7.487,7.487,0,0,0,31.285,33.123Zm5.2-11.513A4.5,4.5,0,0,1,40.6,24.284a3.411,3.411,0,0,1-2.526-1.252l-.221-.345-.276.3a4.77,4.77,0,0,1-1.492,1.054,7.226,7.226,0,0,0-.725-2.284A4.488,4.488,0,0,1,36.489,21.61Zm-1,2.687a6.516,6.516,0,0,1,.044.657c0,.043.007.084.007.128a6.646,6.646,0,0,1-1.818,4.566q-.219.233-.458.443a6.64,6.64,0,0,1-4.248,1.66c-.05,0-.1.008-.15.008s-.1-.007-.15-.008a6.638,6.638,0,0,1-4.291-1.7q-.236-.212-.452-.445a6.529,6.529,0,0,1-1.708-5.464c.181,0,.417-.011.7-.029.323-.019.7-.051,1.123-.1.3-.036.625-.081.962-.14q.318-.055.65-.125c.312-.066.63-.144.953-.234a9.545,9.545,0,0,0,4.1-2.176,5.387,5.387,0,0,0,1.932,1.349,6.452,6.452,0,0,0,.639.234c.149.045.3.086.466.123a7.956,7.956,0,0,0,1.484.192A6.558,6.558,0,0,1,35.484,24.3ZM28.739,34.7c-.99,0-1.752-.1-1.815-1.319v-.015h-.014v0h.007l.3-1.167a7.1,7.1,0,0,0,3.013.06l.287,1.108h.007s0,0,0,0H30.51v.015C30.446,34.6,29.7,34.686,28.739,34.7Zm1.476.375c-.031.133-.063.264-.1.391a12.13,12.13,0,0,1-1.393,3.383,11.975,11.975,0,0,1-1.415-3.4c-.033-.128-.066-.259-.1-.394l.052.029a3.44,3.44,0,0,0,1.472.242h.05a3.242,3.242,0,0,0,1.375-.232Zm-9.148-2.436h-.009c-.672,0-1.024-.092-1.124-.583l0-.023a1.613,1.613,0,0,1-.026-.22h0l.176-.682a4.953,4.953,0,0,0,1.932.032l.168.65h0a1.644,1.644,0,0,1-.022.2c0,.018-.005.034-.008.052C22.05,32.542,21.711,32.634,21.068,32.634Zm.866.519a8.63,8.63,0,0,1-.885,2.25,8.514,8.514,0,0,1-.9-2.256,2.744,2.744,0,0,0,.907.117h.035A2.61,2.61,0,0,0,21.934,33.153Zm.837-.969a7.081,7.081,0,0,1,2.616,1.124,10.754,10.754,0,0,0-3.355,1.542A10.951,10.951,0,0,0,22.77,32.185Zm-.009-.646-.134-.52a5.117,5.117,0,0,0,1.273-.591,7.3,7.3,0,0,0,2.71,1.6l-.274,1.057-.188.038A7.488,7.488,0,0,0,22.761,31.539Zm-.173-8.718a6.594,6.594,0,0,1,.361-.829q.147-.28.32-.544a6.663,6.663,0,0,1,11.163-.033q.174.264.324.544a6.587,6.587,0,0,1,.294.635,7.234,7.234,0,0,1-1.139-.165,6.079,6.079,0,0,1-.739-.224,4.466,4.466,0,0,1-2.134-1.514l-.221-.345-.276.3a9.609,9.609,0,0,1-5.2,2.518c-.237.047-.469.088-.694.123-.563.088-1.078.142-1.507.175-.3.023-.552.035-.754.042A6.478,6.478,0,0,1,22.588,22.821ZM21.141,21.61a4.489,4.489,0,0,1,1.211.17,7.241,7.241,0,0,0-.6,1.64,9.259,9.259,0,0,1-4.948,1.5A4.5,4.5,0,0,1,21.141,21.61Zm-4.5,4.5a4.5,4.5,0,0,1,.037-.551A10.689,10.689,0,0,0,21.6,24.3a7.408,7.408,0,0,0-.044.783,7.267,7.267,0,0,0,1.891,4.886,4.491,4.491,0,0,1-6.8-3.858Zm-1.259,9.549c.076-2.44,2.977-3.268,3.932-3.474a9.028,9.028,0,0,0,1.426,3.9,4.769,4.769,0,0,0-.892,1.876A6.524,6.524,0,0,1,15.382,35.659Zm13.335,6.878c-5.474,0-7.976-3.036-8.361-3.551,0-.118.011-.233.023-.346a4.221,4.221,0,0,1,.109-.623c.694-2.764,4-3.854,5.455-4.2.149-.036.278-.064.384-.085q.069.476.155.914c.065.331.136.646.213.943.072.279.149.54.227.788A10.208,10.208,0,0,0,28.486,39.6l.244.3.242-.3a10.3,10.3,0,0,0,1.542-3.217c.077-.245.152-.5.222-.778.078-.3.149-.622.216-.959q.086-.436.154-.913c.105.021.236.05.384.085,1.458.349,4.762,1.435,5.455,4.2a4.292,4.292,0,0,1,.11.624c.01.113.02.228.022.347C36.7,39.5,34.21,42.532,28.717,42.537Zm8.868-4.579a4.773,4.773,0,0,0-.885-1.865,9.084,9.084,0,0,0,1.419-3.909c.955.205,3.856,1.029,3.933,3.473A6.634,6.634,0,0,1,37.584,37.959Z" transform="translate(-10.586 -12.452)" fill="#3f3d56"/>
        <path id="Path_974" data-name="Path 974" d="M27.651,87.079a.994.994,0,1,0-.994.994A1,1,0,0,0,27.651,87.079Zm-1.674,0a.679.679,0,1,1,.679.679A.68.68,0,0,1,25.977,87.079Z" transform="translate(-16.914 -52.068)" fill="#3f3d56"/>
        <path id="Path_975" data-name="Path 975" d="M5.394,30.267l.9-.474.9.474-.172-1,.729-.712L6.748,28.4,6.3,27.49l-.451.914-1.009.146.73.712Zm.119-1.5.541-.079L6.3,28.2l.242.49.541.079-.391.381.092.539L6.3,29.437l-.483.254.093-.539Z" transform="translate(-4.836 -18.086)" fill="#3f3d56"/>
        <path id="Path_976" data-name="Path 976" d="M26.973,7.15,26.651,6.5l-.322.653-.72.1.521.508-.123.717.644-.339.645.338-.122-.717.522-.508Zm-.1.755-.226-.119-.226.118.043-.252-.183-.178.253-.037.113-.229.113.229.253.037-.183.178Z" transform="translate(-16.883 -5.911)" fill="#3f3d56"/>
        <path id="Path_977" data-name="Path 977" d="M84.4,66.894l.521.508-.123.718.644-.339.644.339-.123-.718.521-.508-.72-.105-.323-.652-.323.652Zm1.043-.046.113.229.253.037-.183.179.043.252-.226-.119-.226.119.043-.252-.183-.179.253-.037Z" transform="translate(-50.982 -40.499)" fill="#3f3d56"/>
        <path id="Path_978" data-name="Path 978" d="M84.448,13.69l-.417,1.284h-1.35l1.092.793-.417,1.283,1.092-.793,1.092.793-.417-1.283,1.092-.793h-1.35Zm.3,1.957.188.579-.493-.358-.493.358.188-.579-.493-.358h.609l.188-.579.188.579h.609Z" transform="translate(-49.982 -10.083)" fill="#3f3d56"/>
        <path id="Path_979" data-name="Path 979" d="M77.558,5.1a.994.994,0,1,0,.994.994A1,1,0,0,0,77.558,5.1Zm0,1.673a.679.679,0,1,1,.679-.679A.68.68,0,0,1,77.558,6.775Z" transform="translate(-46.435 -5.102)" fill="#3f3d56"/>
        <path id="Path_980" data-name="Path 980" d="M86.512,47.838a.8.8,0,1,0,.8-.8A.8.8,0,0,0,86.512,47.838Zm.8-.488a.488.488,0,1,1-.488.488A.488.488,0,0,1,87.315,47.35Z" transform="translate(-52.204 -29.421)" fill="#3f3d56"/>
        <path id="Path_981" data-name="Path 981" d="M12.272,15.673a1.044,1.044,0,1,0,1.044-1.044A1.045,1.045,0,0,0,12.272,15.673Zm1.044-.729a.729.729,0,1,1-.729.729A.729.729,0,0,1,13.316,14.944Z" transform="translate(-9.149 -10.627)" fill="#3f3d56"/>
        <path id="Path_982" data-name="Path 982" d="M22.17,88.268l.061-.309c-.135-.027-.27-.058-.4-.091l-.077.306Q21.959,88.226,22.17,88.268Z" transform="translate(-14.646 -53.103)" fill="#3f3d56"/>
        <path id="Path_983" data-name="Path 983" d="M18.764,87.175l.106-.3c-.252-.09-.5-.195-.749-.31l-.134.285C18.24,86.973,18.5,87.081,18.764,87.175Z" transform="translate(-12.463 -52.348)" fill="#3f3d56"/>
        <path id="Path_984" data-name="Path 984" d="M6.32,68.224q0,.208.01.414l.315-.015c-.006-.132-.01-.265-.01-.4s0-.274.01-.411L6.33,67.8C6.323,67.94,6.32,68.082,6.32,68.224Z" transform="translate(-5.697 -41.462)" fill="#3f3d56"/>
        <path id="Path_985" data-name="Path 985" d="M7.009,72.472c-.065-.259-.118-.526-.158-.794l-.312.046c.042.278.1.555.165.824Z" transform="translate(-5.824 -43.713)" fill="#3f3d56"/>
        <path id="Path_986" data-name="Path 986" d="M8.12,76.16c-.114-.242-.219-.494-.31-.748l-.3.107c.1.264.2.525.322.776Z" transform="translate(-6.389 -45.878)" fill="#3f3d56"/>
        <path id="Path_987" data-name="Path 987" d="M12.194,82.8l.213-.233c-.2-.181-.391-.374-.572-.574L11.6,82.2C11.788,82.408,11.987,82.609,12.194,82.8Z" transform="translate(-8.759 -49.693)" fill="#3f3d56"/>
        <path id="Path_988" data-name="Path 988" d="M9.222,79.055c.142.238.3.473.466.7l.254-.187c-.161-.218-.313-.444-.449-.674Z" transform="translate(-7.38 -47.897)" fill="#3f3d56"/>
        <path id="Path_989" data-name="Path 989" d="M15.418,85.034c-.231-.139-.457-.29-.673-.451l-.188.253c.224.167.459.324.7.468Z" transform="translate(-10.474 -51.197)" fill="#3f3d56"/>
        <path id="Path_990" data-name="Path 990" d="M6.929,64.849l-.309-.061c-.028.14-.053.281-.074.421l.312.046C6.878,65.12,6.9,64.985,6.929,64.849Z" transform="translate(-5.828 -39.717)" fill="#3f3d56"/>
        <path id="Path_991" data-name="Path 991" d="M89.195,75.965l-.315-.007c0,.137-.01.273-.023.409l.313.029Q89.191,76.182,89.195,75.965Z" transform="translate(-53.564 -46.195)" fill="#3f3d56"/>
        <path id="Path_992" data-name="Path 992" d="M83.179,86.324l-.2-.244a5.667,5.667,0,0,1-.733.51l.159.272A5.982,5.982,0,0,0,83.179,86.324Z" transform="translate(-49.73 -52.065)" fill="#3f3d56"/>
        <path id="Path_993" data-name="Path 993" d="M78.364,88.779a5.869,5.869,0,0,0,.9-.27l-.114-.294a5.6,5.6,0,0,1-.855.255Z" transform="translate(-47.44 -53.304)" fill="#3f3d56"/>
        <path id="Path_994" data-name="Path 994" d="M87.807,79.872,88.1,80a5.939,5.939,0,0,0,.306-.892l-.305-.079A5.692,5.692,0,0,1,87.807,79.872Z" transform="translate(-52.955 -47.975)" fill="#3f3d56"/>
        <path id="Path_995" data-name="Path 995" d="M85.524,83.624l.236.209a5.994,5.994,0,0,0,.569-.751l-.266-.17A5.577,5.577,0,0,1,85.524,83.624Z" transform="translate(-51.631 -50.228)" fill="#3f3d56"/>
        <path id="Path_996" data-name="Path 996" d="M75.2,89.421h.122q.156,0,.309-.008L75.61,89.1c-.135.007-.272.009-.409.006Z" transform="translate(-45.641 -53.817)" fill="#3f3d56"/>
        <rect id="Rectangle_511" data-name="Rectangle 511" width="0.315" height="0.84" transform="translate(34.953 14.8)" fill="#3f3d56"/>
        <rect id="Rectangle_512" data-name="Rectangle 512" width="0.315" height="0.84" transform="translate(34.953 11.44)" fill="#3f3d56"/>
        <rect id="Rectangle_513" data-name="Rectangle 513" width="0.315" height="0.84" transform="translate(34.953 9.76)" fill="#3f3d56"/>
        <rect id="Rectangle_514" data-name="Rectangle 514" width="0.315" height="0.84" transform="translate(34.953 13.12)" fill="#3f3d56"/>
      </g>
    </g>
    <g id="Group_221" data-name="Group 221">
      <circle id="Ellipse_262" data-name="Ellipse 262" cx="23.5" cy="23.5" r="23.5" transform="translate(914 1426)" fill="#d8e9ff"/>
      <g id="noun_agreement_1995301" transform="translate(920.759 1433.278)">
        <path id="Path_1021" data-name="Path 1021" d="M31.08,24.758l.526.913c-1.161-.44-3.364-1.066-4.868-.239-.1-.081-.193-.149-.26-.2-.75-.554-3.041.024-4.257.389l.6-1.064L19.7,22.814l-5.224,9.324,3.114,1.745.429-.765a8.4,8.4,0,0,0,.706,1.335c-.191.177-.325.3-.37.328-.521.307-.19.962.075,1.487l.061.121a1.335,1.335,0,0,0,1.26.6,2.522,2.522,0,0,0,.257-.015,1.767,1.767,0,0,0,.576,1.368,1.484,1.484,0,0,0,.816.207,2.38,2.38,0,0,0,.292-.021,2.949,2.949,0,0,0,.684,1.481,1.364,1.364,0,0,0,.893.279,2.568,2.568,0,0,0,.3-.02,1.227,1.227,0,0,0,1.03,1.2,2.4,2.4,0,0,0,.476.048,4.922,4.922,0,0,0,2.186-.712,1.586,1.586,0,0,0,.569.494,1.6,1.6,0,0,0,.731.184h0a1.049,1.049,0,0,0,.968-.529.905.905,0,0,0,.1-.455,2.146,2.146,0,0,0,.666.114h0a1.421,1.421,0,0,0,1.312-.709,1.265,1.265,0,0,0,.1-.893,2.676,2.676,0,0,0,.845.148,1.559,1.559,0,0,0,1.445-.755,1.423,1.423,0,0,0-.006-1.232,2.359,2.359,0,0,0,.441.047,1.753,1.753,0,0,0,1.613-.893,1.664,1.664,0,0,0,.016-1.453,2.211,2.211,0,0,0-.4-.607,4.292,4.292,0,0,0,.436-.817l.327.568,3.093-1.783-5.337-9.259Zm-13.7,8.363-2.137-1.2,4.676-8.347,2.137,1.2Zm.99-.622,3.454-6.163c1.523-.5,3.818-1.026,4.324-.651.85.628,5.14,4.172,5.157,4.182a.67.67,0,0,1,0,.941,1.244,1.244,0,0,1-1.249.27l-3.942-2.691-.074-.006a7.964,7.964,0,0,0-3.335.473l.222.514a5.5,5.5,0,0,1,1.456-.374c-1.8,1.766-4.058,3.956-5.236,5.07A10.466,10.466,0,0,1,18.369,32.5Zm10.665,8.2a.505.505,0,0,1-.471.227,1.037,1.037,0,0,1-.473-.121c-.38-.2-.589-.578-.457-.832a.507.507,0,0,1,.472-.227,1.035,1.035,0,0,1,.472.121C28.956,40.062,29.165,40.444,29.033,40.7Zm2.075-1.051a.876.876,0,0,1-.815.407h0a1.659,1.659,0,0,1-.758-.194,1.735,1.735,0,0,1-.348-.243c-.022-.02-.044-.039-.067-.058a.988.988,0,0,1-.317-1.108.875.875,0,0,1,.814-.407,1.66,1.66,0,0,1,.759.195,1.571,1.571,0,0,1,.706.7A.794.794,0,0,1,31.108,39.647Zm2.386-1.5a1.018,1.018,0,0,1-.948.453,2.24,2.24,0,0,1-1.02-.264c-.8-.414-1.248-1.2-.98-1.719a1.019,1.019,0,0,1,.948-.453,2.238,2.238,0,0,1,1.021.264,2.385,2.385,0,0,1,.311.195c.035.03.071.06.108.088C33.456,37.141,33.71,37.731,33.495,38.148Zm2.048-2.08a1.205,1.205,0,0,1-1.116.591,1.92,1.92,0,0,1-.879-.222,1.983,1.983,0,0,1-.236-.147c-.039-.028-.075-.057-.111-.087a1.347,1.347,0,0,1-.5-1.61A1.206,1.206,0,0,1,33.817,34a1.92,1.92,0,0,1,.879.222,1.826,1.826,0,0,1,.847.873A1.115,1.115,0,0,1,35.543,36.068ZM35.229,33.9a2.619,2.619,0,0,0-.275-.172,2.482,2.482,0,0,0-1.137-.285,1.754,1.754,0,0,0-1.613.894,1.654,1.654,0,0,0-.05,1.357,2.619,2.619,0,0,0-.659-.088,1.56,1.56,0,0,0-1.446.755,1.4,1.4,0,0,0-.032,1.169,2.094,2.094,0,0,0-.4-.044,1.42,1.42,0,0,0-1.311.709,1.289,1.289,0,0,0-.055,1,1.389,1.389,0,0,0-.147-.009,1.05,1.05,0,0,0-.969.529.925.925,0,0,0-.083.573c-1.284.665-1.825.739-2.341.635a.7.7,0,0,1-.585-.763A8.95,8.95,0,0,0,26,39.353l-.27-.491c-2.089,1.147-2.788.883-2.991.716a2.589,2.589,0,0,1-.5-1.166,6.284,6.284,0,0,0,1.79-.941l-.326-.456c-1.914,1.367-2.724.915-2.809.859-.241-.158-.318-.7-.326-1.052.529-.263,1.686-.989,1.941-1.15l-.3-.474c-.659.415-1.787,1.1-2.009,1.176-.284.094-1.035.1-1.205-.236l-.062-.124a2.2,2.2,0,0,1-.291-.752c.319-.187,5.035-4.8,6.6-6.336.314-.009.557,0,.67.007l3.852,2.63.066.034a2.189,2.189,0,0,0,.659.1,1.583,1.583,0,0,0,1.223-.518,1.231,1.231,0,0,0-.031-1.719c-.145-.12-2.98-2.462-4.468-3.649,1.7-.718,4.392.448,4.848.657l3.653,6.338A4.266,4.266,0,0,1,35.229,33.9Zm1.394-.647-4.778-8.289,2.123-1.224,4.778,8.289Z" transform="translate(-10.924 -16.216)" fill="#3f3d56"/>
        <path id="Path_1022" data-name="Path 1022" d="M27.549,87.008a.884.884,0,1,0-.884.884A.885.885,0,0,0,27.549,87.008Zm-1.488,0a.6.6,0,1,1,.6.6A.6.6,0,0,1,26.062,87.008Z" transform="translate(-18.007 -55.889)" fill="#3f3d56"/>
        <path id="Path_1023" data-name="Path 1023" d="M6.655,28.342l-.4-.812-.4.812-.9.131.649.632L5.453,30l.8-.422.8.422L6.9,29.105l.649-.632Zm.029,1.144-.43-.226-.43.226.082-.479-.348-.339.481-.07.215-.436.215.436.481.07-.348.339Z" transform="translate(-4.957 -19.171)" fill="#3f3d56"/>
        <path id="Path_1024" data-name="Path 1024" d="M26.942,7.117l-.286-.58-.287.58-.64.093.463.452-.109.638.573-.3.573.3-.109-.638.463-.452Zm-.086.671-.2-.106-.2.106.038-.224-.163-.159.225-.033.1-.2.1.2.225.033-.163.159Z" transform="translate(-17.974 -6.016)" fill="#3f3d56"/>
        <path id="Path_1025" data-name="Path 1025" d="M84.524,66.849l.464.452-.109.637.573-.3.573.3-.109-.637.464-.452-.641-.093-.286-.581-.286.581Zm.927-.04.1.2.225.032-.162.159.038.224-.2-.106-.2.106.038-.224-.162-.159.225-.032Z" transform="translate(-54.818 -43.388)" fill="#3f3d56"/>
        <path id="Path_1026" data-name="Path 1026" d="M84.371,13.73,84,14.871H82.8l.97.706-.37,1.141.971-.705.971.706-.371-1.141.97-.706h-1.2Zm.271,1.74.167.515-.438-.318-.438.319.167-.515-.438-.318H84.2l.167-.515.167.515h.542Z" transform="translate(-53.737 -10.524)" fill="#3f3d56"/>
        <path id="Path_1027" data-name="Path 1027" d="M77.568,6.909a.884.884,0,1,0-.884-.884A.885.885,0,0,0,77.568,6.909Zm0-1.487a.6.6,0,1,1-.6.6A.6.6,0,0,1,77.568,5.422Z" transform="translate(-49.905 -5.142)" fill="#3f3d56"/>
        <path id="Path_1028" data-name="Path 1028" d="M86.632,47.788a.713.713,0,1,0,.713-.713A.714.714,0,0,0,86.632,47.788Zm.713-.433a.433.433,0,1,1-.433.433A.434.434,0,0,1,87.345,47.355Z" transform="translate(-56.139 -31.419)" fill="#3f3d56"/>
        <path id="Path_1029" data-name="Path 1029" d="M14.248,15.6a.928.928,0,1,0-.928.928A.929.929,0,0,0,14.248,15.6Zm-1.576,0a.648.648,0,1,1,.648.648A.649.649,0,0,1,12.672,15.6Z" transform="translate(-9.616 -11.112)" fill="#3f3d56"/>
        <path id="Path_1030" data-name="Path 1030" d="M21.942,87.908l-.069.271c.122.031.246.059.371.084l.055-.275C22.178,87.965,22.059,87.938,21.942,87.908Z" transform="translate(-15.557 -57.007)" fill="#3f3d56"/>
        <path id="Path_1031" data-name="Path 1031" d="M9.342,79.076c.128.214.268.423.415.622l.225-.166c-.141-.192-.276-.393-.4-.6Z" transform="translate(-7.705 -51.383)" fill="#3f3d56"/>
        <path id="Path_1032" data-name="Path 1032" d="M7.078,72.424c-.058-.232-.106-.47-.14-.706l-.277.041c.037.245.085.491.146.733Z" transform="translate(-6.024 -46.862)" fill="#3f3d56"/>
        <path id="Path_1033" data-name="Path 1033" d="M11.72,82.216c.166.184.343.362.528.53l.189-.207c-.177-.162-.348-.333-.508-.51Z" transform="translate(-9.195 -53.323)" fill="#3f3d56"/>
        <path id="Path_1034" data-name="Path 1034" d="M8.172,76.117c-.1-.217-.2-.441-.276-.665l-.264.094c.083.233.18.465.286.69Z" transform="translate(-6.634 -49.202)" fill="#3f3d56"/>
        <path id="Path_1035" data-name="Path 1035" d="M15.443,85.024c-.205-.124-.407-.258-.6-.4l-.167.225a7.475,7.475,0,0,0,.621.416Z" transform="translate(-11.049 -54.949)" fill="#3f3d56"/>
        <path id="Path_1036" data-name="Path 1036" d="M18.226,86.607l-.12.253c.224.106.457.2.691.287l.094-.264A7.111,7.111,0,0,1,18.226,86.607Z" transform="translate(-13.197 -56.192)" fill="#3f3d56"/>
        <path id="Path_1037" data-name="Path 1037" d="M6.441,68.215c0,.123,0,.246.009.368l.28-.014c-.006-.117-.009-.236-.009-.354s0-.243.009-.366l-.28-.014Q6.441,68.026,6.441,68.215Z" transform="translate(-5.887 -44.429)" fill="#3f3d56"/>
        <path id="Path_1038" data-name="Path 1038" d="M7.006,64.882l-.274-.055q-.038.188-.065.375l.277.041Q6.97,65.062,7.006,64.882Z" transform="translate(-6.028 -42.544)" fill="#3f3d56"/>
        <path id="Path_1039" data-name="Path 1039" d="M89.278,76,89,76q0,.183-.02.363l.279.025C89.268,76.261,89.275,76.133,89.278,76Z" transform="translate(-57.609 -49.544)" fill="#3f3d56"/>
        <path id="Path_1040" data-name="Path 1040" d="M82.367,86.573l.141.241a5.361,5.361,0,0,0,.687-.478l-.178-.217A5.055,5.055,0,0,1,82.367,86.573Z" transform="translate(-53.466 -55.887)" fill="#3f3d56"/>
        <path id="Path_1041" data-name="Path 1041" d="M85.645,83.585l.209.186a5.3,5.3,0,0,0,.506-.668l-.236-.151A5.079,5.079,0,0,1,85.645,83.585Z" transform="translate(-55.52 -53.902)" fill="#3f3d56"/>
        <path id="Path_1042" data-name="Path 1042" d="M87.927,79.818l.257.112a5.294,5.294,0,0,0,.272-.793l-.271-.069A5.056,5.056,0,0,1,87.927,79.818Z" transform="translate(-56.95 -51.468)" fill="#3f3d56"/>
        <path id="Path_1043" data-name="Path 1043" d="M79.178,88.256a4.96,4.96,0,0,1-.76.226l.058.274a5.243,5.243,0,0,0,.8-.24Z" transform="translate(-50.991 -57.225)" fill="#3f3d56"/>
        <path id="Path_1044" data-name="Path 1044" d="M75.684,89.141c-.119.006-.241.008-.363.006l-.006.28h.111c.091,0,.182,0,.273-.007Z" transform="translate(-49.047 -57.78)" fill="#3f3d56"/>
        <rect id="Rectangle_519" data-name="Rectangle 519" width="0.28" height="0.747" transform="translate(31.067 13.155)" fill="#3f3d56"/>
        <rect id="Rectangle_520" data-name="Rectangle 520" width="0.28" height="0.747" transform="translate(31.067 11.662)" fill="#3f3d56"/>
        <rect id="Rectangle_521" data-name="Rectangle 521" width="0.28" height="0.747" transform="translate(31.067 10.168)" fill="#3f3d56"/>
        <rect id="Rectangle_522" data-name="Rectangle 522" width="0.28" height="0.747" transform="translate(31.067 8.675)" fill="#3f3d56"/>
      </g>
    </g>
    <g id="Group_222" data-name="Group 222" transform="translate(9 3.524)">
      <circle id="Ellipse_263" data-name="Ellipse 263" cx="21" cy="21" r="21" transform="translate(1015 1412.476)" fill="#d8e9ff"/>
      <g id="noun_hierarchy_2009569" transform="translate(1019.394 1416.847)">
        <path id="Path_1072" data-name="Path 1072" d="M43.463,25l-.02-.077a2.7,2.7,0,1,0-1.875-.033L41.54,25c-.585.124-2.319.626-2.319,2.223v.084l.046.07A3.815,3.815,0,0,0,42.5,28.8h.008a3.818,3.818,0,0,0,3.231-1.429l.046-.07v-.084C45.782,25.625,44.049,25.123,43.463,25Zm-.912-4.756a2.136,2.136,0,0,1,1.842,1.06,1.543,1.543,0,0,1-.946-.534l-.2-.306-.246.269a3.9,3.9,0,0,1-2.461.919A2.138,2.138,0,0,1,42.551,20.243Zm-2.137,2.136c0-.054,0-.106.008-.159a4.907,4.907,0,0,0,2.776-.9,2.361,2.361,0,0,0,1.435.582,2.136,2.136,0,1,1-4.218.476Zm2.1,3.153c-.3-.012-.411-.038-.448-.175a.458.458,0,0,1-.014-.08c0-.009,0-.018,0-.028l.055-.212a2.488,2.488,0,0,0,.789.015l.051.2c0,.01,0,.019,0,.028a.492.492,0,0,1-.018.1C42.89,25.5,42.786,25.532,42.519,25.532Zm.258.545a4.452,4.452,0,0,1-.272.712,4.361,4.361,0,0,1-.276-.715,1.96,1.96,0,0,0,.281.018h.021A1.845,1.845,0,0,0,42.776,26.078ZM42.5,28.244a3.374,3.374,0,0,1-2.717-1.11c.064-1.019,1.221-1.424,1.754-1.558a4.443,4.443,0,0,0,.751,1.931l.217.263.216-.265a4.475,4.475,0,0,0,.742-1.93c.534.132,1.69.536,1.754,1.558A3.375,3.375,0,0,1,42.5,28.244Z" transform="translate(-26.39 -14.25)" fill="#3f3d56"/>
        <path id="Path_1073" data-name="Path 1073" d="M25.486,61.677a2.219,2.219,0,1,0-1.668-.015l0,.007c-.51.114-1.872.538-1.872,1.831v.084l.046.07a3.122,3.122,0,0,0,2.64,1.172h.007a3.122,3.122,0,0,0,2.64-1.172l.046-.07V63.5C27.322,62.235,26.02,61.8,25.486,61.677Zm.547-3.012a1.111,1.111,0,0,1-.593-.375l-.136-.211A1.663,1.663,0,0,1,26.033,58.665Zm-1.36-.713a1.649,1.649,0,0,1,.516.09l-.192.21a2.986,2.986,0,0,1-1.854.714A1.662,1.662,0,0,1,24.674,57.952Zm-1.661,1.66c0-.025.006-.05.007-.075a4,4,0,0,0,2.171-.7,1.953,1.953,0,0,0,1.109.447,1.66,1.66,0,1,1-3.288.329Zm1.627,2.477c-.212,0-.275-.024-.3-.086a.257.257,0,0,1-.012-.072s0-.006,0-.009l.03-.113a2.238,2.238,0,0,0,.315.025,2.267,2.267,0,0,0,.238-.013l.026.1s0,.008,0,.012a.267.267,0,0,1-.012.072C24.9,62.066,24.841,62.079,24.64,62.089Zm.138.552a3.591,3.591,0,0,1-.143.384,3.658,3.658,0,0,1-.145-.384c.048,0,.1.009.149.009h0C24.69,62.65,24.734,62.645,24.778,62.641Zm-.145,1.624a2.676,2.676,0,0,1-2.125-.854c.061-.732.875-1.047,1.308-1.164a3.586,3.586,0,0,0,.6,1.518l.218.264.216-.265a3.623,3.623,0,0,0,.6-1.516c.433.117,1.246.432,1.307,1.164A2.681,2.681,0,0,1,24.633,64.266Z" transform="translate(-15.568 -37.871)" fill="#3f3d56"/>
        <path id="Path_1074" data-name="Path 1074" d="M34.521,29.2A5.2,5.2,0,0,0,29.4,33.519l-1.649-2.758V27.544a6.4,6.4,0,1,0-.56,0v3.217l-1.65,2.758a5.189,5.189,0,1,0,.076.964l1.854-3.1,1.854,3.1A5.195,5.195,0,1,0,34.521,29.2ZM20.429,39.035A4.636,4.636,0,1,1,25.064,34.4,4.642,4.642,0,0,1,20.429,39.035Zm1.2-17.881A5.844,5.844,0,1,1,27.474,27,5.85,5.85,0,0,1,21.631,21.154Zm12.89,17.881A4.636,4.636,0,1,1,39.156,34.4,4.642,4.642,0,0,1,34.521,39.035Z" transform="translate(-11.363 -11.16)" fill="#3f3d56"/>
        <path id="Path_1075" data-name="Path 1075" d="M63.205,61.677a2.219,2.219,0,1,0-1.667-.016l0,.007c-.51.114-1.872.538-1.872,1.831v.084l.046.07a3.121,3.121,0,0,0,2.64,1.172h.007A3.123,3.123,0,0,0,65,63.655l.046-.07V63.5C65.042,62.235,63.739,61.8,63.205,61.677Zm.547-3.012a1.113,1.113,0,0,1-.593-.375l-.136-.211A1.661,1.661,0,0,1,63.752,58.665Zm-1.36-.713a1.649,1.649,0,0,1,.516.09l-.192.21a2.986,2.986,0,0,1-1.854.714A1.662,1.662,0,0,1,62.393,57.952Zm-1.661,1.66c0-.025.006-.05.008-.075a4,4,0,0,0,2.171-.7,1.953,1.953,0,0,0,1.109.447,1.66,1.66,0,1,1-3.287.329Zm1.627,2.477c-.212,0-.276-.024-.3-.086a.256.256,0,0,1-.012-.072s0-.007,0-.01l.03-.113a2.234,2.234,0,0,0,.315.025,2.267,2.267,0,0,0,.238-.013l.026.1v.016a.279.279,0,0,1-.01.061C62.623,62.066,62.559,62.079,62.359,62.089Zm.139.552a3.507,3.507,0,0,1-.143.384,3.583,3.583,0,0,1-.145-.384c.048,0,.1.009.149.009h0C62.409,62.65,62.453,62.645,62.5,62.641Zm-.145,1.624a2.677,2.677,0,0,1-2.125-.854c.061-.732.875-1.047,1.307-1.164a3.586,3.586,0,0,0,.6,1.518l.218.264.216-.265a3.617,3.617,0,0,0,.6-1.516c.433.117,1.246.432,1.307,1.164A2.678,2.678,0,0,1,62.352,64.266Z" transform="translate(-39.195 -37.871)" fill="#3f3d56"/>
        <path id="Path_1076" data-name="Path 1076" d="M26.585,86.124a.884.884,0,1,0,.884.884A.885.885,0,0,0,26.585,86.124Zm0,1.488a.6.6,0,1,1,.6-.6A.6.6,0,0,1,26.585,87.612Z" transform="translate(-17.921 -55.868)" fill="#3f3d56"/>
        <path id="Path_1077" data-name="Path 1077" d="M6.175,29.578l.8.422-.153-.894.649-.633-.9-.131-.4-.813-.4.813-.9.131.649.633L5.373,30Zm-.7-.909.481-.07.215-.436.215.436.481.07-.348.34.082.479-.43-.226-.43.226.082-.479Z" transform="translate(-4.877 -19.166)" fill="#3f3d56"/>
        <path id="Path_1078" data-name="Path 1078" d="M26.863,7.117l-.287-.58-.287.58-.641.093.464.452L26,8.3l.573-.3.573.3-.109-.639.464-.452Zm-.086.672-.2-.106-.2.106.038-.224-.163-.159.225-.033.1-.2.1.2.225.033-.163.159Z" transform="translate(-17.888 -6.016)" fill="#3f3d56"/>
        <path id="Path_1079" data-name="Path 1079" d="M85.372,67.639l.573.3-.109-.638.464-.452-.641-.093-.287-.581-.287.581-.641.093.464.452-.109.638Zm-.1-.626.1-.2.1.2.225.033-.163.159.038.224-.2-.106-.2.106.038-.224-.163-.159Z" transform="translate(-54.717 -43.373)" fill="#3f3d56"/>
        <path id="Path_1080" data-name="Path 1080" d="M84.292,13.73l-.371,1.142h-1.2l.971.706L83.32,16.72l.971-.706.971.706-.371-1.142.971-.706h-1.2Zm.271,1.741.167.515-.438-.319-.439.319.167-.516-.438-.319h.542l.167-.515.167.515H85Z" transform="translate(-53.637 -10.521)" fill="#3f3d56"/>
        <path id="Path_1081" data-name="Path 1081" d="M77.488,5.142a.884.884,0,1,0,.884.884A.885.885,0,0,0,77.488,5.142Zm0,1.488a.6.6,0,1,1,.6-.6A.6.6,0,0,1,77.488,6.63Z" transform="translate(-49.806 -5.142)" fill="#3f3d56"/>
        <path id="Path_1082" data-name="Path 1082" d="M87.266,47.075a.714.714,0,1,0,.714.714A.715.715,0,0,0,87.266,47.075Zm0,1.148a.434.434,0,1,1,.434-.434A.434.434,0,0,1,87.266,48.223Z" transform="translate(-56.037 -31.408)" fill="#3f3d56"/>
        <path id="Path_1083" data-name="Path 1083" d="M13.241,16.527a.929.929,0,1,0-.929-.928A.93.93,0,0,0,13.241,16.527Zm0-1.577a.648.648,0,1,1-.649.649A.649.649,0,0,1,13.241,14.95Z" transform="translate(-9.534 -11.11)" fill="#3f3d56"/>
        <path id="Path_1084" data-name="Path 1084" d="M21.793,88.18c.123.031.246.059.371.084l.055-.275c-.12-.024-.24-.051-.358-.08Z" transform="translate(-15.473 -56.986)" fill="#3f3d56"/>
        <path id="Path_1085" data-name="Path 1085" d="M14.6,84.848a7.48,7.48,0,0,0,.622.417l.144-.24c-.205-.124-.407-.259-.6-.4Z" transform="translate(-10.966 -54.928)" fill="#3f3d56"/>
        <path id="Path_1086" data-name="Path 1086" d="M11.64,82.217c.166.184.343.362.528.53l.189-.207c-.177-.162-.349-.334-.508-.51Z" transform="translate(-9.113 -53.303)" fill="#3f3d56"/>
        <path id="Path_1087" data-name="Path 1087" d="M18.026,86.861c.224.106.457.2.692.287l.095-.264c-.226-.081-.45-.174-.665-.276Z" transform="translate(-13.113 -56.171)" fill="#3f3d56"/>
        <path id="Path_1088" data-name="Path 1088" d="M9.262,79.076c.128.214.268.424.415.622l.225-.166c-.142-.192-.276-.393-.4-.6Z" transform="translate(-7.624 -51.364)" fill="#3f3d56"/>
        <path id="Path_1089" data-name="Path 1089" d="M6.641,68.216c0-.121,0-.243.009-.366l-.28-.014q-.01.191-.009.38c0,.123,0,.246.009.368l.28-.014Q6.641,68.394,6.641,68.216Z" transform="translate(-5.807 -44.413)" fill="#3f3d56"/>
        <path id="Path_1090" data-name="Path 1090" d="M7.553,75.547c.083.233.18.466.287.691l.253-.12c-.1-.217-.2-.441-.276-.665Z" transform="translate(-6.553 -49.184)" fill="#3f3d56"/>
        <path id="Path_1091" data-name="Path 1091" d="M6.857,71.719l-.277.041c.037.245.086.492.146.733L7,72.425C6.94,72.192,6.892,71.955,6.857,71.719Z" transform="translate(-5.944 -46.845)" fill="#3f3d56"/>
        <path id="Path_1092" data-name="Path 1092" d="M6.863,65.243c.018-.12.039-.241.063-.362l-.275-.055q-.038.188-.065.375Z" transform="translate(-5.947 -42.527)" fill="#3f3d56"/>
        <path id="Path_1093" data-name="Path 1093" d="M88.9,76.362l.279.025c.012-.126.019-.254.021-.383L88.917,76Q88.914,76.182,88.9,76.362Z" transform="translate(-57.506 -49.526)" fill="#3f3d56"/>
        <path id="Path_1094" data-name="Path 1094" d="M82.287,86.574l.142.241a5.365,5.365,0,0,0,.688-.478l-.178-.217A5.06,5.06,0,0,1,82.287,86.574Z" transform="translate(-53.366 -55.865)" fill="#3f3d56"/>
        <path id="Path_1095" data-name="Path 1095" d="M78.338,88.482l.058.274a5.244,5.244,0,0,0,.8-.24l-.1-.261A4.918,4.918,0,0,1,78.338,88.482Z" transform="translate(-50.892 -57.203)" fill="#3f3d56"/>
        <path id="Path_1096" data-name="Path 1096" d="M85.564,83.586l.21.186a5.308,5.308,0,0,0,.506-.668l-.236-.151A5.011,5.011,0,0,1,85.564,83.586Z" transform="translate(-55.418 -53.882)" fill="#3f3d56"/>
        <path id="Path_1097" data-name="Path 1097" d="M87.847,79.819l.257.112a5.3,5.3,0,0,0,.272-.793l-.272-.069A5.057,5.057,0,0,1,87.847,79.819Z" transform="translate(-56.848 -51.448)" fill="#3f3d56"/>
        <path id="Path_1098" data-name="Path 1098" d="M75.241,89.146l-.006.28h.111c.092,0,.182,0,.273-.007L75.6,89.14C75.485,89.146,75.363,89.148,75.241,89.146Z" transform="translate(-48.948 -57.757)" fill="#3f3d56"/>
        <rect id="Rectangle_527" data-name="Rectangle 527" width="0.28" height="0.747" transform="translate(31.089 13.164)" fill="#3f3d56"/>
        <rect id="Rectangle_528" data-name="Rectangle 528" width="0.28" height="0.747" transform="translate(31.089 11.67)" fill="#3f3d56"/>
        <rect id="Rectangle_529" data-name="Rectangle 529" width="0.28" height="0.747" transform="translate(31.089 10.175)" fill="#3f3d56"/>
        <rect id="Rectangle_530" data-name="Rectangle 530" width="0.28" height="0.747" transform="translate(31.089 8.681)" fill="#3f3d56"/>
      </g>
    </g>
    <g id="Group_223" data-name="Group 223">
      <circle id="Ellipse_264" data-name="Ellipse 264" cx="27.5" cy="27.5" r="27.5" transform="translate(805 1629)" fill="#d8e9ff"/>
      <g id="noun_chart_1970984" transform="translate(805.199 1631.966)">
        <path id="Path_997" data-name="Path 997" d="M44.974,44.145H43.132a1.518,1.518,0,0,0,.251-.835V26.486a1.531,1.531,0,0,0-1.53-1.529H18.405a1.531,1.531,0,0,0-1.53,1.529V43.31a1.518,1.518,0,0,0,.251.835H15.286a.547.547,0,0,0-.373.128.488.488,0,0,0-.163.374,2.231,2.231,0,0,0,1.718,1.627H43.791a2.233,2.233,0,0,0,1.718-1.628.489.489,0,0,0-.163-.374A.547.547,0,0,0,44.974,44.145ZM17.57,26.486a.837.837,0,0,1,.836-.835H41.853a.837.837,0,0,1,.836.835V31.65l-3.745,1.409a1.617,1.617,0,0,0-3,.359l-2.74-.538a1.626,1.626,0,1,0-3.093.934L28.564,36.4a1.609,1.609,0,0,0-2.517.51l-1.7-.493a1.7,1.7,0,0,0,.023-.229,1.625,1.625,0,0,0-3.25-.062l-3.549,1.7V26.486Zm5.517,11.293a1.629,1.629,0,0,0,1.018-.707l1.774.513c0,.014,0,.027,0,.041a1.629,1.629,0,0,0,1.281,1.589v4.93H23.087Zm-.347-.655a.934.934,0,1,1,.934-.934A.935.935,0,0,1,22.74,37.124Zm3.829.5a.934.934,0,1,1,.934.934A.935.935,0,0,1,26.568,37.626Zm1.281,1.589a1.63,1.63,0,0,0,1.281-1.589,1.61,1.61,0,0,0-.123-.614l1.561-2.6a1.614,1.614,0,0,0,.7.349v9.385H27.849Zm2.828-6.044a.934.934,0,1,1,.934.934A.935.935,0,0,1,30.677,33.171Zm1.28,1.588a1.629,1.629,0,0,0,1.223-1.179l2.74.538a1.629,1.629,0,0,0,1.252,1.3v8.729H31.958Zm4.627-.932a.934.934,0,1,1,.934.934A.935.935,0,0,1,36.584,33.828Zm1.281,1.589a1.63,1.63,0,0,0,1.281-1.589c0-.035-.008-.067-.01-.1l3.552-1.336V43.31a.837.837,0,0,1-.836.835H37.866V35.417Zm-20.3,3.176,3.678-1.757a1.632,1.632,0,0,0,1.146.943v6.366H18.406a.837.837,0,0,1-.836-.835Zm26.222,6.988H16.468c-.245,0-.72-.443-.926-.742H44.717C44.511,45.139,44.037,45.581,43.792,45.581Z" transform="translate(-5.414 -10.671)" fill="#3f3d56"/>
        <path id="Path_998" data-name="Path 998" d="M27.691,87.18A1.095,1.095,0,1,0,26.6,88.275,1.1,1.1,0,0,0,27.691,87.18Zm-1.843,0a.748.748,0,1,1,.748.748A.749.749,0,0,1,25.848,87.18Z" transform="translate(-11.193 -43.523)" fill="#3f3d56"/>
        <path id="Path_999" data-name="Path 999" d="M5.29,30.548l.993-.522.994.522-.189-1.106.8-.784L6.781,28.5l-.5-1.007-.5,1.007-1.112.161.8.784ZM5.421,28.9l.6-.087.266-.54.267.54.6.087-.431.42.1.594-.533-.28-.532.279.1-.593Z" transform="translate(0 -12.032)" fill="#3f3d56"/>
        <path id="Path_1000" data-name="Path 1000" d="M26.951,7.216,26.6,6.5l-.355.719-.793.115.574.56-.135.79.709-.373.71.372-.135-.79.575-.56Zm-.105.831L26.6,7.916l-.248.13L26.4,7.77l-.2-.2.278-.04.124-.252.125.252.278.04-.2.2Z" transform="translate(-11.164 -0.75)" fill="#3f3d56"/>
        <path id="Path_1001" data-name="Path 1001" d="M84.245,66.971l.574.56-.135.791.709-.373.709.373-.135-.791.574-.56-.793-.116-.355-.718-.355.718Zm1.148-.05.125.252.279.041-.2.2.047.278-.249-.131-.249.131.047-.278-.2-.2.279-.041Z" transform="translate(-42.764 -32.802)" fill="#3f3d56"/>
        <path id="Path_1002" data-name="Path 1002" d="M84.467,13.69,84.007,15.1H82.521l1.2.874-.459,1.413,1.2-.873,1.2.873-.459-1.413,1.2-.874H84.926Zm.335,2.156.207.637-.543-.394-.543.395.207-.638-.543-.395h.671l.207-.637.207.637h.671Z" transform="translate(-41.837 -4.615)" fill="#3f3d56"/>
        <path id="Path_1003" data-name="Path 1003" d="M77.5,7.292A1.095,1.095,0,1,0,76.4,6.2,1.1,1.1,0,0,0,77.5,7.292Zm0-1.843a.748.748,0,1,1-.748.748A.749.749,0,0,1,77.5,5.449Z" transform="translate(-38.55)" fill="#3f3d56"/>
        <path id="Path_1004" data-name="Path 1004" d="M86.352,47.919a.884.884,0,1,0,.884-.884A.885.885,0,0,0,86.352,47.919Zm.884-.537a.537.537,0,1,1-.537.537A.537.537,0,0,1,87.236,47.382Z" transform="translate(-43.896 -22.536)" fill="#3f3d56"/>
        <path id="Path_1005" data-name="Path 1005" d="M14.412,15.778a1.149,1.149,0,1,0-1.149,1.15A1.151,1.151,0,0,0,14.412,15.778Zm-1.149.8a.8.8,0,1,1,.8-.8A.8.8,0,0,1,13.262,16.582Z" transform="translate(-3.997 -5.12)" fill="#3f3d56"/>
        <path id="Path_1006" data-name="Path 1006" d="M21.677,87.868l-.085.337q.227.058.46.1l.068-.34Q21.9,87.923,21.677,87.868Z" transform="translate(-9.092 -44.481)" fill="#3f3d56"/>
        <path id="Path_1007" data-name="Path 1007" d="M6.16,68.267q0,.229.011.456l.347-.017c-.007-.146-.011-.292-.011-.439s0-.3.011-.453L6.171,67.8C6.164,67.954,6.16,68.111,6.16,68.267Z" transform="translate(-0.798 -33.694)" fill="#3f3d56"/>
        <path id="Path_1008" data-name="Path 1008" d="M6.9,72.552c-.072-.285-.13-.579-.174-.874l-.343.051c.046.306.106.612.181.908Z" transform="translate(-0.916 -35.78)" fill="#3f3d56"/>
        <path id="Path_1009" data-name="Path 1009" d="M9.062,79.071c.157.262.33.521.513.77l.279-.206c-.178-.24-.344-.489-.494-.742Z" transform="translate(-2.358 -39.658)" fill="#3f3d56"/>
        <path id="Path_1010" data-name="Path 1010" d="M8.021,76.236c-.125-.266-.241-.544-.342-.824l-.326.117c.105.291.224.579.355.855Z" transform="translate(-1.439 -37.787)" fill="#3f3d56"/>
        <path id="Path_1011" data-name="Path 1011" d="M12.327,82.622c-.219-.2-.431-.412-.63-.632l-.258.233c.206.228.426.449.653.656Z" transform="translate(-3.636 -41.322)" fill="#3f3d56"/>
        <path id="Path_1012" data-name="Path 1012" d="M18.8,86.91c-.278-.1-.555-.215-.824-.342l-.148.314c.279.132.568.252.856.355Z" transform="translate(-7.068 -43.783)" fill="#3f3d56"/>
        <path id="Path_1013" data-name="Path 1013" d="M14.4,84.86c.247.184.506.357.769.516l.179-.3c-.254-.153-.5-.32-.741-.5Z" transform="translate(-5.225 -42.715)" fill="#3f3d56"/>
        <path id="Path_1014" data-name="Path 1014" d="M6.807,64.856l-.34-.068c-.031.154-.058.309-.081.464l.343.051C6.751,65.154,6.777,65,6.807,64.856Z" transform="translate(-0.92 -32.077)" fill="#3f3d56"/>
        <path id="Path_1015" data-name="Path 1015" d="M89.069,75.965l-.347-.007c0,.151-.011.3-.025.45l.345.031Q89.064,76.2,89.069,75.965Z" transform="translate(-45.156 -38.08)" fill="#3f3d56"/>
        <path id="Path_1016" data-name="Path 1016" d="M79.079,88.216a6.162,6.162,0,0,1-.941.281l.072.339a6.463,6.463,0,0,0,.995-.3Z" transform="translate(-39.482 -44.668)" fill="#3f3d56"/>
        <path id="Path_1017" data-name="Path 1017" d="M87.646,79.957l.318.138a6.539,6.539,0,0,0,.337-.982l-.336-.086A6.165,6.165,0,0,1,87.646,79.957Z" transform="translate(-44.592 -39.73)" fill="#3f3d56"/>
        <path id="Path_1018" data-name="Path 1018" d="M83.113,86.348l-.22-.268a6.24,6.24,0,0,1-.807.561l.175.3A6.617,6.617,0,0,0,83.113,86.348Z" transform="translate(-41.603 -43.52)" fill="#3f3d56"/>
        <path id="Path_1019" data-name="Path 1019" d="M85.364,83.7l.259.23a6.6,6.6,0,0,0,.626-.828l-.293-.187A6.141,6.141,0,0,1,85.364,83.7Z" transform="translate(-43.365 -41.818)" fill="#3f3d56"/>
        <path id="Path_1020" data-name="Path 1020" d="M75.491,89.1c-.148.007-.3.01-.45.007l-.007.347h.135q.171,0,.34-.009Z" transform="translate(-37.813 -45.143)" fill="#3f3d56"/>
        <rect id="Rectangle_515" data-name="Rectangle 515" width="0.347" height="0.925" transform="translate(43.166 19.55)" fill="#3f3d56"/>
        <rect id="Rectangle_516" data-name="Rectangle 516" width="0.347" height="0.925" transform="translate(43.166 15.85)" fill="#3f3d56"/>
        <rect id="Rectangle_517" data-name="Rectangle 517" width="0.347" height="0.925" transform="translate(43.166 17.7)" fill="#3f3d56"/>
        <rect id="Rectangle_518" data-name="Rectangle 518" width="0.347" height="0.925" transform="translate(43.166 21.4)" fill="#3f3d56"/>
      </g>
    </g>
    <g id="Group_224" data-name="Group 224" transform="translate(338.872 -316.047)">
      <circle id="Ellipse_265" data-name="Ellipse 265" cx="28.5" cy="28.5" r="28.5" transform="translate(801.128 1815.047)" fill="#d8e9ff"/>
      <g id="noun_Funds_Protection_2004954" data-name="noun_Funds Protection_2004954" transform="translate(810.863 1825.524)">
        <path id="Path_1045" data-name="Path 1045" d="M51.641,60.786a.813.813,0,0,0,.333.064h.117v.43h-.474V61.9h.474v.13h.624V61.9h.207a.622.622,0,0,0,.61-.684v-.31a.622.622,0,0,0-.61-.685h-.207v-.408h.527v-.624h-.527v-.13H52.09v.13h-.117a.812.812,0,0,0-.334.065.622.622,0,0,0-.242.188.655.655,0,0,0-.115.238,1.055,1.055,0,0,0-.031.266v.143a1.062,1.062,0,0,0,.031.265.638.638,0,0,0,.114.237A.616.616,0,0,0,51.641,60.786Zm1.073.064H52.9a.272.272,0,0,1,.007.06v.31a.272.272,0,0,1-.007.06h-.186Zm-.839-.9a.3.3,0,0,1,.02-.122.212.212,0,0,1,.078-.01h.117v.408h-.117c-.053,0-.076-.009-.087-.024a.437.437,0,0,1-.011-.109Z" transform="translate(-31.98 -36.637)" fill="#3f3d56"/>
        <path id="Path_1046" data-name="Path 1046" d="M40.284,36.3h.678v-2.15H39.206V30.08H29.613V24.925a2.373,2.373,0,0,1,1.486,2.2h.624a2.37,2.37,0,0,1,4.741,0h.624a2.37,2.37,0,0,1,4.741,0h.624c0-5.519-5.683-10.047-12.839-10.394v-1.3l-.884-1.179-.884,1.178v1.3c-7.156.347-12.839,4.875-12.839,10.394h.624a2.37,2.37,0,0,1,4.741,0h.624a2.37,2.37,0,0,1,4.741,0h.624a2.372,2.372,0,0,1,1.486-2.2V30.08H23.257v7.853H21.743v.312a3.876,3.876,0,0,0,3.872,3.871h.826a3.876,3.876,0,0,0,3.846-3.447h5.23v.688h5.106v-2.15h-.339Zm-1.7-5.6v3.451h-.49V32.342H37.78a.837.837,0,0,1-.836-.836v-.312H29.613V30.7Zm-1.114,2.228v1.223H35.857v1.526h-.678v1.252H30.312v-.485a2.27,2.27,0,1,0-.7-3.661v-.97h6.741A1.465,1.465,0,0,0,37.468,32.932Zm-9-17.3.26-.346.26.346v.178h-.52v-.178Zm0,.8h.52v.271c-.087,0-.173,0-.26,0s-.173,0-.26,0v-.271Zm-2.422,9.354a2.994,2.994,0,0,0-5.365,0,2.992,2.992,0,0,0-4.723-.859c1.269-4.142,6.064-7.284,11.885-7.576.1-.005.208-.007.312-.01s.208-.009.312-.01c.087,0,.173-.009.26-.009s.173.007.26.009c.1,0,.208.007.312.01s.208,0,.312.01c5.822.292,10.616,3.434,11.885,7.576a2.992,2.992,0,0,0-4.722.859,2.994,2.994,0,0,0-5.365,0,2.917,2.917,0,0,0-2.11-1.6,3.075,3.075,0,0,0-.312-.043c-.086-.007-.172-.019-.26-.019s-.174.011-.26.019a3.338,3.338,0,0,0-.624.117A3.007,3.007,0,0,0,26.047,25.792Zm2.942-1.025V35.01h-.52V24.767a2.268,2.268,0,0,1,.52,0ZM23.881,30.7h3.964v.49H25.519v.312a.837.837,0,0,1-.836.836h-.312v4.067h.312a.837.837,0,0,1,.836.836v.312h1.627v.49H24.91v-.113H23.882V30.7Zm3.964,1.113v3.192h-.7v1.923H26.109A1.465,1.465,0,0,0,25,35.818V32.932a1.465,1.465,0,0,0,1.114-1.114h1.736ZM27,38.67a.7.7,0,0,1-.559.281h-.826a.7.7,0,0,1-.56-.281Zm2.689-2.636v2.212c0,.038,0,.075-.006.113,0,.105-.012.209-.025.312a3.25,3.25,0,0,1-3.216,2.823h-.826a3.253,3.253,0,0,1-3.233-2.936h1.94c.009.039.025.075.037.113a1.328,1.328,0,0,0,1.255.9h.826a1.327,1.327,0,0,0,1.253-.9,1.291,1.291,0,0,0,.064-.312c0-.038.011-.074.011-.113V35.634h1.919v.4Zm.026-1.024a1.653,1.653,0,0,1-.1-.372v-.527a1.641,1.641,0,1,1,.7,1.628V35.01Zm5.8,3.036H30.312v-.49h4.866v.275h.339Zm.284-1.114V36.3h2.865v.9H35.8v-.275Zm3.2,1.738v.064H36.141v-.9h2.865Zm.339-2.989H36.48v-.9h2.865Z" transform="translate(-10.81 -10.462)" fill="#3f3d56"/>
        <path id="Path_1047" data-name="Path 1047" d="M18.889,52.531a2.718,2.718,0,1,0,2.718,2.718A2.721,2.721,0,0,0,18.889,52.531Zm0,4.812a2.094,2.094,0,1,1,2.094-2.094A2.1,2.1,0,0,1,18.889,57.343Z" transform="translate(-11.49 -32.821)" fill="#3f3d56"/>
        <path id="Path_1048" data-name="Path 1048" d="M21.459,56.177h-.325v-.644h.719v-.624h-.719v-.231H20.51v.231H20.3a.931.931,0,0,0-.38.073.687.687,0,0,0-.27.208.73.73,0,0,0-.13.27,1.231,1.231,0,0,0-.035.307v.176a1.26,1.26,0,0,0,.035.307.718.718,0,0,0,.129.269.691.691,0,0,0,.268.209.921.921,0,0,0,.383.074h.215v.673h-.654V58.1h.654v.231h.624V58.1h.325a.689.689,0,0,0,.678-.77v-.38A.689.689,0,0,0,21.459,56.177Zm-.949,0H20.3a.255.255,0,0,1-.157-.04.1.1,0,0,1-.018-.042.631.631,0,0,1-.016-.152v-.176a.62.62,0,0,1,.016-.153c.006-.024.013-.035.049-.062a.313.313,0,0,1,.126-.019h.215v.644Zm1,1.15c0,.073-.019.133-.054.146h-.325V56.8h.347a.272.272,0,0,1,.032.146Z" transform="translate(-13.423 -34.075)" fill="#3f3d56"/>
        <path id="Path_1049" data-name="Path 1049" d="M26.725,86.125a.984.984,0,1,0,.984.984A.986.986,0,0,0,26.725,86.125Zm0,1.657a.673.673,0,1,1,.673-.673A.673.673,0,0,1,26.725,87.782Z" transform="translate(-17.08 -52.442)" fill="#3f3d56"/>
        <path id="Path_1050" data-name="Path 1050" d="M6.809,28.435l-.447-.905-.447.905-1,.145.723.7-.171.995.893-.47.893.47-.171-.995.723-.7Zm.032,1.274-.479-.252-.479.252.092-.534L5.587,28.8l.536-.078.24-.485.24.485.536.078-.388.378Z" transform="translate(-4.917 -18.218)" fill="#3f3d56"/>
        <path id="Path_1051" data-name="Path 1051" d="M27.04,7.182l-.319-.646-.319.646-.713.1.516.5-.122.71.638-.335.638.335-.121-.71.516-.5Zm-.1.748-.224-.118L26.5,7.93l.043-.25L26.359,7.5l.25-.036.112-.227.112.227.25.036-.181.177Z" transform="translate(-17.049 -5.956)" fill="#3f3d56"/>
        <path id="Path_1052" data-name="Path 1052" d="M84.484,66.925l.516.5-.122.71.638-.335.638.335-.122-.71.516-.5-.713-.1-.319-.646-.319.647Zm1.033-.045.112.227.25.036-.181.177.043.25-.224-.118-.224.118.043-.25-.181-.177.25-.036Z" transform="translate(-51.39 -40.79)" fill="#3f3d56"/>
        <path id="Path_1053" data-name="Path 1053" d="M84.51,13.73,84.1,15H82.76l1.081.786-.413,1.271,1.081-.786,1.081.786-.413-1.271L86.259,15H84.923Zm.3,1.938.186.573-.488-.354-.488.355.186-.574-.488-.355h.6l.186-.574.186.574h.6Z" transform="translate(-50.383 -10.158)" fill="#3f3d56"/>
        <path id="Path_1054" data-name="Path 1054" d="M77.628,5.142a.984.984,0,1,0,.984.984A.986.986,0,0,0,77.628,5.142Zm0,1.657a.673.673,0,1,1,.673-.673A.673.673,0,0,1,77.628,6.8Z" transform="translate(-46.811 -5.142)" fill="#3f3d56"/>
        <path id="Path_1055" data-name="Path 1055" d="M86.592,47.87a.795.795,0,1,0,.795-.795A.8.8,0,0,0,86.592,47.87Zm.795-.483a.483.483,0,1,1-.483.483A.484.484,0,0,1,87.387,47.387Z" transform="translate(-52.622 -29.634)" fill="#3f3d56"/>
        <path id="Path_1056" data-name="Path 1056" d="M14.42,15.7a1.034,1.034,0,1,0-1.034,1.034A1.035,1.035,0,0,0,14.42,15.7Zm-1.034.722a.722.722,0,1,1,.722-.722A.723.723,0,0,1,13.386,16.425Z" transform="translate(-9.26 -10.707)" fill="#3f3d56"/>
        <path id="Path_1057" data-name="Path 1057" d="M21.91,87.908l-.077.3c.136.035.274.065.413.093L22.308,88Q22.106,87.957,21.91,87.908Z" transform="translate(-14.797 -53.484)" fill="#3f3d56"/>
        <path id="Path_1058" data-name="Path 1058" d="M18.066,86.89c.25.119.509.226.769.319l.105-.294c-.251-.09-.5-.193-.741-.307Z" transform="translate(-12.597 -52.725)" fill="#3f3d56"/>
        <path id="Path_1059" data-name="Path 1059" d="M12.478,82.6c-.2-.18-.388-.371-.566-.568l-.232.209a8.28,8.28,0,0,0,.588.59Z" transform="translate(-8.867 -50.051)" fill="#3f3d56"/>
        <path id="Path_1060" data-name="Path 1060" d="M14.638,84.872c.223.166.455.322.692.464l.161-.267c-.228-.137-.452-.287-.666-.447Z" transform="translate(-10.595 -51.565)" fill="#3f3d56"/>
        <path id="Path_1061" data-name="Path 1061" d="M9.3,79.093c.142.237.3.47.462.693l.251-.186c-.158-.214-.308-.439-.445-.667Z" transform="translate(-7.478 -48.242)" fill="#3f3d56"/>
        <path id="Path_1062" data-name="Path 1062" d="M7.086,72.5c-.065-.258-.118-.523-.156-.786l-.309.046c.041.273.1.548.163.816Z" transform="translate(-5.912 -44.027)" fill="#3f3d56"/>
        <path id="Path_1063" data-name="Path 1063" d="M6.4,68.259q0,.206.01.41l.312-.015q-.009-.2-.01-.4t.01-.407l-.312-.015C6.4,67.977,6.4,68.118,6.4,68.259Z" transform="translate(-5.784 -41.76)" fill="#3f3d56"/>
        <path id="Path_1064" data-name="Path 1064" d="M8.194,76.192c-.114-.242-.218-.491-.307-.741l-.294.105c.093.259.2.518.319.769Z" transform="translate(-6.48 -46.208)" fill="#3f3d56"/>
        <path id="Path_1065" data-name="Path 1065" d="M7,64.888,6.7,64.827c-.028.139-.052.278-.073.418l.309.046C6.955,65.156,6.978,65.022,7,64.888Z" transform="translate(-5.915 -40.003)" fill="#3f3d56"/>
        <path id="Path_1066" data-name="Path 1066" d="M89.272,76,88.96,76c0,.136-.01.271-.022.4l.311.028Q89.267,76.22,89.272,76Z" transform="translate(-53.992 -46.527)" fill="#3f3d56"/>
        <path id="Path_1067" data-name="Path 1067" d="M78.443,88.814a5.812,5.812,0,0,0,.894-.267l-.113-.291a5.541,5.541,0,0,1-.846.252Z" transform="translate(-47.824 -53.687)" fill="#3f3d56"/>
        <path id="Path_1068" data-name="Path 1068" d="M85.6,83.658l.233.207a5.935,5.935,0,0,0,.563-.744l-.263-.168A5.635,5.635,0,0,1,85.6,83.658Z" transform="translate(-52.045 -50.59)" fill="#3f3d56"/>
        <path id="Path_1069" data-name="Path 1069" d="M87.887,79.9l.286.124a5.9,5.9,0,0,0,.3-.883l-.3-.078A5.622,5.622,0,0,1,87.887,79.9Z" transform="translate(-53.378 -48.32)" fill="#3f3d56"/>
        <path id="Path_1070" data-name="Path 1070" d="M83.25,86.361l-.2-.241a5.58,5.58,0,0,1-.725.5l.157.269A5.887,5.887,0,0,0,83.25,86.361Z" transform="translate(-50.131 -52.439)" fill="#3f3d56"/>
        <path id="Path_1071" data-name="Path 1071" d="M75.282,89.146l-.007.312H75.4c.1,0,.205,0,.306-.008l-.016-.312C75.553,89.147,75.418,89.15,75.282,89.146Z" transform="translate(-46.012 -54.203)" fill="#3f3d56"/>
        <rect id="Rectangle_523" data-name="Rectangle 523" width="0.312" height="0.832" transform="translate(34.609 12.991)" fill="#3f3d56"/>
        <rect id="Rectangle_524" data-name="Rectangle 524" width="0.312" height="0.832" transform="translate(34.609 14.655)" fill="#3f3d56"/>
        <rect id="Rectangle_525" data-name="Rectangle 525" width="0.312" height="0.832" transform="translate(34.609 11.328)" fill="#3f3d56"/>
        <rect id="Rectangle_526" data-name="Rectangle 526" width="0.312" height="0.832" transform="translate(34.609 9.664)" fill="#3f3d56"/>
      </g>
    </g>
  </g>
</svg>
