<svg xmlns="http://www.w3.org/2000/svg" width="471.399" height="508.669" viewBox="0 0 471.399 508.669">
  <g id="Group_292" data-name="Group 292" transform="translate(-103.496 -3668.03)">
    <path id="Path_888" data-name="Path 888" d="M70.507,0,41.148,57.263h5.927v46.7H17.207L0,137.521,213.207,246.832l70.507-137.521Z" transform="translate(130.903 3817.024)" fill="#f2f2f2"/>
    <rect id="Rectangle_487" data-name="Rectangle 487" width="326.874" height="163.993" transform="translate(195.211 3854.274)" fill="#ffe18c"/>
    <rect id="Rectangle_488" data-name="Rectangle 488" width="241.264" height="0.556" transform="translate(241.073 3913.2)" fill="#6c63ff" opacity="0.3"/>
    <rect id="Rectangle_489" data-name="Rectangle 489" width="241.264" height="0.556" transform="translate(241.351 3927.098)" fill="#6c63ff" opacity="0.3"/>
    <rect id="Rectangle_490" data-name="Rectangle 490" width="241.264" height="0.556" transform="translate(241.351 3954.893)" fill="#6c63ff" opacity="0.3"/>
    <rect id="Rectangle_491" data-name="Rectangle 491" width="241.264" height="0.556" transform="translate(241.351 3967.123)" fill="#6c63ff" opacity="0.3"/>
    <rect id="Rectangle_492" data-name="Rectangle 492" width="241.264" height="0.556" transform="translate(241.351 3940.996)" fill="#6c63ff" opacity="0.3"/>
    <ellipse id="Ellipse_243" data-name="Ellipse 243" cx="103.399" cy="9.45" rx="103.399" ry="9.45" transform="translate(342.526 4157.8)" fill="#3f3d56"/>
    <path id="Path_889" data-name="Path 889" d="M210.109,225.272l-.767-.8,35.912-34.229,31.657,22.771,25.6-28.382,11.225,9.542,30.535-18.322,33.918,22.8,53.234-30.28.549.966-53.832,30.62-33.9-22.787-30.614,18.368-11.011-9.359-25.543,28.32-31.717-22.813Z" transform="translate(37.936 3742.254)" fill="#6c63ff"/>
    <circle id="Ellipse_244" data-name="Ellipse 244" cx="18.623" cy="18.623" r="18.623" transform="translate(537.65 3828.147)" fill="#006cff" opacity="0.4"/>
    <circle id="Ellipse_245" data-name="Ellipse 245" cx="13.064" cy="13.064" r="13.064" transform="translate(508.743 3842.6)" fill="#006cff" opacity="0.4"/>
    <circle id="Ellipse_246" data-name="Ellipse 246" cx="6.949" cy="6.949" r="6.949" transform="translate(498.736 4088.311)" fill="#006cff" opacity="0.4"/>
    <circle id="Ellipse_247" data-name="Ellipse 247" cx="5.281" cy="5.281" r="5.281" transform="translate(381.996 4126.113)" fill="#006cff" opacity="0.4"/>
    <circle id="Ellipse_248" data-name="Ellipse 248" cx="6.949" cy="6.949" r="6.949" transform="translate(362.539 4054.401)" fill="#006cff" opacity="0.4"/>
    <circle id="Ellipse_249" data-name="Ellipse 249" cx="7.227" cy="7.227" r="7.227" transform="translate(461.769 3906.252)" fill="#6c63ff"/>
    <path id="Path_892" data-name="Path 892" d="M718.512,534.987l-6.126.681a82.423,82.423,0,0,0,0,28.59c2.723,16.337,6.126,32.674,6.126,32.674s2.723,53.1,4.084,53.776,13.614,4.765,14.295.681.681-97.341.681-97.341l9.53,44.927s1.361,56.5,4.084,56.5,11.572-.681,11.572-5.446,2.042-67.39,2.042-67.39-.681-46.288-3.4-47.65S718.512,534.987,718.512,534.987Z" transform="translate(-296.473 3509.389)" fill="#2f2e41"/>
    <path id="Path_893" data-name="Path 893" d="M726.7,739.72s-6.126-.681-7.488,0-3.4,5.446,0,8.168,12.253,6.807,14.976,6.807a14.081,14.081,0,0,0,5.446-1.362l-1.361-11.572Z" transform="translate(-299.215 3418.334)" fill="#2f2e41"/>
    <g id="Group_203" data-name="Group 203" transform="translate(103.496 3668.03)">
      <rect id="Rectangle_494" data-name="Rectangle 494" width="242.19" height="88.047" transform="translate(0 97.705)" fill="#8dbfff"/>
      <path id="Path_908" data-name="Path 908" d="M270.683,495.52,205.35,540.37V514.4l27.5-18.876Z" transform="translate(-205.35 -397.815)" opacity="0.1"/>
      <path id="Path_909" data-name="Path 909" d="M335.247,495.52l-61.108,41.951-2.188,1.5-64.957,44.592H205.35V558.719l41.857-28.731,1.4-.962,48.807-33.505Z" transform="translate(-205.35 -397.815)" opacity="0.1"/>
      <path id="Path_910" data-name="Path 910" d="M303.082,667.625l-.652-.817a52.931,52.931,0,0,1,17.032-8.151,53.9,53.9,0,0,1,18.613-1.926,57.926,57.926,0,0,1,22.978,6.821l-.489.923c-16.623-8.811-31.372-7.48-40.817-4.812A51.757,51.757,0,0,0,303.082,667.625Z" transform="translate(-295.963 -525.619)" fill="#f2f2f2"/>
      <path id="Path_911" data-name="Path 911" d="M499.778,671.8a31.588,31.588,0,0,0-10.22-.19l4.051-3.394.942-5.2A31.555,31.555,0,0,0,499.778,671.8Z" transform="translate(-429.498 -530.198)" fill="#f2f2f2"/>
      <path id="Path_912" data-name="Path 912" d="M598.777,703.29a54.24,54.24,0,0,1-14.764-2.065,52.936,52.936,0,0,1-17.032-8.15l.652-.817a51.876,51.876,0,0,0,16.707,7.974c9.437,2.657,24.171,3.977,40.774-4.825l.49.924a57.927,57.927,0,0,1-22.978,6.821Q600.7,703.29,598.777,703.29Z" transform="translate(-484.748 -551.068)" fill="#f2f2f2"/>
      <path id="Path_913" data-name="Path 913" d="M764.33,693.683a31.583,31.583,0,0,0-5.226,8.785l-.943-5.2-4.051-3.393A31.558,31.558,0,0,0,764.33,693.683Z" transform="translate(-618.284 -552.086)" fill="#f2f2f2"/>
      <path id="Path_914" data-name="Path 914" d="M842.218,667.625l-.652-.817a52.931,52.931,0,0,1,17.032-8.151,53.907,53.907,0,0,1,18.613-1.926,57.925,57.925,0,0,1,22.978,6.821l-.489.924c-16.622-8.811-31.372-7.481-40.817-4.813A51.747,51.747,0,0,0,842.218,667.625Z" transform="translate(-680.693 -525.619)" fill="#f2f2f2"/>
      <path id="Path_915" data-name="Path 915" d="M1038.914,671.8a31.59,31.59,0,0,0-10.22-.19l4.051-3.394.943-5.2A31.544,31.544,0,0,0,1038.914,671.8Z" transform="translate(-814.228 -530.198)" fill="#f2f2f2"/>
      <rect id="Rectangle_495" data-name="Rectangle 495" width="16.982" height="0.523" transform="translate(142.388 121.742)" fill="#6c63ff"/>
      <rect id="Rectangle_496" data-name="Rectangle 496" width="16.982" height="0.523" transform="translate(142.388 126.967)" fill="#6c63ff"/>
      <rect id="Rectangle_497" data-name="Rectangle 497" width="16.982" height="0.523" transform="translate(142.388 132.192)" fill="#6c63ff"/>
      <rect id="Rectangle_498" data-name="Rectangle 498" width="16.982" height="0.523" transform="translate(66.099 152.571)" fill="#6c63ff"/>
      <rect id="Rectangle_499" data-name="Rectangle 499" width="16.982" height="0.523" transform="translate(66.099 157.796)" fill="#6c63ff"/>
      <rect id="Rectangle_500" data-name="Rectangle 500" width="16.982" height="0.523" transform="translate(66.099 163.021)" fill="#6c63ff"/>
      <rect id="Rectangle_501" data-name="Rectangle 501" width="16.982" height="0.523" transform="translate(221.028 152.571)" fill="#6c63ff"/>
      <rect id="Rectangle_502" data-name="Rectangle 502" width="16.982" height="0.523" transform="translate(221.028 157.796)" fill="#6c63ff"/>
      <rect id="Rectangle_503" data-name="Rectangle 503" width="16.982" height="0.523" transform="translate(221.028 163.021)" fill="#6c63ff"/>
      <circle id="Ellipse_251" data-name="Ellipse 251" cx="3.396" cy="3.396" r="3.396" transform="translate(71.586 141.336)" fill="#ffe18c"/>
      <circle id="Ellipse_252" data-name="Ellipse 252" cx="3.396" cy="3.396" r="3.396" transform="translate(147.613 136.634)" fill="#ffe18c"/>
      <circle id="Ellipse_253" data-name="Ellipse 253" cx="3.396" cy="3.396" r="3.396" transform="translate(225.992 141.336)" fill="#ffe18c"/>
      <path id="Path_916" data-name="Path 916" d="M409.976,431.753l-5.059-5.424,5.424-5.059,5.059,5.424Zm-4.253-5.4L410,430.946l4.589-4.281-4.281-4.589Z" transform="translate(-369.099 -357.69)" fill="#3f3d56"/>
      <path id="Path_917" data-name="Path 917" d="M834.976,209.753l-5.059-5.424,5.424-5.059,5.059,5.424Zm-4.252-5.4L835,208.946l4.589-4.281-4.28-4.589Z" transform="translate(-672.381 -199.27)" fill="#3f3d56"/>
      <path id="Path_918" data-name="Path 918" d="M1046.02,523.48H1038.6v-7.417h7.417Zm-6.846-.57h6.276v-6.276h-6.276Z" transform="translate(-821.3 -425.335)" fill="#3f3d56"/>
      <circle id="Ellipse_254" data-name="Ellipse 254" cx="3.787" cy="3.787" r="3.787" transform="translate(111.087 119.787)" fill="#ffe18c"/>
      <path id="Path_919" data-name="Path 919" d="M653.694,614.43a10.939,10.939,0,1,1,10.939-10.939A10.939,10.939,0,0,1,653.694,614.43Zm0-21.036a10.1,10.1,0,1,0,10.1,10.1,10.1,10.1,0,0,0-10.1-10.1Z" transform="translate(-538.82 -479.918)" fill="#f2f2f2"/>
      <rect id="Rectangle_504" data-name="Rectangle 504" width="31.547" height="36.754" transform="translate(93.571 32.374)" fill="#f2f2f2"/>
      <path id="Path_920" data-name="Path 920" d="M670.171,495.11l-.438-.428a22.388,22.388,0,0,0,4.491-7.856c1.49-4.485,2.218-11.568-2.777-19.842-5.111-8.466-5.341-15.342-4.634-19.619a17.578,17.578,0,0,1,2.815-7.372l.487.372a17.332,17.332,0,0,0-2.7,7.136c-.682,4.169-.444,10.878,4.56,19.166,5.123,8.486,4.365,15.765,2.826,20.378A22.559,22.559,0,0,1,670.171,495.11Z" transform="translate(-555.779 -371.051)" fill="#3f3d56"/>
      <path id="Path_921" data-name="Path 921" d="M649.6,331.816H605.5v-44.1h44.1Zm-43.492-.613h42.88v-42.88h-42.88Z" transform="translate(-512.235 -262.382)" fill="#3f3d56"/>
      <rect id="Rectangle_505" data-name="Rectangle 505" width="26.953" height="0.613" transform="translate(102.453 38.193)" fill="#3f3d56"/>
      <rect id="Rectangle_506" data-name="Rectangle 506" width="26.953" height="0.613" transform="translate(102.453 44.931)" fill="#3f3d56"/>
      <rect id="Rectangle_507" data-name="Rectangle 507" width="26.953" height="0.613" transform="translate(102.453 51.67)" fill="#3f3d56"/>
      <rect id="Rectangle_508" data-name="Rectangle 508" width="0.573" height="14.872" transform="translate(150.687 72.974)" fill="#3f3d56"/>
      <path id="Path_936" data-name="Path 936" d="M800.214,442a17.309,17.309,0,0,0,2.724,4.9l-2.724-.985-2.724.985A17.3,17.3,0,0,0,800.214,442Z" transform="translate(-649.24 -372.483)" fill="#3f3d56"/>
      <rect id="Rectangle_509" data-name="Rectangle 509" width="0.573" height="14.872" transform="translate(81.952 60.086)" fill="#3f3d56"/>
      <path id="Path_937" data-name="Path 937" d="M560.214,397a17.307,17.307,0,0,0,2.724,4.9l-2.724-.985-2.724.985A17.294,17.294,0,0,0,560.214,397Z" transform="translate(-477.975 -340.371)" fill="#3f3d56"/>
      <rect id="Rectangle_510" data-name="Rectangle 510" width="0.573" height="14.872" transform="translate(177.035 48.63)" fill="#3f3d56"/>
      <path id="Path_938" data-name="Path 938" d="M892.214,357a17.311,17.311,0,0,0,2.724,4.9l-2.724-.985-2.724.985A17.3,17.3,0,0,0,892.214,357Z" transform="translate(-714.892 -311.827)" fill="#3f3d56"/>
    </g>
    <path id="Path_894" data-name="Path 894" d="M783.149,742.167l.681,9.53s8.849,1.361,9.53,0,7.488-4.765,8.168-5.446,1.361-8.169-2.723-8.849-5.446,1.361-5.446,1.361Z" transform="translate(-328.436 3419.291)" fill="#2f2e41"/>
    <path id="Path_895" data-name="Path 895" d="M668.73,432.612s-16.337,15.656-14.295,23.825,18.379,31.993,18.379,31.993,15.656,8.169,17.7,0-10.891-6.126-10.891-6.126L669.411,457.8l11.572-16.337Z" transform="translate(-271.197 3554.584)" fill="#ffb8b8"/>
    <path id="Path_896" data-name="Path 896" d="M805.151,347.016s14.882-9.57,14.538-16.145-9.316-27.306-9.316-27.306-7.019-14.592-9.809-8.629,3.667,12.312,3.667,12.312l4.168,20.336L797.072,338.39Z" transform="translate(-334.619 3616.361)" fill="#ffb8b8"/>
    <circle id="Ellipse_250" data-name="Ellipse 250" cx="12.253" cy="12.253" r="12.253" transform="translate(421.359 3925.251)" fill="#ffb8b8"/>
    <path id="Path_897" data-name="Path 897" d="M734.169,353.256l2.042,12.933,14.976-2.723s-.681-12.934-.681-14.295S734.169,353.256,734.169,353.256Z" transform="translate(-306.684 3591.736)" fill="#ffb8b8"/>
    <path id="Path_898" data-name="Path 898" d="M718.262,377.561s17.018-4.084,19.06-2.723,12.253,2.723,12.253,2.723l11.572,17.7-3.4,22.463s-.681,36.078.681,42.2,8.849,6.807-6.807,8.169-18.379-.681-29.271,2.042-19.74-1.361-17.018-4.084,7.488-46.288,2.042-50.372-7.488-25.186-7.488-25.186S718.262,380.965,718.262,377.561Z" transform="translate(-291.458 3580.364)" fill="#d0cde1"/>
    <path id="Path_899" data-name="Path 899" d="M785.6,378.738l2.042-2.042,4.084-4.084S805,378.4,804.318,380.44s-5.105,13.955-5.105,13.955l-6.126,2.042Z" transform="translate(-329.524 3581.23)" fill="#d0cde1"/>
    <path id="Path_900" data-name="Path 900" d="M696.632,404.585l-8.169-1.361s-6.126,6.807-8.168,9.53-6.126,9.53-6.126,9.53l14.295,10.211,10.892-11.572Z" transform="translate(-280.038 3567.635)" fill="#d0cde1"/>
    <path id="Path_901" data-name="Path 901" d="M737.3,313.992l-.126-.982a7.711,7.711,0,0,0-2.452.385,4.028,4.028,0,0,1,.151-1.764,7.842,7.842,0,0,0-2.27.987l-.495-1.791-6.805,3.354c-2.443,1.2-5.018,2.527-6.414,4.865-1.557,2.607-1.286,5.956-.222,8.8s2.833,5.36,4.25,8.045a20.1,20.1,0,0,0,1.932,3.287c2.568,3.2,7.568,3.849,11.19,1.916a6.476,6.476,0,0,0,3.1-3.191,20.747,20.747,0,0,0,.619-2.642c.448-1.83.968-5.607,2.454-6.764.654-.509,1.951,1.179,2.493.552,1.393-1.612,1.1-4.1.236-6.045a44.117,44.117,0,0,0-2.9-5.663A26.841,26.841,0,0,0,737.3,313.992Z" transform="translate(-299.413 3608.668)" fill="#2f2e41"/>
    <rect id="Rectangle_493" data-name="Rectangle 493" width="35.578" height="35.578" transform="translate(130.491 3861.062)" fill="#3f3d56" opacity="0.371"/>
  </g>
</svg>
