<svg xmlns="http://www.w3.org/2000/svg" xmlns:xlink="http://www.w3.org/1999/xlink" width="1024" height="700" viewBox="0 200 1024 550">
  <defs>
    <clipPath id="clip-iPad_3">
      <rect width="1024" height="660"/>
    </clipPath>
  </defs>
  <g id="iPad_3" data-name="iPad – 3" clip-path="url(#clip-iPad_3)">
    <rect width="1024" height="660" fill="none"/>
    <g id="Group_208" data-name="Group 208" transform="translate(-9128.795 -4885.02)">
      <circle id="Ellipse_225" data-name="Ellipse 225" cx="10.5" cy="10.5" r="10.5" transform="translate(9372.795 5072.019)" fill="#8dbfff"/>
      <circle id="Ellipse_226" data-name="Ellipse 226" cx="11" cy="11" r="11" transform="translate(9548.795 5031.019)" fill="#8dbfff"/>
      <circle id="Ellipse_227" data-name="Ellipse 227" cx="19.5" cy="19.5" r="19.5" transform="translate(9532.795 5199.019)" fill="#8dbfff"/>
      <ellipse id="Ellipse_228" data-name="Ellipse 228" cx="5.5" cy="4" rx="5.5" ry="4" transform="translate(9477.795 5045.019)" fill="#ff6584"/>
      <circle id="Ellipse_229" data-name="Ellipse 229" cx="5.5" cy="5.5" r="5.5" transform="translate(9358.795 5236.019)" fill="#ff6584"/>
      <ellipse id="Ellipse_230" data-name="Ellipse 230" cx="5" cy="4.5" rx="5" ry="4.5" transform="translate(9926.795 5247.019)" fill="#ff6584"/>
      <circle id="Ellipse_231" data-name="Ellipse 231" cx="5" cy="5" r="5" transform="translate(9404.795 5151.019)" fill="#8dbfff"/>
      <ellipse id="Ellipse_232" data-name="Ellipse 232" cx="3.5" cy="4" rx="3.5" ry="4" transform="translate(9932.795 5045.019)" fill="#8dbfff"/>
      <ellipse id="Ellipse_233" data-name="Ellipse 233" cx="5" cy="4.5" rx="5" ry="4.5" transform="translate(9379.795 5383.019)" fill="#8dbfff"/>
      <ellipse id="Ellipse_234" data-name="Ellipse 234" cx="5.5" cy="5" rx="5.5" ry="5" transform="translate(9858.795 5336.019)" fill="#8dbfff"/>
      <circle id="Ellipse_235" data-name="Ellipse 235" cx="5" cy="5" r="5" transform="translate(9720.795 5040.019)" fill="#8dbfff"/>
      <path id="Path_794" data-name="Path 794" d="M839.966,244.425a11.966,11.966,0,1,1,11.966-11.966A11.966,11.966,0,0,1,839.966,244.425Zm0-22.336a10.37,10.37,0,1,0,10.37,10.371A10.371,10.371,0,0,0,839.966,222.088Z" transform="translate(8960.173 4889.874)" fill="#8dbfff"/>
      <path id="Path_795" data-name="Path 795" d="M812.775,284.043a8.775,8.775,0,1,1,8.775-8.775,8.775,8.775,0,0,1-8.775,8.775Zm0-15.955a7.18,7.18,0,1,0,7.179,7.18A7.18,7.18,0,0,0,812.775,268.088Z" transform="translate(8965.027 4880.57)" fill="#8dbfff"/>
      <path id="Path_796" data-name="Path 796" d="M874.775,337.043a8.775,8.775,0,1,1,8.775-8.775A8.775,8.775,0,0,1,874.775,337.043Zm0-15.955a7.18,7.18,0,1,0,7.18,7.18,7.18,7.18,0,0,0-7.18-7.18Z" transform="translate(8952.487 4869.849)" fill="#8dbfff"/>
      <path id="Path_797" data-name="Path 797" d="M840.414,323.32a65.414,65.414,0,1,1,65.414-65.414A65.414,65.414,0,0,1,840.414,323.32Zm0-129.232a63.818,63.818,0,1,0,63.818,63.818A63.818,63.818,0,0,0,840.414,194.088Z" transform="translate(8970.894 4895.538)" fill="#8dbfff"/>
      <path id="Path_798" data-name="Path 798" d="M832.323,295.534c-54.574,0-97.323-11.563-97.323-26.325,0-8.6,12.688-15.993,35.727-20.813l.327,1.562c-21.9,4.581-34.459,11.6-34.459,19.251,0,13.4,43.838,24.73,95.728,24.73s95.728-11.325,95.728-24.73c0-7.668-12.6-14.693-34.576-19.276l.326-1.562c23.116,4.821,35.846,12.221,35.846,20.837C929.646,283.971,886.9,295.534,832.323,295.534Z" transform="translate(8978.985 4884.235)" fill="#8dbfff"/>
      <path id="Path_799" data-name="Path 799" d="M742.244,518.315c-2.213,0-4.449-.035-6.644-.1l.05-1.594c3.151.1,6.367.125,9.533.082l.022,1.6Q743.727,518.315,742.244,518.315Zm12.56-.37-.093-1.592c3.156-.186,6.352-.448,9.5-.778l.167,1.586C761.205,517.494,757.985,517.758,754.8,517.945ZM726.01,517.7c-3.182-.244-6.4-.563-9.559-.951l.195-1.583c3.136.384,6.327.7,9.486.943Zm47.895-1.754-.239-1.577c3.136-.476,6.3-1.028,9.389-1.643l.311,1.564C780.247,514.906,777.064,515.463,773.9,515.942Zm-66.957-.583c-3.144-.533-6.317-1.145-9.432-1.821l.338-1.56c3.091.672,6.24,1.279,9.36,1.807Zm85.794-3.161-.383-1.549c3.078-.761,6.173-1.6,9.2-2.5l.453,1.53C798.961,510.584,795.843,511.431,792.742,512.2Zm-104.563-.915c-3.084-.82-6.187-1.723-9.224-2.683l.481-1.521c3.014.953,6.093,1.848,9.153,2.661Zm122.976-4.548-.523-1.507c2.987-1.038,5.991-2.161,8.93-3.337l.592,1.482C817.192,504.558,814.165,505.689,811.155,506.735Zm-141.314-1.25c-2.995-1.1-6.009-2.289-8.956-3.53l.619-1.471c2.925,1.232,5.916,2.411,8.888,3.5Zm159.127-5.878-.66-1.452c2.868-1.3,5.752-2.695,8.569-4.135l.726,1.421C834.763,496.893,831.857,498.295,828.967,499.608ZM652.1,498.017c-2.879-1.372-5.769-2.831-8.588-4.338l.752-1.407c2.8,1.495,5.665,2.943,8.523,4.3Zm193.935-7.135-.79-1.385c2.751-1.57,5.5-3.22,8.16-4.9l.852,1.348c-2.684,1.7-5.45,3.361-8.223,4.942Zm-210.9-1.929c-2.738-1.629-5.481-3.347-8.15-5.1l.878-1.332c2.649,1.745,5.37,3.45,8.088,5.066Zm227.113-8.328-.913-1.307c2.59-1.81,5.175-3.7,7.683-5.632l.972,1.265c-2.526,1.942-5.131,3.852-7.742,5.674Zm-243.168-2.247c-2.575-1.87-5.147-3.83-7.646-5.825l1-1.246c2.48,1.979,5.033,3.924,7.588,5.78Zm258.387-9.45-1.028-1.22c2.414-2.037,4.817-4.16,7.142-6.31l1.083,1.172C882.323,464.737,879.9,466.876,877.468,468.929Zm-273.4-2.541c-2.4-2.1-4.781-4.285-7.081-6.493l1.1-1.151c2.283,2.192,4.648,4.36,7.028,6.445Zm287.5-10.5-1.136-1.12c2.226-2.255,4.427-4.589,6.542-6.937l1.186,1.067C896.027,451.265,893.809,453.616,891.566,455.889Zm-301.36-2.8c-2.2-2.314-4.374-4.705-6.459-7.108l1.205-1.046c2.069,2.385,4.226,4.758,6.41,7.053Zm314.22-11.471-1.232-1.013c2.011-2.447,3.99-4.972,5.886-7.506l1.278.955C908.447,436.606,906.452,439.151,904.426,441.616ZM577.62,438.587c-1.976-2.5-3.922-5.075-5.783-7.662l1.295-.932c1.848,2.567,3.778,5.125,5.74,7.6Zm338.317-12.362-1.32-.9c1.779-2.62,3.522-5.316,5.179-8.015l1.36.835C919.485,420.868,917.729,423.585,915.936,426.225ZM566.41,423.01c-1.738-2.665-3.44-5.407-5.057-8.153l1.374-.81c1.606,2.724,3.294,5.446,5.019,8.09ZM926,409.839l-1.4-.771c1.532-2.772,3.02-5.618,4.424-8.461l1.43.707C929.043,404.178,927.543,407.046,926,409.839Zm-369.325-3.355c-1.488-2.812-2.931-5.7-4.288-8.576l1.443-.681c1.347,2.856,2.779,5.72,4.256,8.51ZM934.52,392.591l-1.461-.64c1.272-2.9,2.492-5.877,3.629-8.837l1.489.572C937.032,386.669,935.8,389.665,934.52,392.591ZM548.5,389.149c-1.223-2.935-2.394-5.939-3.481-8.927l1.5-.545c1.078,2.966,2.241,5.946,3.454,8.858Zm392.922-14.531-1.515-.5c1-3,1.935-6.066,2.792-9.115l1.536.432C943.369,368.5,942.422,371.595,941.419,374.618Zm-399.477-3.5c-.949-3.041-1.841-6.147-2.651-9.233l1.543-.405c.8,3.063,1.689,6.146,2.631,9.163Zm404.677-14.993-1.554-.362c.714-3.075,1.367-6.215,1.941-9.332l1.569.288C948,349.865,947.339,353.028,946.619,356.128ZM537.07,352.543c-.665-3.116-1.268-6.291-1.789-9.437l1.574-.262c.518,3.123,1.116,6.274,1.776,9.366ZM950.1,337.24l-1.581-.217c.429-3.125.791-6.311,1.077-9.471l1.589.143C950.893,330.88,950.527,334.091,950.1,337.24ZM533.925,333.6c-.376-3.158-.685-6.375-.918-9.56l1.592-.117c.231,3.162.538,6.354.911,9.489Zm417.905-15.483-1.594-.072c.142-3.161.214-6.368.214-9.53h1.6c0,3.186-.072,6.417-.216,9.6Zm-419.307-3.671c-.055-1.956-.082-3.952-.083-5.931q0-1.842.032-3.676l1.6.028q-.032,1.821-.032,3.648c0,1.964.028,3.945.082,5.887Zm417.916-8.156c-.033-3.163-.139-6.369-.314-9.53l1.592-.089c.177,3.185.283,6.415.317,9.6ZM534.447,295.339l-1.592-.1c.2-3.188.474-6.408.816-9.57l1.586.172C534.917,288.98,534.645,292.175,534.447,295.339Zm414.932-8.085c-.319-3.145-.715-6.328-1.178-9.459l1.578-.233c.466,3.156.866,6.362,1.187,9.531ZM536.5,276.391l-1.577-.244c.489-3.156,1.057-6.337,1.688-9.456l1.564.316C537.548,270.1,536.984,273.259,536.5,276.391Zm410.092-7.99c-.608-3.112-1.295-6.245-2.041-9.311l1.55-.377c.752,3.09,1.443,6.247,2.057,9.382ZM540.278,257.71l-1.548-.388c.775-3.09,1.633-6.206,2.551-9.261l1.528.459C541.9,251.552,541.047,254.644,540.278,257.71Zm401.8-7.828c-.89-3.038-1.862-6.094-2.89-9.084l1.508-.519c1.036,3.013,2.016,6.093,2.913,9.154ZM545.77,239.431l-1.505-.529c1.06-3.016,2.205-6.046,3.4-9.007l1.479.6C547.959,233.431,546.822,236.439,545.77,239.431Zm390.116-7.574c-1.164-2.936-2.41-5.883-3.705-8.759l1.455-.655c1.3,2.9,2.561,5.867,3.733,8.826ZM552.931,221.724l-1.45-.666c1.333-2.9,2.751-5.812,4.215-8.649l1.418.732C555.661,215.956,554.254,218.844,552.931,221.724Zm375.147-7.208c-1.428-2.817-2.941-5.639-4.5-8.388l1.388-.786c1.568,2.77,3.092,5.614,4.531,8.452Zm-366.39-9.756-1.383-.8c1.591-2.764,3.27-5.53,4.989-8.222l1.345.858c-1.706,2.671-3.372,5.417-4.951,8.159ZM918.7,197.951c-1.686-2.684-3.451-5.357-5.247-7.947l1.31-.909c1.81,2.609,3.589,5.3,5.287,8.008Zm-346.748-9.272-1.3-.919c1.839-2.609,3.762-5.209,5.717-7.728l1.26.978C575.691,183.51,573.782,186.09,571.957,188.679Zm335.9-6.376c-1.923-2.518-3.925-5.022-5.953-7.441l1.223-1.025c2.043,2.438,4.06,4.96,6,7.5Zm-324.206-8.694-1.214-1.035c2.064-2.424,4.215-4.837,6.394-7.172l1.166,1.088C587.83,168.808,585.7,171.2,583.647,173.609Zm311.968-5.91c-2.143-2.333-4.367-4.645-6.607-6.871l1.125-1.132c2.258,2.244,4.5,4.573,6.657,6.924Zm-298.961-8.028-1.115-1.14c2.281-2.232,4.642-4.439,7.016-6.558l1.063,1.19c-2.356,2.1-4.7,4.293-6.964,6.508ZM882.1,154.262c-2.349-2.13-4.774-4.231-7.208-6.245l1.018-1.229c2.452,2.029,4.9,4.146,7.262,6.292Zm-271.228-7.285-1.007-1.237c2.468-2.009,5.018-3.991,7.58-5.891l.95,1.281C615.847,143.017,613.316,144.983,610.867,146.978ZM867.4,142.106c-2.534-1.908-5.142-3.781-7.75-5.565l.9-1.317c2.628,1.8,5.255,3.684,7.809,5.607Zm-241.233-6.47-.89-1.324c2.641-1.777,5.36-3.517,8.081-5.173l.829,1.363C631.489,132.146,628.791,133.873,626.169,135.636Zm225.485-4.3c-2.7-1.669-5.465-3.3-8.229-4.835l.776-1.394c2.786,1.552,5.576,3.191,8.293,4.872Zm-209.222-5.592-.766-1.4c2.794-1.529,5.659-3.012,8.515-4.409l.7,1.433c-2.834,1.386-5.677,2.858-8.45,4.376Zm192.548-3.7c-2.839-1.414-5.747-2.781-8.643-4.061l.645-1.459c2.919,1.29,5.85,2.667,8.711,4.092Zm-175.459-4.662-.634-1.464c2.92-1.266,5.907-2.479,8.877-3.608l.566,1.492C665.384,114.924,662.42,116.129,659.522,117.385Zm157.992-3.059c-2.954-1.146-5.977-2.239-8.987-3.248l.508-1.513c3.032,1.018,6.079,2.119,9.055,3.274Zm-140.2-3.7-.5-1.516c3.032-.994,6.126-1.93,9.194-2.781l.427,1.537C683.4,108.712,680.327,109.64,677.318,110.627Zm122.1-2.372c-3.043-.867-6.147-1.675-9.225-2.4l.366-1.553c3.1.731,6.229,1.545,9.3,2.419ZM695.684,105.53l-.355-1.555c3.108-.71,6.275-1.357,9.411-1.923l.284,1.57c-3.113.562-6.254,1.2-9.339,1.908Zm85.187-1.649c-3.107-.583-6.271-1.1-9.406-1.542l.221-1.58c3.159.444,6.348.966,9.479,1.554Zm-66.431-1.736-.211-1.581c3.158-.421,6.37-.776,9.546-1.052l.139,1.589c-3.152.275-6.339.626-9.474,1.045ZM762,101.23c-3.143-.3-6.341-.524-9.508-.677l.078-1.594c3.19.155,6.413.384,9.58.683Zm-28.57-.741-.067-1.594c2.932-.122,5.921-.185,8.883-.185h.722l0,1.6h-.718c-2.94,0-5.907.063-8.816.184Z" transform="translate(9019.956 4914.507)" fill="#0739bf" opacity="0.111"/>
      <path id="Path_800" data-name="Path 800" d="M569.914,460.039c7.472-9.038,15.908-17.535,26.2-23.148s22.7-8.1,33.941-4.766c8.392,2.492,15.545,7.974,22.164,13.7,13.563,11.736,26.069,25.173,42.067,33.282s37.077,9.623,50.665-2.084c10.754-9.265,15.339-25.314,28.181-31.361,12.659-5.961,27.338.44,40.184,5.987A336.031,336.031,0,0,0,867.284,469.7c12.492,3.031,25.361,5.354,38.157,4.135s25.64-6.342,33.987-16.118" transform="translate(9012.378 4847.372)" fill="#8dbfff"/>
      <path id="Path_803" data-name="Path 803" d="M869.446,277.479h32.209a112.659,112.659,0,0,0,0-38.4h-32.21A69.1,69.1,0,0,1,869.446,277.479Z" transform="translate(8951.79 4886.115)" fill="#0739bf"/>
      <path id="Path_814" data-name="Path 814" d="M437.428,463.941c-.853,3.179-1.682,6.205-2.455,8.986-3.977,1.074-10.833-.411-17.99-2.756l1.486-19.513C426.631,453.34,434.561,457.52,437.428,463.941Z" transform="translate(9043.313 4843.318)" opacity="0.15"/>
      <rect id="Rectangle_426" data-name="Rectangle 426" width="21" height="3" transform="translate(9361.795 5256.019)" fill="#f2f2f2"/>
      <rect id="Rectangle_428" data-name="Rectangle 428" width="21" height="2" transform="translate(9828.795 5135.019)" fill="#f2f2f2"/>
      <rect id="Rectangle_429" data-name="Rectangle 429" width="21" height="3" transform="translate(9828.795 5145.019)" fill="#f2f2f2"/>
      <rect id="Rectangle_430" data-name="Rectangle 430" width="21" height="3" transform="translate(9828.795 5139.019)" fill="#f2f2f2"/>
      <g id="Group_189" data-name="Group 189" transform="translate(9601.105 5430.142)">
        <path id="Path_816" data-name="Path 816" d="M596.085,648.742c-1.3,4.792-5.737,7.76-5.737,7.76s-2.339-4.8-1.042-9.594,5.737-7.76,5.737-7.76S597.381,643.95,596.085,648.742Z" transform="translate(-577.307 -639.148)" fill="#fc085c"/>
        <path id="Path_817" data-name="Path 817" d="M567.315,648.742c1.3,4.792,5.737,7.76,5.737,7.76s2.339-4.8,1.042-9.594-5.737-7.76-5.737-7.76S566.019,643.95,567.315,648.742Z" transform="translate(-560.33 -639.148)" fill="#fc085c"/>
        <path id="Path_818" data-name="Path 818" d="M546.9,664c3.557,3.463,3.992,8.786,3.992,8.786s-5.333-.291-8.89-3.754-3.992-8.786-3.992-8.786S543.341,660.533,546.9,664Z" transform="translate(-538.008 -655.432)" fill="#3f3d56"/>
        <path id="Path_819" data-name="Path 819" d="M598.492,664c-3.557,3.463-3.992,8.786-3.992,8.786s5.333-.291,8.89-3.754,3.992-8.786,3.992-8.786S602.049,660.533,598.492,664Z" transform="translate(-581.619 -655.432)" fill="#3f3d56"/>
      </g>
      <g id="Group_190" data-name="Group 190" transform="translate(9395.291 5416.601)" opacity="0.388">
        <path id="Path_816-2" data-name="Path 816" d="M604.976,660.638c-2.9,10.734-12.85,17.382-12.85,17.382s-5.238-10.756-2.334-21.49,12.85-17.382,12.85-17.382S607.879,649.9,604.976,660.638Z" transform="translate(-562.913 -639.148)" fill="#fc085c"/>
        <path id="Path_817-2" data-name="Path 817" d="M567.8,660.638c2.9,10.734,12.85,17.382,12.85,17.382s5.238-10.756,2.335-21.49-12.85-17.382-12.85-17.382S564.9,649.9,567.8,660.638Z" transform="translate(-552.154 -639.148)" fill="#fc085c"/>
        <path id="Path_818-2" data-name="Path 818" d="M557.921,668.651c7.968,7.757,8.942,19.681,8.942,19.681s-11.946-.652-19.914-8.409-8.941-19.68-8.941-19.68S549.953,660.894,557.921,668.651Z" transform="translate(-538.008 -649.468)" fill="#3f3d56"/>
        <path id="Path_819-2" data-name="Path 819" d="M603.441,668.651c-7.968,7.757-8.941,19.681-8.941,19.681s11.946-.652,19.914-8.409,8.941-19.68,8.941-19.68S611.409,660.894,603.441,668.651Z" transform="translate(-565.646 -649.468)" fill="#3f3d56"/>
      </g>
      <ellipse id="Ellipse_237" data-name="Ellipse 237" cx="233" cy="231.5" rx="233" ry="231.5" transform="translate(9383.795 5033.019)" fill="rgba(0,108,255,0.18)" opacity="0.148"/>
      <g id="Ellipse_236" data-name="Ellipse 236" transform="translate(9470.795 5123.019)" fill="none" stroke="#707070" stroke-width="1" stroke-dasharray="8">
        <ellipse cx="143.5" cy="144" rx="143.5" ry="144" stroke="none"/>
        <ellipse cx="143.5" cy="144" rx="143" ry="143.5" fill="none"/>
      </g>
      <g id="Group_185" data-name="Group 185" transform="translate(9434.686 5081.48)">
        <path id="Path_815" data-name="Path 815" d="M470.205,466.543a182.717,182.717,0,1,1,129.2-53.517,182.716,182.716,0,0,1-129.2,53.517Zm0-364.244c-100.094,0-181.526,81.432-181.526,181.527s81.432,181.527,181.526,181.527,181.527-81.432,181.527-181.527S570.3,102.3,470.205,102.3Z" transform="translate(-287.471 -100.923)" fill="#3f3d56"/>
        <path id="Path_820" data-name="Path 820" d="M567.435,112.274c1.692-6.253,7.485-10.125,7.485-10.125s3.051,6.265,1.36,12.518-7.485,10.125-7.485,10.125S565.743,118.526,567.435,112.274Z" transform="translate(-392.457 -102.148)" fill="#fc085c"/>
        <path id="Path_821" data-name="Path 821" d="M598.27,112.274c-1.691-6.253-7.485-10.125-7.485-10.125s-3.051,6.265-1.36,12.518,7.485,10.125,7.485,10.125S599.962,118.526,598.27,112.274Z" transform="translate(-407.905 -102.148)" fill="#fc085c"/>
        <path id="Path_822" data-name="Path 822" d="M599.708,113.63c-4.641-4.518-5.208-11.464-5.208-11.464s6.959.38,11.6,4.9,5.208,11.464,5.208,11.464S604.35,118.148,599.708,113.63Z" transform="translate(-411.829 -102.161)" fill="#3f3d56"/>
        <path id="Path_823" data-name="Path 823" d="M549.608,113.63c4.641-4.518,5.208-11.464,5.208-11.464s-6.958.38-11.6,4.9-5.208,11.464-5.208,11.464S544.966,118.148,549.608,113.63Z" transform="translate(-372.144 -102.161)" fill="#3f3d56"/>
      </g>
      <rect id="Rectangle_431" data-name="Rectangle 431" width="90.632" height="92.162" transform="translate(9408.6 5145.861)" fill="#ffe18c"/>
      <path id="Path_824" data-name="Path 824" d="M108.248,22.935H22.935v86.293h4.576V27.838h80.737Z" transform="translate(9387.559 5125.266)" fill="#3f3d56"/>
      <path id="Path_825" data-name="Path 825" d="M108.248,22.935H22.935v86.293h4.576V27.838h80.737Z" transform="translate(9387.559 5125.266)" opacity="0.3"/>
      <path id="Path_826" data-name="Path 826" d="M110.665,44.437H43V56.2h64.066v69.623h16.67V44.437Z" transform="translate(9372.066 5108.667)" opacity="0.1"/>
      <path id="Path_827" data-name="Path 827" d="M39.5,16.495v96.753h95.772V16.495Zm90.542,91.523H44.73V21.725h85.313Z" transform="translate(9365.764 5126.476)" fill="#3f3d56"/>
      <rect id="Rectangle_432" data-name="Rectangle 432" width="88.474" height="89.968" transform="translate(9774.548 5464.818) rotate(180)" fill="#ffe18c"/>
      <path id="Path_845" data-name="Path 845" d="M733.389,322.881H816.67V407.12H812.2V327.667H733.389Z" transform="translate(8956.027 5054.252)" fill="#3f3d56"/>
      <path id="Path_846" data-name="Path 846" d="M733.389,322.881H816.67V407.12H812.2V327.667H733.389Z" transform="translate(8956.027 5054.252)" opacity="0.3"/>
      <path id="Path_847" data-name="Path 847" d="M746.152,343.871H812.2v11.487H749.662v67.965H733.389V343.871Z" transform="translate(8956.027 5038.049)" opacity="0.1"/>
      <path id="Path_848" data-name="Path 848" d="M750.5,316.987v94.449h93.492V316.987Zm5.105,5.105h83.281V406.33H755.605Z" transform="translate(8933.813 5055.042)" fill="#3f3d56"/>
      <path id="Path_809" data-name="Path 809" d="M421.738,575.658h-31a108.412,108.412,0,0,1,0-36.958h31A66.5,66.5,0,0,0,421.738,575.658Z" transform="translate(9081.396 4830.296)" fill="#d0cde1"/>
      <path id="Path_810" data-name="Path 810" d="M410.423,577.275h-31a108.414,108.414,0,0,1,0-36.958h31a66.5,66.5,0,0,0,0,36.958Z" transform="translate(9101.736 4829.969)" fill="#0739bf"/>
      <g id="Group_186" data-name="Group 186" transform="translate(9703.173 5092.657)">
        <path id="Path_801" data-name="Path 801" d="M493.446,392.531h24.705a86.411,86.411,0,0,0,0-29.456H493.446a53,53,0,0,1,0,29.456Z" transform="translate(-493.446 -363.075)" fill="#0739bf"/>
        <rect id="Rectangle_425" data-name="Rectangle 425" width="17" transform="translate(4.622 10.362)" fill="#f2f2f2"/>
        <rect id="Rectangle_427" data-name="Rectangle 427" width="17" height="1" transform="translate(4.622 13.362)" fill="#f2f2f2"/>
      </g>
      <g id="Group_187" data-name="Group 187" transform="translate(9786.933 5249.059)">
        <path id="Path_801-2" data-name="Path 801" d="M493.446,398.865h30.018a104.992,104.992,0,0,0,0-35.79H493.446a64.4,64.4,0,0,1,0,35.79Z" transform="translate(-493.446 -363.075)" fill="#7c94d6"/>
        <rect id="Rectangle_425-2" data-name="Rectangle 425" width="20" height="3" transform="translate(5.862 10.96)" fill="#f2f2f2"/>
        <rect id="Rectangle_427-2" data-name="Rectangle 427" width="20" height="3" transform="translate(5.862 16.96)" fill="#f2f2f2"/>
      </g>
      <g id="Group_188" data-name="Group 188" transform="translate(9421.573 5275.164)">
        <path id="Path_801-3" data-name="Path 801" d="M527.3,401.479h-32.21a112.652,112.652,0,0,1,0-38.4H527.3A69.1,69.1,0,0,0,527.3,401.479Z" transform="translate(-493.446 -363.075)" fill="#7c94d6"/>
        <rect id="Rectangle_425-3" data-name="Rectangle 425" width="21.539" height="2.393" transform="translate(6.293 12.299)" fill="#f2f2f2"/>
        <rect id="Rectangle_427-3" data-name="Rectangle 427" width="21.539" height="2.393" transform="translate(6.293 17.883)" fill="#f2f2f2"/>
      </g>
    </g>
  </g>
</svg>
