<svg xmlns="http://www.w3.org/2000/svg" xmlns:xlink="http://www.w3.org/1999/xlink" width="1024" height="768" viewBox="0 0 1024 768">
  <defs>
    <clipPath id="clip-iPad_5">
      <rect width="1024" height="768"/>
    </clipPath>
  </defs>
  <g id="iPad_5" data-name="iPad – 5" clip-path="url(#clip-iPad_5)">
    <rect width="1024" height="768" fill="none"/>
    <rect id="Rectangle_415" data-name="Rectangle 415" width="1.693" height="63.002" transform="translate(161.119 566.528)" fill="#3f3d56"/>
    <circle id="Ellipse_220" data-name="Ellipse 220" cx="8.909" cy="8.909" r="8.909" transform="translate(153.057 557.618)" fill="#3f3d56"/>
    <path id="Path_780" data-name="Path 780" d="M181.192,706.678s-1.273-27.375-27.365-24.193" transform="translate(-19.226 -101.321)" fill="#3f3d56"/>
    <circle id="Ellipse_223" data-name="Ellipse 223" cx="8.533" cy="8.533" r="8.533" transform="translate(152.724 215.271)" fill="#f0f0f0"/>
    <path id="Path_791" data-name="Path 791" d="M180.846,280.644A24.652,24.652,0,1,1,205.5,255.993,24.652,24.652,0,0,1,180.846,280.644Zm0-47.407A22.756,22.756,0,1,0,203.6,255.993a22.756,22.756,0,0,0-22.755-22.756Z" transform="translate(-19.589 -32.189)" fill="#2f2e41"/>
    <g id="Group_206" data-name="Group 206" transform="translate(192 237.67)">
      <path id="Path_864" data-name="Path 864" d="M857.975,191.421,652.66,279.669l29.585,81.589,21.144,58.3,5.316,14.663,47.313,17.958,1.711.649,49.423,18.752,23.725-10.147,32.32-13.892L878.41,441Z" transform="translate(-368.41 -108.052)" fill="#f2f2f2"/>
      <path id="Path_865" data-name="Path 865" d="M998.322,740.839l-.042,2.115-.118,6.284-32.32,13.892-21.826,9.381-.921-3.078-.978,3.844-49.423-18.752-.766-18.1v0l-.169-4.023,96.82-6.5,1.9,2.909.376.578Z" transform="translate(-503.375 -409.748)" fill="#2f2e41"/>
      <path id="Path_866" data-name="Path 866" d="M979.591,348.722s-6.5,23.392-7.8,23.392,12.346,18.194,12.346,18.194l20.143,11.046,7.148-29.89s-6.5-16.245-5.2-24.692Z" transform="translate(-554.819 -209.966)" fill="#ffb8b8"/>
      <circle id="Ellipse_238" data-name="Ellipse 238" cx="24.042" cy="24.042" r="24.042" transform="translate(411.127 99.768)" fill="#ffb8b8"/>
      <path id="Path_867" data-name="Path 867" d="M949.556,405.765l-19.209-16.682-11.33,5.636-24.692,15.595s6.5,140.353,3.249,145.551c0,0,7.148,16.245,49.383,6.5s53.282-11.046,53.282-11.046l-9.1-85.771,11.046-53.932-37.1-25.946-11.629,20.1Z" transform="translate(-511.139 -231.921)" fill="#006cff"/>
      <path id="Path_868" data-name="Path 868" d="M850.263,557.138s-9.747,30.54-2.6,33.789a22.358,22.358,0,0,0,13,1.949l11.046-26.641Z" transform="translate(-483.321 -328.713)" fill="#ffb8b8"/>
      <path id="Path_869" data-name="Path 869" d="M1139.609,545.2l5.848,27.291v55.232s-8.447,35.088-14.945,25.991-6.364-11.978-6.364-11.978l8.313-12.714-3.9-51.983-10.359-24.8Z" transform="translate(-637.513 -321.975)" fill="#ffb8b8"/>
      <path id="Path_870" data-name="Path 870" d="M1004.974,244.131s-7.8-16.894-22.742-13-23.392,9.747-24.042,15.595.325,14.62.325,14.62,1.624-12.021,12.021-9.422,26.641.65,26.641.65l2.6,23.392s2.924-4.224,6.173-1.624S1015.37,249.329,1004.974,244.131Z" transform="translate(-547.063 -144.362)" fill="#2f2e41"/>
      <path id="Path_871" data-name="Path 871" d="M1104.095,518.166l2.35,12.219,23.029-6.11L1125.244,513Z" transform="translate(-623.234 -289.573)" fill="#3f3d56"/>
      <path id="Path_872" data-name="Path 872" d="M836.786,523.987l-3.672,11.889,23.2,5.436,1.57-11.944Z" transform="translate(-470.272 -295.777)" fill="#3f3d56"/>
      <path id="Path_873" data-name="Path 873" d="M1106.923,442.257l14.945,1.3s16.894,46.135,14.945,47.434-25.342,9.1-28.59,7.148S1106.923,442.257,1106.923,442.257Z" transform="translate(-630.818 -263.865)" fill="#006cff"/>
      <path id="Path_874" data-name="Path 874" d="M874.944,443.557l-5.2-1.3S860,454.6,856.75,468.9s-7.8,28.59-5.2,28.59,25.991,9.1,25.991,9.1Z" transform="translate(-486.56 -263.865)" fill="#006cff"/>
      <circle id="Ellipse_239" data-name="Ellipse 239" cx="4.7" cy="4.7" r="4.7" transform="translate(436.213 173.605)" fill="#3f3d56"/>
      <path id="Path_875" data-name="Path 875" d="M1018.564,548.615l-50.2,15.826-20.489-64.994q29.016-4.069,50.2-15.826A184.144,184.144,0,0,0,1018.564,548.615Z" transform="translate(-541.365 -287.214)" fill="#e6e6e6"/>
      <path id="Path_876" data-name="Path 876" d="M1007.773,564.8l-50.2,15.826-20.489-64.994q29.016-4.069,50.2-15.826A184.148,184.148,0,0,0,1007.773,564.8Z" transform="translate(-535.274 -296.351)" fill="#fff"/>
      <path id="Path_877" data-name="Path 877" d="M856.5,582.876s-7.8,14.3-5.848,18.844,18.194,7.148,20.143,7.148,25.342-5.2,25.342-5.2,35.738-16.894,25.342-25.342-29.89,11.7-29.89,11.7H875.994l-8.447-5.848Z" transform="translate(-486.311 -339.505)" fill="#ffb8b8"/>
      <rect id="Rectangle_452" data-name="Rectangle 452" width="84.927" height="37.964" transform="translate(0.436 58.723)" fill="#f2f2f2"/>
      <rect id="Rectangle_453" data-name="Rectangle 453" width="14" height="12" transform="translate(295 182.33)" fill="#3f3d56"/>
      <rect id="Rectangle_454" data-name="Rectangle 454" width="14" height="12" transform="translate(265 182.33)" fill="#3f3d56"/>
      <rect id="Rectangle_455" data-name="Rectangle 455" width="15" height="15" transform="translate(324 153.33)" fill="#006cff"/>
      <rect id="Rectangle_456" data-name="Rectangle 456" width="15" height="14" transform="translate(309 168.33)" fill="#3f3d56"/>
      <rect id="Rectangle_457" data-name="Rectangle 457" width="16" height="14" transform="translate(279 168.33)" fill="#3f3d56"/>
      <rect id="Rectangle_458" data-name="Rectangle 458" width="14" height="14" transform="translate(104 193.33)" fill="#006cff"/>
      <rect id="Rectangle_459" data-name="Rectangle 459" width="15" height="13" transform="translate(237 180.33)" fill="#3f3d56"/>
      <rect id="Rectangle_460" data-name="Rectangle 460" width="16" height="13" transform="translate(148 180.33)" fill="#3f3d56"/>
      <rect id="Rectangle_461" data-name="Rectangle 461" width="14" height="15" transform="translate(134 165.33)" fill="#3f3d56"/>
      <rect id="Rectangle_462" data-name="Rectangle 462" width="14" height="13" transform="translate(208 180.33)" fill="#3f3d56"/>
      <rect id="Rectangle_463" data-name="Rectangle 463" width="15" height="15" transform="translate(193 165.33)" fill="#3f3d56"/>
      <rect id="Rectangle_464" data-name="Rectangle 464" width="15" height="13" transform="translate(178 180.33)" fill="#3f3d56"/>
      <rect id="Rectangle_465" data-name="Rectangle 465" width="16" height="13" transform="translate(118 180.33)" fill="#3f3d56"/>
      <rect id="Rectangle_466" data-name="Rectangle 466" width="15" height="15" transform="translate(222 165.33)" fill="#006cff"/>
      <path id="Path_878" data-name="Path 878" d="M669.27,339.49l-7.693-8.248,8.248-7.693,7.693,8.248Zm-6.467-8.205,6.51,6.979,6.979-6.51-6.51-6.979Z" transform="translate(-379.759 -196.857)" fill="#3f3d56"/>
      <path id="Path_879" data-name="Path 879" d="M425.542,267.621H414.263V256.342h11.279Zm-10.411-.868h9.544v-9.544h-9.544Z" transform="translate(-240.156 -158.921)" fill="#3f3d56"/>
      <path id="Path_880" data-name="Path 880" d="M906.542,217.621H895.263V206.342h11.279Zm-10.411-.868h9.544v-9.544h-9.544Z" transform="translate(-511.669 -130.697)" fill="#3f3d56"/>
      <path id="Path_881" data-name="Path 881" d="M261.733,388.089l-.667-.651a34.05,34.05,0,0,0,6.829-11.947c2.266-6.82,3.373-17.592-4.224-30.174-7.773-12.874-8.123-23.33-7.048-29.835a26.728,26.728,0,0,1,4.282-11.211l.74.566a26.361,26.361,0,0,0-4.112,10.852c-1.037,6.34-.675,16.543,6.935,29.146,7.791,12.9,6.637,23.975,4.3,30.989A34.31,34.31,0,0,1,261.733,388.089Z" transform="translate(-150.922 -185.975)" fill="#3f3d56"/>
      <path id="Path_882" data-name="Path 882" d="M531.733,320.089l-.667-.651a34.052,34.052,0,0,0,6.829-11.947c2.266-6.82,3.373-17.592-4.224-30.174-7.773-12.874-8.123-23.33-7.048-29.835a26.727,26.727,0,0,1,4.282-11.211l.74.566a26.361,26.361,0,0,0-4.112,10.852c-1.037,6.34-.675,16.543,6.935,29.146,7.791,12.9,6.637,23.975,4.3,30.989A34.31,34.31,0,0,1,531.733,320.089Z" transform="translate(-303.33 -147.591)" fill="#3f3d56"/>
      <path id="Path_883" data-name="Path 883" d="M766.733,294.089l-.667-.651a34.051,34.051,0,0,0,6.829-11.947c2.266-6.82,3.373-17.592-4.224-30.174-7.773-12.874-8.123-23.33-7.047-29.835a26.725,26.725,0,0,1,4.282-11.211l.74.566a26.361,26.361,0,0,0-4.112,10.852c-1.037,6.34-.675,16.543,6.935,29.146,7.791,12.9,6.637,23.975,4.3,30.989A34.311,34.311,0,0,1,766.733,294.089Z" transform="translate(-435.982 -132.915)" fill="#3f3d56"/>
      <rect id="Rectangle_467" data-name="Rectangle 467" width="40.988" height="0.932" transform="translate(22.405 70.706)" fill="#3f3d56"/>
      <rect id="Rectangle_468" data-name="Rectangle 468" width="40.988" height="0.932" transform="translate(22.405 77.239)" fill="#3f3d56"/>
      <rect id="Rectangle_469" data-name="Rectangle 469" width="40.988" height="0.932" transform="translate(22.405 83.772)" fill="#3f3d56"/>
      <rect id="Rectangle_470" data-name="Rectangle 470" width="40.988" height="0.932" transform="translate(251.927 8.426)" fill="#3f3d56"/>
      <rect id="Rectangle_471" data-name="Rectangle 471" width="40.988" height="0.932" transform="translate(251.927 14.959)" fill="#3f3d56"/>
      <rect id="Rectangle_472" data-name="Rectangle 472" width="40.988" height="0.932" transform="translate(251.927 21.492)" fill="#3f3d56"/>
      <rect id="Rectangle_473" data-name="Rectangle 473" width="40.988" height="0.932" transform="translate(348.178 153.02)" fill="#3f3d56"/>
      <rect id="Rectangle_474" data-name="Rectangle 474" width="40.988" height="0.932" transform="translate(348.178 159.553)" fill="#3f3d56"/>
      <rect id="Rectangle_475" data-name="Rectangle 475" width="40.988" height="0.932" transform="translate(348.178 166.086)" fill="#3f3d56"/>
      <rect id="Rectangle_476" data-name="Rectangle 476" width="40.988" height="0.932" transform="translate(90.783 218.349)" fill="#3f3d56"/>
      <rect id="Rectangle_477" data-name="Rectangle 477" width="40.988" height="0.932" transform="translate(90.783 224.882)" fill="#3f3d56"/>
      <rect id="Rectangle_478" data-name="Rectangle 478" width="40.988" height="0.932" transform="translate(90.783 231.415)" fill="#3f3d56"/>
      <path id="Path_884" data-name="Path 884" d="M152.36,99.26c7.082-15.885,17.755-26.334,31.723-31.058,10.371-3.507,22.365-3.839,35.648-.985a95.332,95.332,0,0,1,27.853,10.819c46.114,26.763,74.624,27,90.42,22.488,17.32-4.948,23.659-16.559,23.721-16.676l.77.408c-.063.12-6.546,12.035-24.217,17.1-10.187,2.918-22.09,3.038-35.378.358-16.537-3.336-35.3-11.047-55.753-22.92a94.467,94.467,0,0,0-27.6-10.721c-21.786-4.68-50.99-3.005-66.394,31.546Z" transform="translate(-92.319 -51.082)" fill="#2f2e41"/>
      <ellipse id="Ellipse_240" data-name="Ellipse 240" cx="16" cy="15.5" rx="16" ry="15.5" transform="translate(96 87.33)" fill="#3f3d56"/>
      <ellipse id="Ellipse_241" data-name="Ellipse 241" cx="16" cy="15.5" rx="16" ry="15.5" transform="translate(214 60.33)" fill="#3f3d56"/>
      <ellipse id="Ellipse_242" data-name="Ellipse 242" cx="16" cy="15.5" rx="16" ry="15.5" transform="translate(316 46.33)" fill="#3f3d56"/>
      <path id="Path_885" data-name="Path 885" d="M111.622,191.305H14.5v-49.65h97.122Zm-96.251-.871h95.38V142.526H15.371Z" transform="translate(-14.5 -94.183)" fill="#3f3d56"/>
      <rect id="Rectangle_479" data-name="Rectangle 479" width="84.927" height="37.964" transform="translate(122.818 26.059)" fill="#f2f2f2"/>
      <rect id="Rectangle_480" data-name="Rectangle 480" width="40.988" height="0.932" transform="translate(144.788 38.042)" fill="#3f3d56"/>
      <rect id="Rectangle_481" data-name="Rectangle 481" width="40.988" height="0.932" transform="translate(144.788 44.575)" fill="#3f3d56"/>
      <rect id="Rectangle_482" data-name="Rectangle 482" width="40.988" height="0.932" transform="translate(143.481 49.801)" fill="#3f3d56"/>
      <path id="Path_886" data-name="Path 886" d="M392.622,116.305H295.5V66.655h97.122Zm-96.251-.871h95.38V67.526h-95.38Z" transform="translate(-173.117 -51.847)" fill="#3f3d56"/>
      <rect id="Rectangle_483" data-name="Rectangle 483" width="84.927" height="37.964" transform="translate(341.887 11.251)" fill="#f2f2f2"/>
      <rect id="Rectangle_484" data-name="Rectangle 484" width="40.988" height="0.932" transform="translate(363.857 23.234)" fill="#3f3d56"/>
      <rect id="Rectangle_485" data-name="Rectangle 485" width="40.988" height="0.932" transform="translate(363.857 29.767)" fill="#3f3d56"/>
      <rect id="Rectangle_486" data-name="Rectangle 486" width="40.988" height="0.932" transform="translate(363.857 36.3)" fill="#3f3d56"/>
      <path id="Path_887" data-name="Path 887" d="M895.622,82.305H798.5V32.655h97.122Zm-96.251-.871h95.38V33.526h-95.38Z" transform="translate(-457.048 -32.655)" fill="#3f3d56"/>
    </g>
  </g>
</svg>
