<svg xmlns="http://www.w3.org/2000/svg" xmlns:xlink="http://www.w3.org/1999/xlink" width="1024" height="768" viewBox="0 0 1024 768">
  <defs>
    <clipPath id="clip-iPad_4">
      <rect width="1024" height="768"/>
    </clipPath>
  </defs>
  <g id="iPad_4" data-name="iPad – 4" clip-path="url(#clip-iPad_4)">
    <rect width="1024" height="768" fill="none"/>
    <g id="Group_207" data-name="Group 207" transform="translate(-8426 -6214.301)">
      <g id="Group_198" data-name="Group 198" transform="translate(8705.671 6346.929)" opacity="0.459">
        <path id="Path_324" data-name="Path 324" d="M236.349,0C366.881,0,472.7,105.428,472.7,235.48s-105.817,235.48-236.349,235.48S0,365.532,0,235.48,105.817,0,236.349,0Z" transform="translate(5.028 40.679)" fill="#fcfcfc"/>
        <path id="Path_323" data-name="Path 323" d="M635.992,616.479c-2.724,0-5.476-.043-8.177-.128l.061-1.962c3.879.121,7.837.154,11.734.1l.027,1.964Q637.817,616.478,635.992,616.479Zm15.46-.455-.115-1.96c3.884-.229,7.819-.551,11.694-.957l.205,1.952C659.331,615.468,655.367,615.793,651.452,616.023Zm-35.442-.306c-3.917-.3-7.875-.693-11.765-1.171l.24-1.948c3.86.473,7.788.864,11.675,1.161Zm58.952-2.159-.294-1.941c3.859-.586,7.749-1.266,11.557-2.022l.383,1.925C682.769,612.282,678.851,612.968,674.962,613.558Zm-82.416-.718c-3.869-.656-7.775-1.41-11.609-2.242l.416-1.92c3.8.827,7.68,1.575,11.521,2.225Zm105.6-3.89-.472-1.906c3.789-.937,7.6-1.972,11.324-3.077l.558,1.883C705.8,606.963,701.965,608.006,698.148,608.949Zm-128.7-1.126c-3.8-1.01-7.615-2.12-11.353-3.3l.592-1.872c3.709,1.173,7.5,2.275,11.266,3.276Zm151.368-5.6-.645-1.854c3.677-1.278,7.374-2.66,10.992-4.108l.729,1.824c-3.645,1.458-7.371,2.851-11.076,4.139Zm-173.939-1.538c-3.687-1.355-7.4-2.817-11.024-4.346l.762-1.81c3.6,1.517,7.281,2.968,10.94,4.313Zm195.864-7.235-.813-1.787c3.531-1.6,7.079-3.317,10.548-5.09l.894,1.749c-3.5,1.786-7.071,3.511-10.628,5.128Zm-217.7-1.958c-3.544-1.689-7.1-3.485-10.571-5.339l.925-1.732c3.444,1.84,6.973,3.623,10.49,5.3Zm238.708-8.782-.972-1.7c3.386-1.932,6.766-3.963,10.044-6.037l1.049,1.659C770.566,578.72,767.161,580.767,763.748,582.712Zm-259.59-2.374c-3.37-2.005-6.746-4.119-10.031-6.284l1.081-1.64c3.26,2.148,6.61,4.246,9.955,6.236ZM783.7,570.088l-1.124-1.609c3.188-2.227,6.37-4.561,9.456-6.933l1.2,1.557c-3.11,2.391-6.316,4.741-9.529,6.984ZM484.4,567.322c-3.169-2.3-6.336-4.714-9.411-7.17l1.225-1.534c3.052,2.437,6.194,4.83,9.34,7.114Zm318.04-11.631-1.266-1.5c2.971-2.508,5.929-5.12,8.791-7.767l1.333,1.442C808.41,550.531,805.43,553.164,802.435,555.691Zm-336.524-3.128c-2.952-2.585-5.885-5.274-8.716-7.992l1.36-1.417c2.811,2.7,5.721,5.367,8.65,7.933ZM819.788,539.64l-1.4-1.379c2.739-2.776,5.449-5.649,8.053-8.538l1.459,1.314C825.279,533.949,822.549,536.843,819.788,539.64Zm-370.935-3.448c-2.708-2.848-5.383-5.792-7.95-8.749l1.484-1.287c2.547,2.935,5.2,5.856,7.89,8.682Zm386.763-14.12-1.517-1.247c2.475-3.012,4.911-6.12,7.244-9.239l1.573,1.176C840.566,515.906,838.11,519.039,835.616,522.072Zm-402.255-3.728c-2.432-3.073-4.827-6.246-7.118-9.431l1.594-1.147c2.274,3.16,4.651,6.309,7.065,9.36Zm416.423-15.217-1.624-1.1c2.19-3.225,4.335-6.543,6.374-9.866l1.674,1.028C854.152,496.534,851.99,499.879,849.784,503.128Zm-430.22-3.956c-2.14-3.28-4.234-6.656-6.225-10.035l1.691-1c1.976,3.353,4.055,6.7,6.178,9.958ZM862.171,482.96l-1.718-.949c1.885-3.412,3.717-6.916,5.445-10.414l1.76.871C865.917,475.991,864.07,479.522,862.171,482.96Zm-454.59-4.129c-1.831-3.462-3.607-7.013-5.278-10.555l1.776-.838c1.658,3.515,3.42,7.04,5.238,10.475Zm465.077-17.1-1.8-.788c1.565-3.574,3.068-7.234,4.467-10.877l1.833.7C875.75,454.44,874.235,458.128,872.658,461.73Zm-475.143-4.237c-1.505-3.613-2.947-7.31-4.285-10.988l1.846-.671c1.327,3.65,2.758,7.318,4.251,10.9ZM881.15,439.606l-1.864-.617c1.225-3.693,2.382-7.467,3.437-11.219l1.891.531C883.55,432.082,882.384,435.886,881.15,439.606Zm-491.7-4.3c-1.169-3.742-2.266-7.566-3.263-11.365l1.9-.5c.989,3.77,2.079,7.565,3.238,11.278Zm498.1-18.455-1.913-.445c.879-3.785,1.683-7.65,2.39-11.486l1.931.355C889.247,409.139,888.437,413.033,887.551,416.848Zm-504.1-4.413c-.819-3.835-1.56-7.743-2.2-11.616l1.937-.322c.638,3.844,1.374,7.722,2.186,11.528ZM891.83,393.6l-1.946-.267c.528-3.846.974-7.768,1.326-11.657l1.956.176C892.811,385.772,892.361,389.723,891.83,393.6Zm-512.25-4.484c-.463-3.887-.843-7.847-1.131-11.767l1.959-.144c.284,3.892.662,7.821,1.122,11.679Zm514.386-19.058L892,369.969c.174-3.891.264-7.838.264-11.73h1.964C894.231,362.161,894.142,366.138,893.966,370.057Zm-516.111-4.518c-.067-2.408-.1-4.864-.1-7.3q0-2.267.039-4.525l1.964.034q-.039,2.241-.039,4.49c0,2.417.034,4.856.1,7.246Zm514.4-10.039c-.04-3.894-.171-7.84-.386-11.73l1.96-.109c.218,3.92.349,7.9.391,11.818ZM380.221,342.025l-1.96-.123c.245-3.924.583-7.887,1-11.779l1.952.211C380.8,334.2,380.465,338.13,380.221,342.025Zm510.727-9.951c-.392-3.872-.88-7.789-1.45-11.643l1.943-.287c.573,3.884,1.065,7.831,1.461,11.732ZM382.748,318.7l-1.941-.3c.6-3.885,1.3-7.8,2.078-11.639l1.924.389C384.038,310.961,383.344,314.847,382.748,318.7Zm504.769-9.834c-.749-3.831-1.594-7.687-2.512-11.461l1.908-.464c.925,3.8,1.777,7.689,2.531,11.548ZM387.4,295.709l-1.9-.478c.954-3.8,2.01-7.638,3.139-11.4l1.88.565C389.394,288.129,388.345,291.935,387.4,295.709Zm494.567-9.636c-1.1-3.739-2.292-7.5-3.556-11.181l1.856-.639c1.276,3.709,2.482,7.5,3.586,11.267ZM394.159,273.21l-1.853-.651c1.305-3.712,2.714-7.442,4.188-11.087l1.821.736C396.853,265.825,395.454,269.527,394.159,273.21Zm480.181-9.323c-1.433-3.614-2.967-7.241-4.561-10.781l1.791-.806c1.606,3.567,3.152,7.222,4.6,10.863ZM402.973,251.415l-1.784-.82c1.64-3.572,3.386-7.154,5.189-10.646l1.745.9C406.333,244.315,404.6,247.87,402.973,251.415Zm461.756-8.872c-1.758-3.467-3.62-6.941-5.535-10.324l1.709-.968c1.93,3.41,3.806,6.91,5.577,10.4ZM413.752,230.534l-1.7-.98c1.959-3.4,4.025-6.807,6.141-10.12l1.655,1.057C417.746,223.78,415.7,227.159,413.752,230.534Zm439.44-8.381c-2.075-3.3-4.248-6.594-6.458-9.782l1.613-1.119c2.228,3.212,4.418,6.528,6.508,9.856Zm-426.8-11.413-1.605-1.132c2.264-3.211,4.631-6.411,7.037-9.512l1.551,1.2C430.988,204.378,428.638,207.554,426.392,210.741Zm413.442-7.848c-2.366-3.1-4.831-6.181-7.327-9.158l1.505-1.261c2.514,3,5,6.1,7.382,9.228Zm-399.054-10.7-1.495-1.273c2.541-2.984,5.189-5.954,7.87-8.828l1.435,1.34C445.929,186.282,443.3,189.23,440.78,192.191Zm383.991-7.274c-2.638-2.871-5.375-5.717-8.133-8.458l1.385-1.393c2.779,2.762,5.536,5.629,8.194,8.522Zm-367.982-9.882-1.373-1.4c2.808-2.747,5.714-5.463,8.636-8.072l1.308,1.465C462.46,169.614,459.576,172.309,456.789,175.036Zm351.341-6.657c-2.891-2.622-5.876-5.208-8.872-7.686l1.252-1.513c3.018,2.5,6.026,5.1,8.939,7.745Zm-333.845-8.966-1.24-1.523c3.037-2.473,6.176-4.913,9.33-7.251l1.17,1.577c-3.13,2.32-6.246,4.741-9.26,7.2Zm315.76-6c-3.119-2.349-6.329-4.653-9.539-6.85l1.109-1.62c3.235,2.213,6.469,4.535,9.612,6.9ZM493.12,145.452l-1.1-1.629c3.251-2.187,6.6-4.329,9.947-6.367l1.02,1.678C499.667,141.156,496.346,143.282,493.12,145.452Zm277.543-5.294c-3.319-2.054-6.727-4.056-10.129-5.952l.955-1.715c3.429,1.91,6.862,3.928,10.207,6Zm-257.524-6.883-.943-1.723c3.439-1.882,6.965-3.708,10.481-5.427l.863,1.764c-3.488,1.706-6.988,3.518-10.4,5.386Zm237-4.55c-3.494-1.741-7.074-3.423-10.639-5l.794-1.8c3.593,1.588,7.2,3.283,10.721,5.037Zm-215.967-5.738-.78-1.8c3.594-1.558,7.27-3.052,10.926-4.441l.7,1.836c-3.629,1.378-7.277,2.86-10.843,4.406Zm194.467-3.765c-3.636-1.41-7.357-2.755-11.062-4l.625-1.862c3.732,1.253,7.482,2.608,11.146,4.03Zm-172.562-4.553-.612-1.866c3.732-1.224,7.54-2.376,11.317-3.423l.525,1.892c-3.748,1.04-7.527,2.183-11.23,3.4Zm150.292-2.92c-3.745-1.068-7.565-2.062-11.354-2.955l.451-1.911c3.818.9,7.667,1.9,11.442,2.977ZM578.683,108.4l-.437-1.914c3.826-.874,7.723-1.67,11.583-2.367l.349,1.932C586.346,106.738,582.479,107.528,578.683,108.4Zm104.855-2.029c-3.824-.718-7.719-1.356-11.578-1.9l.272-1.945c3.888.546,7.814,1.189,11.668,1.912Zm-81.768-2.137-.26-1.947c3.887-.519,7.841-.955,11.75-1.3l.171,1.956C609.551,103.282,605.628,103.714,601.769,104.229Zm58.537-1.127c-3.868-.364-7.806-.645-11.7-.834l.1-1.962c3.927.19,7.894.473,11.791.841Zm-35.166-.912-.082-1.962c3.609-.15,7.288-.227,10.934-.228h.889l-.006,1.964h-.883C632.373,101.965,628.722,102.041,625.14,102.19Z" transform="translate(-377.753 -100)" fill="#fcfcfc" opacity="0.171"/>
      </g>
      <path id="Path_849" data-name="Path 849" d="M348.227,577.591c-2.318,0-4.66-.037-6.959-.109l.052-1.669c3.3.1,6.669.131,9.985.086l.023,1.671Q349.78,577.59,348.227,577.591Zm13.156-.388-.1-1.668c3.306-.2,6.654-.469,9.951-.814l.175,1.661c-3.323.349-6.7.625-10.028.821Zm-30.161-.26c-3.333-.255-6.7-.59-10.012-1l.2-1.658c3.285.4,6.628.735,9.936.988Zm50.167-1.838-.25-1.652c3.284-.5,6.594-1.077,9.834-1.721l.326,1.638C388.034,574.02,384.7,574.6,381.39,575.105Zm-70.134-.611c-3.293-.558-6.617-1.2-9.879-1.908l.355-1.634c3.237.7,6.536,1.34,9.8,1.893Zm89.865-3.311-.4-1.622c3.224-.8,6.466-1.679,9.636-2.619l.475,1.6C407.636,569.493,404.369,570.381,401.121,571.184ZM291.6,570.226c-3.23-.859-6.481-1.8-9.661-2.81l.5-1.593c3.157,1,6.382,1.935,9.587,2.787Zm128.811-4.764-.548-1.578c3.129-1.088,6.275-2.264,9.354-3.5l.62,1.552C426.731,563.181,423.56,564.366,420.408,565.462Zm-148.019-1.309c-3.137-1.153-6.294-2.4-9.381-3.7l.649-1.541c3.064,1.291,6.2,2.526,9.31,3.67ZM439.065,558l-.692-1.521c3-1.365,6.025-2.823,8.976-4.331l.76,1.488C445.135,555.153,442.092,556.62,439.065,558Zm17.88-9.14-.827-1.451c2.881-1.644,5.758-3.372,8.548-5.138l.893,1.412C462.747,545.458,459.849,547.2,456.945,548.856Zm16.982-10.743-.956-1.369c2.713-1.9,5.421-3.881,8.047-5.9l1.018,1.325C479.39,534.2,476.661,536.2,473.927,538.113ZM219.221,535.76c-2.7-1.959-5.392-4.011-8.009-6.1l1.043-1.306c2.6,2.073,5.271,4.11,7.948,6.054Zm270.646-9.9-1.077-1.278c2.529-2.134,5.045-4.357,7.481-6.61l1.134,1.227C494.952,521.471,492.416,523.711,489.867,525.862ZM203.491,523.2c-2.512-2.2-5.008-4.488-7.417-6.8l1.157-1.206c2.392,2.3,4.868,4.567,7.361,6.751Zm301.143-11-1.19-1.173c2.331-2.362,4.637-4.807,6.853-7.266l1.242,1.118C509.307,507.36,506.984,509.822,504.634,512.2Zm-315.659-2.934c-2.3-2.423-4.581-4.929-6.765-7.445l1.262-1.1c2.168,2.5,4.426,4.983,6.714,7.388ZM518.1,497.253l-1.291-1.061c2.106-2.563,4.18-5.208,6.165-7.862l1.338,1C522.316,492.005,520.226,494.671,518.1,497.253ZM175.792,494.08c-2.07-2.615-4.108-5.315-6.058-8.025l1.356-.976c1.935,2.689,3.958,5.368,6.012,7.965ZM530.16,481.131l-1.382-.938c1.864-2.744,3.689-5.568,5.425-8.4l1.425.875C533.877,475.52,532.038,478.367,530.16,481.131Zm-366.109-3.367c-1.821-2.792-3.6-5.664-5.3-8.539l1.439-.849c1.682,2.854,3.45,5.7,5.257,8.474Zm376.65-13.8-1.462-.808c1.6-2.9,3.163-5.885,4.634-8.862l1.5.741C543.89,458.039,542.318,461.043,540.7,463.968Zm8.925-18.066-1.531-.671c1.332-3.041,2.61-6.156,3.8-9.257l1.56.6C552.257,439.7,550.967,442.837,549.626,445.9ZM145.288,442.3c-1.281-3.075-2.508-6.22-3.646-9.351l1.571-.571c1.129,3.107,2.347,6.228,3.618,9.279Zm411.565-15.221-1.586-.526c1.043-3.142,2.027-6.354,2.925-9.547l1.609.452C558.895,420.672,557.9,423.91,556.852,427.076Zm-418.43-3.662c-.994-3.185-1.929-6.438-2.777-9.671l1.616-.424c.842,3.208,1.769,6.437,2.756,9.6Zm423.877-15.7-1.628-.379c.748-3.221,1.432-6.51,2.034-9.775l1.643.3C563.743,401.148,563.053,404.462,562.3,407.709Zm-428.981-3.755c-.7-3.264-1.328-6.589-1.874-9.885l1.648-.274c.543,3.271,1.169,6.571,1.86,9.81Zm432.623-16.029-1.656-.227c.45-3.273.829-6.61,1.128-9.92l1.665.15C566.776,381.263,566.393,384.626,565.941,387.924Zm-435.916-3.816c-.394-3.308-.718-6.677-.962-10.014l1.667-.122c.242,3.312.563,6.655.955,9.939Zm437.733-16.218-1.67-.075c.148-3.311.224-6.67.224-9.982h1.671c0,3.337-.076,6.721-.226,10.057Zm-439.2-3.845c-.057-2.049-.086-4.14-.087-6.212q0-1.929.033-3.851l1.671.029q-.033,1.907-.033,3.821c0,2.057.029,4.132.086,6.166Zm2.014-20.01-1.668-.1c.208-3.339.5-6.712.855-10.024l1.661.18c-.356,3.288-.641,6.634-.849,9.949Zm434.663-10.2c-.334-3.295-.793-4.9-1.278-8.181l1.653-.244c.488,3.305.907,5.828,1.244,9.148Zm-432.514-9.652-1.652-.255c.512-3.306,1.107-6.638,1.768-9.9l1.638.331c-.656,3.242-1.247,6.549-1.754,9.829Zm429.549-8.369c-.637-3.26-1.356-6.541-2.138-9.753l1.624-.395c.787,3.236,1.512,6.543,2.154,9.828Zm-425.591-11.2-1.621-.406c.812-3.237,1.71-6.5,2.672-9.7l1.6.481C138.376,298.171,137.484,301.41,136.679,304.621Zm420.868-8.2c-.932-3.182-1.95-6.383-3.026-9.515l1.58-.543c1.085,3.156,2.112,6.382,3.051,9.588ZM142.432,285.475l-1.576-.554c1.111-3.159,2.31-6.333,3.564-9.435l1.55.627c-1.245,3.077-2.435,6.227-3.537,9.362Zm408.626-7.934c-1.219-3.075-2.525-6.162-3.881-9.174l1.524-.686c1.367,3.036,2.682,6.146,3.91,9.244ZM149.932,266.928l-1.519-.7c1.4-3.04,2.881-6.088,4.415-9.06l1.485.766C152.791,260.886,151.317,263.911,149.932,266.928Zm392.946-7.55c-1.5-2.95-3.08-5.907-4.71-8.786l1.454-.823c1.643,2.9,3.239,5.88,4.746,8.854ZM159.1,249.159l-1.448-.834c1.667-2.895,3.425-5.792,5.226-8.612l1.408.9C162.5,243.411,160.758,246.286,159.1,249.159Zm373.956-7.132c-1.766-2.811-3.615-5.612-5.5-8.324l1.372-.952c1.9,2.733,3.759,5.555,5.538,8.388Zm-363.2-9.712-1.366-.963c1.927-2.732,3.941-5.456,5.988-8.095l1.32,1.024C173.772,226.9,171.772,229.6,169.861,232.315Zm351.832-6.678c-2.014-2.638-4.111-5.26-6.235-7.794l1.281-1.073c2.14,2.553,4.253,5.2,6.282,7.853ZM182.1,216.53l-1.272-1.084c2.162-2.539,4.415-5.067,6.7-7.512l1.222,1.14C186.487,211.5,184.251,214.01,182.1,216.53Zm326.77-6.19c-2.245-2.443-4.574-4.865-6.92-7.2l1.178-1.186c2.365,2.35,4.711,4.79,6.973,7.252ZM195.729,201.93l-1.169-1.195c2.39-2.338,4.862-4.649,7.349-6.869l1.113,1.247C200.554,197.316,198.1,199.61,195.729,201.93Zm298.985-5.665c-2.46-2.231-5-4.432-7.55-6.541l1.066-1.288c2.568,2.125,5.128,4.342,7.607,6.591Zm-284.1-7.63-1.055-1.3c2.585-2.1,5.256-4.181,7.94-6.17l1,1.342c-2.664,1.975-5.315,4.035-7.88,6.124Zm16.028-11.88-.933-1.386c2.766-1.861,5.614-3.684,8.465-5.418l.868,1.428C232.217,173.1,229.391,174.909,226.645,176.755Zm17.036-10.362-.8-1.466c2.927-1.6,5.927-3.155,8.919-4.619l.734,1.5c-2.969,1.452-5.946,2.994-8.851,4.583Zm201.684-3.872c-2.973-1.481-6.02-2.913-9.053-4.254l.676-1.528c3.058,1.351,6.127,2.794,9.124,4.286Zm-183.784-4.883-.664-1.533c3.058-1.326,6.187-2.6,9.3-3.779l.593,1.563c-3.088,1.173-6.192,2.434-9.227,3.75Zm165.488-3.2c-3.094-1.2-6.261-2.345-9.413-3.4l.532-1.585c3.176,1.066,6.367,2.219,9.485,3.429ZM280.221,150.56l-.521-1.588c3.176-1.041,6.416-2.022,9.63-2.913l.447,1.61C286.588,148.553,283.373,149.526,280.221,150.56Zm127.9-2.485c-3.187-.909-6.438-1.755-9.662-2.515l.384-1.626c3.249.766,6.525,1.618,9.737,2.534Zm-108.66-2.854-.372-1.629c3.256-.744,6.572-1.421,9.857-2.014l.3,1.644C305.98,143.81,302.689,144.483,299.458,145.221Zm89.229-1.727c-3.254-.611-6.569-1.154-9.852-1.615l.232-1.655c3.309.465,6.65,1.012,9.929,1.627ZM319.1,141.675l-.221-1.656c3.308-.441,6.672-.813,10-1.1l.145,1.665C325.726,140.869,322.388,141.237,319.1,141.675Zm49.814-.959c-3.292-.31-6.642-.549-9.959-.71l.082-1.67c3.342.162,6.717.4,10.034.715Zm-29.926-.776-.07-1.67c3.071-.128,6.2-.193,9.3-.194h.756l0,1.671h-.752C345.147,139.748,342.04,139.813,338.992,139.94Z" transform="translate(8576.889 6292.397)" fill="#3f3d56"/>
      <rect id="Rectangle_437" data-name="Rectangle 437" width="92.041" height="107.233" transform="translate(8709.835 6760.622)" fill="#fff3d3"/>
      <path id="Path_861" data-name="Path 861" d="M261.436,637.272H132.757V508.593H261.436Zm-126.892-1.787h125.1V510.38h-125.1Z" transform="translate(8576.185 6231.476)" fill="#3f3d56"/>
      <rect id="Rectangle_438" data-name="Rectangle 438" width="78.637" height="1.787" transform="translate(8735.749 6777.6)" fill="#3f3d56"/>
      <rect id="Rectangle_439" data-name="Rectangle 439" width="78.637" height="1.787" transform="translate(8735.749 6797.26)" fill="#3f3d56"/>
      <rect id="Rectangle_440" data-name="Rectangle 440" width="78.637" height="1.787" transform="translate(8735.749 6816.918)" fill="#3f3d56"/>
      <rect id="Rectangle_441" data-name="Rectangle 441" width="185.498" height="92.052" transform="translate(8837.832 6408.128)" fill="#fff3d3"/>
      <path id="Path_862" data-name="Path 862" d="M509.944,200.468H286.009V88.5H509.944ZM287.68,198.8H508.273V90.171H287.68Z" transform="translate(8550.987 6300.548)" fill="#3f3d56"/>
      <rect id="Rectangle_442" data-name="Rectangle 442" width="120.272" height="1.671" transform="translate(8870.443 6435.771)" fill="#3f3d56"/>
      <rect id="Rectangle_443" data-name="Rectangle 443" width="120.272" height="1.671" transform="translate(8870.443 6453.319)" fill="#3f3d56"/>
      <rect id="Rectangle_444" data-name="Rectangle 444" width="120.272" height="1.671" transform="translate(8870.443 6470.866)" fill="#3f3d56"/>
      <rect id="Rectangle_445" data-name="Rectangle 445" width="79.38" height="84.393" transform="translate(9092.823 6640.442)" fill="#fff3d3"/>
      <path id="Path_863" data-name="Path 863" d="M691.448,471.631H591.179V371.362H691.448Zm-98.6-1.671h96.927V373.033H592.85Z" transform="translate(8500.81 6254.04)" fill="#3f3d56"/>
      <rect id="Rectangle_446" data-name="Rectangle 446" width="55.148" height="1.671" transform="translate(9104.94 6670.94)" fill="#3f3d56"/>
      <rect id="Rectangle_447" data-name="Rectangle 447" width="55.148" height="1.671" transform="translate(9104.94 6681.803)" fill="#3f3d56"/>
      <rect id="Rectangle_448" data-name="Rectangle 448" width="55.148" height="1.671" transform="translate(9104.94 6692.666)" fill="#3f3d56"/>
      <rect id="Rectangle_449" data-name="Rectangle 449" width="382.316" height="1.671" transform="translate(8757.805 6499.344)" fill="#3f3d56"/>
      <rect id="Rectangle_450" data-name="Rectangle 450" width="209.73" height="1.671" transform="translate(9037.258 6724)" fill="#3f3d56"/>
      <rect id="Rectangle_451" data-name="Rectangle 451" width="246.561" height="1.671" transform="translate(8650 6867.72)" fill="#3f3d56"/>
      <g id="Group_197" data-name="Group 197" transform="translate(8735.046 6343.558)">
        <path id="Path_105" data-name="Path 105" d="M1032.933,378.4l26.054-17.52a109.81,109.81,0,0,0-20.889-31.065l-26.054,17.52A67.356,67.356,0,0,1,1032.933,378.4Z" transform="translate(-683.804 20.176)" fill="#006cff"/>
        <path id="Path_81" data-name="Path 81" d="M370.078,266.134l0-.625c1.243,0,2.5-.018,3.75-.063l.023.624C372.6,266.116,371.329,266.138,370.078,266.134Zm-3.773-.085c-1.249-.053-2.516-.132-3.767-.234l.051-.623c1.242.1,2.5.181,3.742.233Zm11.316-.193-.048-.623c1.24-.1,2.5-.217,3.732-.362l.073.621C380.134,265.638,378.87,265.76,377.621,265.856Zm-18.837-.426c-1.246-.153-2.5-.333-3.736-.536l.1-.617c1.225.2,2.474.38,3.711.532Zm26.333-.454-.1-.617c1.226-.194,2.468-.417,3.69-.661l.122.613c-1.231.246-2.481.47-3.715.666Zm-33.781-.768c-1.229-.253-2.467-.534-3.681-.836l.151-.607c1.205.3,2.436.579,3.656.83Zm41.182-.714-.148-.607c1.211-.294,2.431-.616,3.625-.958l.172.6c-1.2.344-2.43.668-3.649.964Zm-48.507-1.106c-1.2-.352-2.416-.732-3.6-1.131l.2-.593c1.178.4,2.381.774,3.577,1.124Zm55.764-.971-.2-.593c1.181-.39,2.37-.81,3.535-1.249l.22.585c-1.173.441-2.371.864-3.559,1.257Zm-62.927-1.441c-1.171-.448-2.35-.927-3.506-1.423l.247-.574c1.147.493,2.319.969,3.482,1.414Zm69.982-1.212-.243-.576c1.144-.484,2.293-1,3.414-1.527l.267.565C409.138,257.76,407.981,258.277,406.829,258.765ZM329.9,256.99c-1.133-.543-2.27-1.115-3.377-1.7l.293-.552c1.1.582,2.228,1.151,3.354,1.69Zm83.744-1.437-.289-.554c1.1-.576,2.207-1.181,3.283-1.8l.311.542c-1.083.622-2.195,1.231-3.3,1.81Zm-90.425-2.1c-1.087-.633-2.173-1.3-3.227-1.968l.336-.527c1.047.668,2.125,1.326,3.205,1.955Zm96.96-1.651-.333-.529c1.05-.66,2.1-1.352,3.129-2.057l.353.515C422.293,250.439,421.233,251.136,420.176,251.8Zm-103.331-2.412c-1.031-.717-2.06-1.464-3.057-2.22l.377-.5c.991.75,2.012,1.492,3.036,2.2Zm109.547-1.855-.374-.5c.993-.742,1.988-1.517,2.956-2.3l.394.485c-.975.791-1.976,1.571-2.976,2.318Zm-115.568-2.7c-.968-.8-1.932-1.622-2.868-2.457l.416-.466c.929.829,1.888,1.65,2.849,2.44Zm121.426-2.049-.413-.469c.934-.822,1.864-1.674,2.764-2.533l.431.452c-.906.864-1.842,1.722-2.782,2.549ZM305.19,239.8c-.9-.869-1.794-1.77-2.661-2.677l.452-.432c.861.9,1.751,1.8,2.643,2.659ZM437.71,237.57l-.449-.435c.864-.893,1.723-1.817,2.553-2.747l.466.417c-.836.935-1.7,1.866-2.571,2.765Zm-137.733-3.225c-.83-.942-1.65-1.911-2.437-2.88l.485-.394c.782.963,1.6,1.926,2.421,2.861Zm142.761-2.406-.483-.4c.793-.963,1.575-1.953,2.326-2.944l.5.378c-.756,1-1.544,1.994-2.342,2.963ZM295.221,228.49c-.75-1-1.489-2.033-2.2-3.064l.515-.354c.7,1.024,1.438,2.048,2.183,3.044ZM447.3,225.92l-.513-.357c.713-1.024,1.414-2.075,2.083-3.122l.527.336C448.726,223.832,448.02,224.889,447.3,225.92ZM290.95,222.277c-.666-1.058-1.32-2.144-1.944-3.229l.542-.311c.62,1.077,1.269,2.156,1.931,3.207Zm160.42-2.725-.54-.315c.629-1.079,1.243-2.183,1.826-3.282l.552.293C452.621,217.353,452,218.465,451.37,219.551Zm-164.176-3.809c-.579-1.108-1.143-2.242-1.677-3.373l.565-.267c.531,1.123,1.091,2.25,1.666,3.351Zm167.718-2.871-.564-.27c.539-1.124,1.062-2.274,1.555-3.42l.574.247C455.981,210.582,455.454,211.741,454.911,212.872Zm-170.934-3.939c-.488-1.153-.959-2.328-1.4-3.5l.585-.22c.437,1.158.9,2.326,1.389,3.471Zm173.925-3.01-.584-.223c.447-1.168.876-2.358,1.273-3.537l.592.2C458.784,203.55,458.353,204.748,457.9,205.924ZM281.321,201.88c-.394-1.189-.769-2.4-1.114-3.607l.6-.172c.343,1.2.715,2.4,1.106,3.582Zm179-3.118-.6-.175c.349-1.191.678-2.409.98-3.619l.606.151C461,196.336,460.669,197.562,460.318,198.761ZM279.24,194.624c-.3-1.218-.571-2.457-.818-3.685l.613-.123c.245,1.219.518,2.451.812,3.66Zm182.9-3.186-.612-.126c.251-1.216.481-2.457.683-3.686l.617.1c-.2,1.238-.435,2.486-.688,3.711Zm-184.387-4.214c-.2-1.234-.37-2.492-.517-3.739l.621-.073c.146,1.238.319,2.487.514,3.714Zm185.613-3.234-.621-.076c.153-1.237.282-2.491.385-3.729l.623.051c-.1,1.246-.233,2.509-.387,3.754Zm-186.5-4.261c-.1-1.249-.169-2.516-.216-3.769l.624-.023c.046,1.244.119,2.5.215,3.744Zm187.121-3.26-.624-.027c.053-1.245.082-2.506.086-3.749v-.207l.625,0v.206C464.074,173.946,464.045,175.216,463.991,176.469Zm-186.778-4.281-.625,0v-.1c0-1.219.032-2.454.082-3.668l.624.026c-.05,1.206-.078,2.433-.082,3.645Zm186.17-3.45c-.048-1.241-.121-2.5-.219-3.743l.623-.049c.1,1.251.172,2.519.22,3.768ZM277.526,164.7l-.623-.051c.1-1.251.231-2.514.383-3.755l.62.076C277.756,162.2,277.628,163.455,277.526,164.7Zm185.27-3.433c-.147-1.233-.321-2.482-.518-3.713l.617-.1c.2,1.239.374,2.5.521,3.738Zm-184.36-4.008-.617-.1c.2-1.237.432-2.486.684-3.712l.612.126C278.866,154.787,278.637,156.027,278.437,157.256Zm183.174-3.394c-.247-1.222-.521-2.453-.816-3.659l.607-.148c.3,1.214.573,2.454.822,3.684Zm-181.667-3.95-.607-.15c.3-1.215.632-2.442.982-3.645l.6.175C280.571,147.487,280.243,148.7,279.944,149.912Zm179.887-3.333c-.344-1.195-.717-2.4-1.11-3.581l.593-.2c.4,1.189.771,2.4,1.117,3.605Zm-177.789-3.865-.592-.2c.4-1.189.829-2.387,1.278-3.563l.584.223C282.865,140.343,282.438,141.533,282.041,142.714Zm175.424-3.249c-.44-1.164-.909-2.331-1.393-3.47l.575-.244c.487,1.146.959,2.321,1.4,3.493Zm-172.743-3.773-.574-.247c.495-1.153,1.021-2.312,1.562-3.445l.564.269C285.736,133.4,285.214,134.547,284.723,135.692Zm169.818-3.109c-.531-1.122-1.093-2.249-1.669-3.349l.553-.29c.581,1.107,1.146,2.242,1.68,3.371Zm-166.578-3.668-.553-.292c.586-1.108,1.2-2.221,1.835-3.306l.54.314C289.158,126.709,288.545,127.814,287.963,128.915Zm163.1-2.96c-.621-1.078-1.272-2.156-1.935-3.206l.528-.334c.667,1.056,1.322,2.142,1.948,3.227Zm-159.33-3.529-.527-.336c.674-1.058,1.378-2.116,2.094-3.145l.513.357C293.107,120.323,292.408,121.374,291.738,122.425Zm155.332-2.8c-.706-1.024-1.441-2.047-2.187-3.042l.5-.375c.751,1,1.491,2.031,2.2,3.062Zm-151.049-3.359-.5-.377c.756-1,1.543-2,2.338-2.966l.483.4C297.554,114.279,296.773,115.27,296.021,116.263Zm146.555-2.634c-.785-.964-1.6-1.926-2.424-2.858l.468-.414c.829.938,1.65,1.907,2.441,2.877Zm-141.793-3.162-.466-.416c.833-.935,1.7-1.866,2.567-2.768l.45.434c-.865.9-1.723,1.821-2.551,2.749Zm136.831-2.456c-.862-.9-1.752-1.794-2.647-2.656l.434-.45c.9.868,1.8,1.768,2.664,2.674Zm-131.623-2.938-.432-.452c.9-.865,1.84-1.723,2.779-2.553l.413.469C307.819,103.36,306.89,104.214,305.992,105.073Zm126.226-2.267c-.931-.829-1.891-1.649-2.851-2.437l.4-.483c.967.794,1.933,1.619,2.87,2.454Zm-120.605-2.691-.395-.485c.972-.791,1.973-1.572,2.973-2.321l.375.5C313.572,98.552,312.578,99.328,311.612,100.114Zm114.806-2.067c-.994-.752-2.017-1.492-3.039-2.2l.356-.513c1.028.714,2.058,1.46,3.059,2.216ZM317.609,95.623l-.354-.515c1.033-.711,2.092-1.409,3.148-2.075l.333.529C319.687,94.224,318.634,94.917,317.609,95.623Zm102.645-1.856c-1.052-.669-2.131-1.325-3.208-1.951l.314-.54c1.084.63,2.17,1.291,3.229,1.964ZM323.943,91.63l-.312-.542c1.083-.623,2.194-1.233,3.3-1.814l.29.554c-1.1.576-2.205,1.183-3.281,1.8Zm89.82-1.635c-1.1-.582-2.231-1.149-3.356-1.687l.269-.564c1.133.541,2.27,1.112,3.379,1.7Zm-83.19-1.834-.267-.565c1.129-.534,2.285-1.052,3.436-1.541l.244.575C332.842,87.115,331.694,87.63,330.573,88.16Zm76.411-1.4c-1.147-.492-2.319-.966-3.484-1.41l.223-.584c1.173.447,2.353.925,3.507,1.419Zm-69.527-1.52-.221-.585c1.171-.442,2.368-.866,3.558-1.261l.2.593C339.809,84.378,338.62,84.8,337.457,85.239Zm62.5-1.158c-1.18-.4-2.384-.772-3.578-1.12l.175-.6c1.2.35,2.415.729,3.6,1.127Zm-55.387-1.2-.173-.6c1.2-.346,2.431-.672,3.648-.969l.148.607C346.987,82.211,345.767,82.535,344.572,82.878Zm48.188-.89c-1.206-.3-2.436-.576-3.657-.826l.125-.612c1.229.251,2.468.531,3.682.832Zm-40.9-.886-.123-.613c1.226-.247,2.476-.472,3.715-.67l.1.617C354.315,80.633,353.074,80.857,351.856,81.1Zm33.56-.617c-1.228-.2-2.477-.378-3.712-.528l.076-.62c1.243.151,2.5.33,3.737.532Zm-26.157-.564-.074-.621c1.244-.147,2.508-.271,3.756-.369l.049.623C361.75,79.651,360.494,79.774,359.259,79.92Zm18.715-.342c-1.239-.1-2.5-.178-3.742-.229l.026-.625c1.253.052,2.52.129,3.767.231Zm-11.24-.241-.024-.624c1.25-.047,2.519-.07,3.774-.069v.625C369.237,79.267,367.975,79.29,366.734,79.337Z" transform="translate(-197.121 186.388)" fill="#3f3d56"/>
        <path id="Path_82" data-name="Path 82" d="M752.021,284.618l-109.408,189.5-36.167,62.643-6.891-3.978-68.815-39.73L479.37,463.395,292.585,355.558,318.719,0Z" transform="translate(-292.585 0)" fill="#f1f1f1" opacity="0.33"/>
        <path id="Path_83" data-name="Path 83" d="M255.44,380.07a33.689,33.689,0,0,1,44.673-23.689c6.405,2.416,11.9,6.714,17.012,11.165,9.877,8.6,19.443,17.549,31.373,23.287,10.657,5.125,22.656,7.3,34.244,4.245a35.627,35.627,0,0,0,14.265-7.351,33.587,33.587,0,0,0,9.183-13.659c4.14-10.9,4.058-22.824,7.218-33.978a36.992,36.992,0,0,1,8.343-15.56,40.794,40.794,0,0,1,14.789-9.682c13.069-5.165,27.214-4.746,41.019-4.564,13.047.172,26.418-.052,38.639-5.191a41.4,41.4,0,0,0,14.548-9.893,45.708,45.708,0,0,0,9.174-16.312c1.054-3.066,1.893-6.2,2.648-9.349.281-1.173-1.526-1.673-1.808-.5-1.563,6.523-3.506,13.053-6.943,18.862a36.158,36.158,0,0,1-13.242,12.958c-11.515,6.615-25.108,7.621-38.1,7.592-13.941-.031-28.2-1.069-41.744,2.969-11.02,3.286-21.162,9.869-26.265,20.479-5.08,10.562-5.257,22.547-7.786,33.806-1.256,5.592-3.134,11.1-6.5,15.792a30.468,30.468,0,0,1-13.488,10.308c-11.38,4.56-24.07,3.222-35.117-1.614-12.384-5.422-22.3-14.455-32.329-23.275-4.829-4.249-9.908-8.385-15.769-11.131a35.605,35.605,0,0,0-49.846,23.786c-.287,1.172,1.521,1.672,1.808.5Z" transform="translate(-181.91 60.838)" fill="#3f3d56"/>
        <path id="Path_84" data-name="Path 84" d="M587.03,661.283h-31.4a109.81,109.81,0,0,1,0-37.435h31.4a67.36,67.36,0,0,0,0,37.435Z" transform="translate(-380.714 -174.398)" fill="#ff6584"/>
        <path id="Path_85" data-name="Path 85" d="M304.384,550.4h31.4a109.815,109.815,0,0,0,0-37.435h-31.4A67.358,67.358,0,0,1,304.384,550.4Z" transform="translate(-215.515 -101.019)" fill="#ffe18c"/>
        <path id="Path_86" data-name="Path 86" d="M322,553.347a7.515,7.515,0,0,1,6.5.489c1.65.922,3.146,2.048,5.061,2.341a7.824,7.824,0,0,0,4.594-.7c1.829-.894,2.958-2.615,4.524-3.85.879-.693-.36-1.916-1.23-1.23-1.529,1.206-2.62,2.959-4.483,3.7a6.387,6.387,0,0,1-5.745-.654,16,16,0,0,0-4.491-2.167,9.185,9.185,0,0,0-5.2.4c-1.04.387-.59,2.069.462,1.677Z" transform="translate(-226.474 -125.657)" fill="#f2f2f2"/>
        <path id="Path_87" data-name="Path 87" d="M322,578.2a7.516,7.516,0,0,1,6.5.489c1.65.922,3.146,2.048,5.061,2.341a7.825,7.825,0,0,0,4.594-.7c1.829-.894,2.958-2.616,4.524-3.85.878-.693-.36-1.916-1.23-1.23-1.529,1.206-2.62,2.96-4.483,3.7a6.387,6.387,0,0,1-5.745-.654,16,16,0,0,0-4.491-2.167,9.185,9.185,0,0,0-5.2.4C320.493,576.912,320.943,578.594,322,578.2Z" transform="translate(-226.474 -142.105)" fill="#f2f2f2"/>
        <path id="Path_88" data-name="Path 88" d="M585.242,650.2a7.515,7.515,0,0,0-6.5.489c-1.65.922-3.146,2.048-5.061,2.341a7.825,7.825,0,0,1-4.594-.7c-1.829-.894-2.958-2.616-4.524-3.85-.878-.693.36-1.916,1.23-1.23,1.529,1.206,2.62,2.959,4.483,3.7a6.387,6.387,0,0,0,5.745-.654,16,16,0,0,1,4.491-2.167,9.185,9.185,0,0,1,5.2.4C586.745,648.907,586.295,650.589,585.242,650.2Z" transform="translate(-387.485 -189.747)" fill="#f2f2f2"/>
        <path id="Path_89" data-name="Path 89" d="M585.242,674.2a7.516,7.516,0,0,0-6.5.489c-1.65.922-3.146,2.047-5.061,2.341a7.826,7.826,0,0,1-4.594-.7c-1.829-.894-2.958-2.616-4.524-3.85-.878-.693.36-1.916,1.23-1.23,1.529,1.206,2.62,2.959,4.483,3.7a6.388,6.388,0,0,0,5.745-.654,16,16,0,0,1,4.491-2.167,9.186,9.186,0,0,1,5.2.4C586.745,672.905,586.295,674.587,585.242,674.2Z" transform="translate(-387.485 -205.628)" fill="#f2f2f2"/>
        <path id="Path_90" data-name="Path 90" d="M585.242,698.194a7.516,7.516,0,0,0-6.5.489c-1.65.922-3.146,2.048-5.061,2.341a7.825,7.825,0,0,1-4.594-.7c-1.829-.894-2.958-2.616-4.524-3.85-.878-.693.36-1.916,1.23-1.23,1.529,1.206,2.62,2.96,4.483,3.7a6.387,6.387,0,0,0,5.745-.654,16,16,0,0,1,4.491-2.167,9.186,9.186,0,0,1,5.2.4C586.745,696.9,586.295,698.586,585.242,698.194Z" transform="translate(-387.485 -221.508)" fill="#f2f2f2"/>
        <path id="Path_98" data-name="Path 98" d="M749.578,533.528h31.4a109.82,109.82,0,0,0,0-37.435h-31.4A67.361,67.361,0,0,1,749.578,533.528Z" transform="translate(-510.12 -89.856)" fill="#ffe18c"/>
        <path id="Path_99" data-name="Path 99" d="M766.822,527.635a7.515,7.515,0,0,1,6.5.489c1.65.922,3.146,2.048,5.061,2.341a7.825,7.825,0,0,0,4.594-.7c1.829-.894,2.958-2.616,4.524-3.85.878-.693-.36-1.916-1.23-1.23-1.529,1.206-2.62,2.96-4.483,3.7a6.387,6.387,0,0,1-5.745-.654,16,16,0,0,0-4.491-2.167,9.187,9.187,0,0,0-5.2.4C765.32,526.344,765.77,528.026,766.822,527.635Z" transform="translate(-520.834 -108.642)" fill="#f2f2f2"/>
        <path id="Path_100" data-name="Path 100" d="M766.822,551.633a7.516,7.516,0,0,1,6.5.489c1.649.922,3.146,2.047,5.061,2.341a7.825,7.825,0,0,0,4.594-.7c1.829-.894,2.958-2.616,4.524-3.85.878-.692-.36-1.916-1.23-1.23-1.529,1.206-2.62,2.959-4.483,3.7a6.386,6.386,0,0,1-5.745-.654,16,16,0,0,0-4.491-2.167,9.185,9.185,0,0,0-5.2.4C765.32,550.342,765.77,552.024,766.822,551.633Z" transform="translate(-520.834 -124.523)" fill="#f2f2f2"/>
        <path id="Path_104" data-name="Path 104" d="M857.66,384.1c16.428-.886,33.084,1.446,49.246-2.529,1.171-.288.675-2.1-.5-1.808-15.986,3.932-32.5,1.586-48.747,2.463C856.46,382.294,856.452,384.17,857.66,384.1Z" transform="translate(-581.044 -12.858)" fill="#3f3d56"/>
        <path id="Path_106" data-name="Path 106" d="M1051.422,381.976a7.516,7.516,0,0,1,5.671-3.224c1.883-.156,3.753-.057,5.506-.881a7.824,7.824,0,0,0,3.421-3.146c1.019-1.763.995-3.821,1.605-5.719.343-1.065-1.368-1.389-1.707-.334-.6,1.854-.523,3.918-1.655,5.572a6.387,6.387,0,0,1-5.132,2.663,16,16,0,0,0-4.936.708,9.184,9.184,0,0,0-4.092,3.228C1049.455,381.743,1050.767,382.888,1051.422,381.976Z" transform="translate(-708.874 -5.108)" fill="#f2f2f2"/>
        <path id="Path_107" data-name="Path 107" d="M1065.292,402.6a7.516,7.516,0,0,1,5.671-3.224c1.883-.156,3.753-.057,5.506-.881a7.825,7.825,0,0,0,3.421-3.146c1.019-1.763,1-3.821,1.605-5.719.343-1.065-1.368-1.389-1.707-.334-.6,1.854-.523,3.918-1.655,5.572a6.387,6.387,0,0,1-5.132,2.663,16,16,0,0,0-4.936.708,9.188,9.188,0,0,0-4.092,3.228c-.647.9.665,2.046,1.32,1.134Z" transform="translate(-718.052 -18.757)" fill="#f2f2f2"/>
      </g>
      <g id="Group_78" data-name="Group 78" transform="translate(8889.21 6571.927)">
        <ellipse id="Ellipse_110" data-name="Ellipse 110" cx="45" cy="9.5" rx="45" ry="9.5" transform="translate(5.79 103.374)" fill="#c1c1c1"/>
        <path id="Path_139" data-name="Path 139" d="M675.871,372.81l-.183,2.462a51.212,51.212,0,0,1-5.381,17.6,49.95,49.95,0,0,1-26.783,24.218q-1.74.688-3.612,1.284l-1.392-4.369a51.1,51.1,0,0,0,10.039-4.391,44.432,44.432,0,0,0,17.575-18.654,50.1,50.1,0,0,0,4.612-13.567H653.835V372.81Z" transform="translate(-574.527 -365.215)" fill="#ffe18c"/>
        <path id="Path_140" data-name="Path 140" d="M645.15,417.109a49.94,49.94,0,0,0,26.78-24.215,51.106,51.106,0,0,0,5.381-17.6l.184-2.463h1.888l-.183,2.463a51.134,51.134,0,0,1-5.381,17.6,49.95,49.95,0,0,1-26.78,24.215q-1.74.688-3.614,1.287l-.183-.575Q644.217,417.474,645.15,417.109Z" transform="translate(-577.974 -365.23)" fill="#ffe18c" opacity="0.1"/>
        <path id="Path_141" data-name="Path 141" d="M438.87,414.007l-1.392,4.369q-1.874-.6-3.614-1.287a49.939,49.939,0,0,1-26.78-24.215,51.107,51.107,0,0,1-5.381-17.6l-.183-2.463h22.025V377.4H406.631a50.138,50.138,0,0,0,4.626,13.567,44.4,44.4,0,0,0,17.572,18.651,50.972,50.972,0,0,0,10.042,4.394Z" transform="translate(-401.45 -365.215)" fill="#ffe18c"/>
        <path id="Path_142" data-name="Path 142" d="M435.492,417.109a49.939,49.939,0,0,1-26.78-24.215,51.107,51.107,0,0,1-5.381-17.6l-.183-2.463H401.26l.183,2.463a51.139,51.139,0,0,0,5.381,17.6,49.949,49.949,0,0,0,26.78,24.215q1.74.688,3.614,1.287l.183-.575Q436.429,417.474,435.492,417.109Z" transform="translate(-401.26 -365.23)" fill="#ffe18c" opacity="0.1"/>
        <path id="Path_143" data-name="Path 143" d="M545.808,595.977V620.7H494.92V595.977l1.618-2.158c16.491-5.853,19.832-21.116,20.5-27.155a24.81,24.81,0,0,0,.17-2.514H523.5a24.827,24.827,0,0,0,.17,2.514c.677,6.039,4.019,21.308,20.5,27.155Z" transform="translate(-469.658 -504.947)" fill="#ffe18c"/>
        <rect id="Rectangle_198" data-name="Rectangle 198" width="50.888" height="3.102" transform="translate(25.262 91.029)" fill="#ffe18c" opacity="0.1"/>
        <path id="Path_144" data-name="Path 144" d="M499.236,593.819c16.491-5.853,19.832-21.116,20.5-27.155a24.827,24.827,0,0,0,.17-2.514h-2.7a24.809,24.809,0,0,1-.17,2.514c-.677,6.039-4.019,21.308-20.5,27.155l-1.618,2.158V620.7h2.7V595.977Z" transform="translate(-469.658 -504.947)" fill="#ffe18c" opacity="0.1"/>
        <path id="Path_145" data-name="Path 145" d="M466.26,372.81h4.564V377.4h-4.159Q466.419,375.13,466.26,372.81Z" transform="translate(-448.728 -365.215)" fill="#ffe18c" opacity="0.1"/>
        <path id="Path_146" data-name="Path 146" d="M512.812,513.654l-1.392,4.369q-1.875-.6-3.614-1.287a48.321,48.321,0,0,1-5.036-7.477,50.972,50.972,0,0,0,10.042,4.394Z" transform="translate(-475.391 -464.862)" fill="#ffe18c" opacity="0.1"/>
        <path id="Path_147" data-name="Path 147" d="M638.51,513.661a51.1,51.1,0,0,0,10.039-4.391,48.5,48.5,0,0,1-5.036,7.479q-1.74.688-3.611,1.284Z" transform="translate(-574.52 -464.869)" fill="#ffe18c" opacity="0.1"/>
        <path id="Path_148" data-name="Path 148" d="M699.891,372.81q-.159,2.32-.4,4.585H695.33V372.81Z" transform="translate(-616.014 -365.215)" fill="#ffe18c" opacity="0.1"/>
        <path id="Path_149" data-name="Path 149" d="M583.592,566.664a17.433,17.433,0,0,1-6.632,0,24.825,24.825,0,0,0,.17-2.514h6.292A24.9,24.9,0,0,0,583.592,566.664Z" transform="translate(-529.571 -504.947)" fill="#ffe18c" opacity="0.1"/>
        <path id="Path_150" data-name="Path 150" d="M468.26,344.65c.116,34,14.681,61.5,32.636,61.5s32.517-27.495,32.636-61.5Z" transform="translate(-450.189 -344.65)" fill="#ffe18c"/>
        <path id="Path_151" data-name="Path 151" d="M474.059,344.65h-5.8c.116,34,14.681,61.5,32.636,61.5a17.627,17.627,0,0,0,2.9-.245C487.2,403.127,474.17,376.8,474.059,344.65Z" transform="translate(-450.189 -344.65)" fill="#ffe18c" opacity="0.1"/>
        <rect id="Rectangle_199" data-name="Rectangle 199" width="34.613" height="8.901" transform="translate(33.399 100.494)" fill="#ffeebc"/>
        <path id="Path_152" data-name="Path 152" d="M498.708,594.714H531.7V593.5H497.09v8.9h1.618Z" transform="translate(-463.691 -493.006)" fill="#ffe18c" opacity="0.1"/>
        <path id="Path_298" data-name="Path 298" d="M-930.322,6152.935s4.884,46.983,20.424,51.517c0,0-5.89-4.33-9.374-25.278s-2.846-26.238-2.846-26.238Z" transform="translate(953.215 -6149.758)" fill="#ffeebc"/>
      </g>
    </g>
  </g>
</svg>
