<svg height='100px' width='100px'  fill="#006cff" xmlns="http://www.w3.org/2000/svg" xmlns:xlink="http://www.w3.org/1999/xlink" version="1.1" x="0px" y="0px" viewBox="0 0 100 100" style="enable-background:new 0 0 100 100;" xml:space="preserve"><g><path d="M68.9,39.9c0.1,0.5,0.5,0.9,1,0.9c0,0,0.1,0,0.1,0c0.5-0.1,1-0.5,0.9-1.1c-0.2-1.8-0.6-3.6-1.2-5.3   c-0.2-0.5-0.8-0.8-1.3-0.6c-0.5,0.2-0.8,0.8-0.6,1.3C68.4,36.7,68.7,38.3,68.9,39.9z"></path><path d="M70.8,45c0.1-0.5-0.3-1.1-0.8-1.1c-0.5-0.1-1.1,0.3-1.1,0.8c-1.4,9.2-9.5,16.2-18.8,16.2c-10.5,0-19-8.5-19-19   s8.5-19,19-19c6,0,11.6,2.8,15.2,7.6c0.3,0.4,1,0.5,1.4,0.2c0.4-0.3,0.5-1,0.2-1.4c-4-5.3-10.1-8.4-16.8-8.4c-11.6,0-21,9.4-21,21   s9.4,21,21,21C60.3,62.8,69.2,55.2,70.8,45z"></path><path d="M87.5,70.4L72.3,55.2c2.4-4,3.7-8.6,3.7-13.4c0-14.3-11.7-26-26-26s-26,11.7-26,26c0,4.7,1.3,9.3,3.7,13.4L12.5,70.4   c-0.3,0.3-0.4,0.8-0.2,1.2c0.2,0.4,0.6,0.6,1.1,0.5l13.1-2.2L24.2,83c-0.1,0.4,0.1,0.9,0.5,1.1c0.1,0.1,0.3,0.1,0.5,0.1   c0.3,0,0.5-0.1,0.7-0.3l17-17c2.3,0.6,4.7,1,7.1,1c2.4,0,4.8-0.3,7.1-1l17,17c0.2,0.2,0.4,0.3,0.7,0.3c0.2,0,0.3,0,0.5-0.1   c0.4-0.2,0.6-0.6,0.5-1.1l-2.2-13.1l13.1,2.2c0.4,0.1,0.9-0.1,1.1-0.5C87.9,71.2,87.8,70.7,87.5,70.4z M26.7,80.2l2-11.4   c0.1-0.3,0-0.6-0.3-0.9c-0.2-0.2-0.4-0.3-0.7-0.3c-0.1,0-0.1,0-0.2,0l-11.4,1.9l12.7-12.7c3,4.2,7.2,7.4,12,9.2L26.7,80.2z    M42.9,64.8C42.9,64.8,42.9,64.8,42.9,64.8c-5.4-1.7-10-5.2-13.1-10c0,0,0,0,0,0c0,0,0,0,0,0c-2.5-3.9-3.8-8.3-3.8-13   c0-13.2,10.8-24,24-24s24,10.8,24,24c0,4.6-1.3,9.1-3.8,13c-3.1,4.8-7.7,8.3-13.1,10C52.5,66.2,47.5,66.2,42.9,64.8z M72.5,67.7   c-0.3-0.1-0.6,0-0.9,0.3c-0.2,0.2-0.3,0.6-0.3,0.9l2,11.4L59.2,66.2c4.8-1.8,9-5.1,12-9.3l12.7,12.7L72.5,67.7z"></path><path d="M61.6,39.2c-0.1-0.4-0.4-0.6-0.8-0.7l-6.8-1l-3.1-6.2c-0.3-0.7-1.5-0.7-1.8,0l-3.1,6.2l-6.8,1c-0.4,0.1-0.7,0.3-0.8,0.7   c-0.1,0.4,0,0.8,0.3,1l4.9,4.8l-1.2,6.8c-0.1,0.4,0.1,0.8,0.4,1c0.3,0.2,0.7,0.3,1.1,0.1l6.1-3.2l6.1,3.2c0.1,0.1,0.3,0.1,0.5,0.1   c0.2,0,0.4-0.1,0.6-0.2c0.3-0.2,0.5-0.6,0.4-1L56.4,45l4.9-4.8C61.6,39.9,61.7,39.5,61.6,39.2z M54.6,43.9   c-0.2,0.2-0.3,0.6-0.3,0.9l0.9,5.3l-4.8-2.5c-0.1-0.1-0.3-0.1-0.5-0.1s-0.3,0-0.5,0.1l-4.8,2.5l0.9-5.3c0.1-0.3-0.1-0.7-0.3-0.9   l-3.9-3.8l5.3-0.8c0.3,0,0.6-0.3,0.8-0.5L50,34l2.4,4.8c0.1,0.3,0.4,0.5,0.8,0.5l5.3,0.8L54.6,43.9z"></path></g></svg>