<svg height='100px' width='100px'  fill="#006cff" xmlns="http://www.w3.org/2000/svg" xmlns:xlink="http://www.w3.org/1999/xlink" version="1.1" x="0px" y="0px" viewBox="0 0 100 100" enable-background="new 0 0 100 100" xml:space="preserve"><path d="M5,50C5,25.188,25.187,5,50,5c24.813,0,45,20.188,45,45c0,24.813-20.188,45-45,45C25.187,95,5,74.813,5,50z M93.5,50  C93.5,26.014,73.986,6.5,50,6.5S6.5,26.014,6.5,50S26.014,93.5,50,93.5S93.5,73.986,93.5,50z"></path><polygon points="80.53,40.326 79.47,39.266 50,68.736 20.53,39.267 19.47,40.327 50,70.859 "></polygon></svg>