<svg height='100px' width='100px'  fill="#006cff" xmlns="http://www.w3.org/2000/svg" xmlns:xlink="http://www.w3.org/1999/xlink" version="1.1" x="0px" y="0px" viewBox="0 0 66 66" enable-background="new 0 0 66 66" xml:space="preserve"><g><g><g><path d="M65.1,45.4h-2l-2-11.6c-0.1-0.8-1.3-0.8-1.5,0l-2.2,14.4l-2.1-10.3c-0.1-0.7-1.1-0.8-1.4-0.2l-3.3,7.4     c-1.4,0-2.6-0.3-2.6,0.8c0,0.4,0.3,0.8,0.8,0.8H51c0.3,0,0.6-0.2,0.7-0.4l2.6-5.7l2.4,12.2c0.2,0.8,1.3,0.8,1.5,0l2.2-14l1.3,7.7     c0.1,0.4,0.4,0.6,0.7,0.6h2.6c0.4,0,0.8-0.3,0.8-0.8C65.9,45.7,65.5,45.4,65.1,45.4z"></path></g><g><path d="M50,38.4c0.2-0.5,0.3-1.2-0.2-2l-2.5-5.5c-0.8-1.7-0.9-3.6-0.4-5.4c0.5-1.9,0.7-3.4,0.5-4.4c0.6-1.2,1.1-2.7,1.2-4.1     c0-0.1,0-0.5,0-0.7c0-0.1,0-0.5,0-0.8c0-0.1,0-0.2,0-0.3c-0.8-9-12.8-12.1-21.7-13.3c0,0-0.7-0.1-1.8-0.1     c-5.3,0-18.3,1.4-23.8,14.9c0,0.1-0.1,0.3-0.2,0.7c-3.7,13.9,5.2,25.9,5.2,26.9c0.2,0.4,0.4,0.7,0.7,0.9c0.4,5.7,0.6,15-0.8,17.8     c-0.1,0.2-0.1,0.5,0,0.7c0.1,0.2,0.4,0.4,0.6,0.4h22.6c0.3,0,0.6-0.2,0.7-0.6c0-0.1,2.6-9.8,8.6-8.5c1.9,0.4,4.5,0.2,5.6-1.5     c0.7-1,0.7-2.4,0.1-4.2c1.8-1,3.2-2.6,2.2-4.3c1.3-1,1.1-2.9,0.4-4.5C48.1,40.2,49.5,39.5,50,38.4z M25.1,3.4c0.2,0,0.5,0,0.7,0     c0.6,0,0.9,0,0.9,0v0c10.8,1.4,23.5,5.7,19.9,15.9c-0.6-1-0.8-1.7-1.5-1.6c-0.1,0-0.3,0.1-0.4,0.2c-0.1-0.1-0.3-0.2-0.4-0.2     c-0.3,0-0.6,0.1-0.7,0.4l-1.2,2c-0.2-0.7-0.4-1.5-1-1.6c-0.3,0-0.6,0.1-0.7,0.4L40.5,19c-0.1-0.6-0.1-1.2-0.7-1.3     c-0.8-0.2-0.9,0.5-3.8,4.9c-3.2-2.5-2.1-3-6.1,4.4c-2.6-0.7-3.7-1.2-3.9-0.2l-1,4.3c-2-4.3-1.6-4.1-3.5-3.1     c-2.2-3-5.2-4.4-7.5-1.5c-2.7,3.4-0.7,9.8,1.1,12.5l0,0.1l-0.6-0.8c-0.2-0.2-0.5-0.4-0.8-0.3c-0.3,0.1-0.5,0.3-0.6,0.6l-0.4,1.9     c-0.2-0.5-0.3-1-0.9-0.9c-0.1,0-0.3,0.1-0.4,0.2c-0.2-0.2-0.5-0.3-0.8-0.3c-0.8,0.2-0.6,1.2-0.6,2.6c-0.4-0.3-0.9-0.1-1.1,0.3     C8.5,42,8,41.2,7.5,41.2c-0.6,0-0.7,0.4-0.8,0.9c-5.6-9.9-5.6-20-4-24.9C7.9,4.7,20.1,3.4,25.1,3.4z M46,39.3     c-0.2,0.1-0.4,0.2-0.5,0.4c-0.1,0.2-0.1,0.4,0,0.7c0.6,1.2,1.3,3.2,0,3.6c-0.6,0.1-0.8,0.8-0.4,1.3c0.6,0.6,0.5,1,0.5,1.1     c-0.2,0.9-1.7,1.7-2.3,1.9c-0.2,0.1-0.3,0.2-0.4,0.4c-0.1,0.2-0.1,0.4,0,0.6c0.7,1.6,0.7,2.8,0.3,3.5c-1,1.4-4.1,0.8-4.1,0.8     c-5.1-1.1-8.6,4-10.1,9H8c1.3-4.4,0.7-14.3,0.4-18.6c0.5,0.5,0.9,1.2,1.6,0.8c0.2,0.4,0.3,0.7,0.8,0.7c0.1,0,0.1,0,0.2,0     c0.8-0.2,0.6-1.3,0.6-2.8c0.1,0,0.2,0,0.4,0l0.2,0.7c0.2,0.7,1.3,0.7,1.4-0.1l0.6-2.8c0.4,0.6,0.7,1.3,1.3,1.2     c0.3-0.1,0.5-0.3,0.6-0.6l0.5-2.1c0-0.2,0-0.4-0.1-0.6c-1.7-2.3-2.2-5.7-2.3-7.4c-0.3-3.3,2.8-7.4,6.5-1.6c0.2,0.3,0.6,0.4,1,0.3     l0.8-0.4l2.1,4.6c0.1,0.3,0.4,0.5,0.8,0.4c0.3,0,0.6-0.3,0.7-0.6l1.3-5.8l2.8,0.7c0.3,0.1,0.7-0.1,0.8-0.4l2.9-5.4l1.8,1.4     c0.2,0.1,0.4,0.2,0.6,0.1c0.2,0,0.4-0.2,0.5-0.3l2.4-3.6c0.1,0.6,0.1,1.3,0.7,1.4c0.3,0.1,0.6-0.1,0.8-0.3l0.4-0.7     c0.2,0.7,0.4,1.5,1,1.6c0.7,0.1,0.9-0.6,1.9-2.3l0.1,0.4c0.2,0.6,1.1,0.7,1.4,0.1l0.4,0.7c0.2,0.8,0,2.1-0.5,3.9     c-0.6,2.1-0.4,4.4,0.5,6.4l2.5,5.5c0.2,0.4,0.2,0.6,0.1,0.7C48.3,38.5,46.7,39.1,46,39.3z"></path></g></g></g></svg>