<svg height='100px' width='100px'  fill="#006cff" xmlns="http://www.w3.org/2000/svg" xmlns:xlink="http://www.w3.org/1999/xlink" version="1.1" x="0px" y="0px" viewBox="0 0 100 100" enable-background="new 0 0 100 100" xml:space="preserve"><path d="M50.9,30.3L50.9,30.3L50.9,30.3c0,0.5-0.4,0.9-0.9,0.9s-0.9-0.4-0.9-0.9l0,0l0,0c0-0.5,0.4-0.9,0.9-0.9S50.9,29.8,50.9,30.3  z M50,32c-0.5,0-0.9,0.4-0.9,0.9c0,0.5,0.4,0.9,0.9,0.9s0.9-0.4,0.9-0.9C50.9,32.3,50.5,32,50,32z M50,34.5c-0.5,0-0.9,0.4-0.9,0.9  c0,0.5,0.4,0.9,0.9,0.9s0.9-0.4,0.9-0.9C50.9,34.9,50.5,34.5,50,34.5z M50,23.5c0.5,0,0.9-0.4,0.9-0.9c0-0.5-0.4-0.9-0.9-0.9  s-0.9,0.4-0.9,0.9C49.1,23.2,49.5,23.5,50,23.5z M50,26.1c0.5,0,0.9-0.4,0.9-0.9c0-0.5-0.4-0.9-0.9-0.9s-0.9,0.4-0.9,0.9  C49.1,25.7,49.5,26.1,50,26.1z M50,28.6c0.5,0,0.9-0.4,0.9-0.9c0-0.5-0.4-0.9-0.9-0.9s-0.9,0.4-0.9,0.9C49.1,28.2,49.5,28.6,50,28.6  z M50,75.7c0.5,0,0.9-0.4,0.9-0.9s-0.4-0.9-0.9-0.9c-0.5,0-0.9,0.4-0.9,0.9S49.5,75.7,50,75.7z M50,78.2c0.5,0,0.9-0.4,0.9-0.9  c0-0.5-0.4-0.9-0.9-0.9c-0.5,0-0.9,0.4-0.9,0.9C49.1,77.8,49.5,78.2,50,78.2z M50,65.5c0.5,0,0.9-0.4,0.9-0.9c0-0.5-0.4-0.9-0.9-0.9  c-0.5,0-0.9,0.4-0.9,0.9C49.1,65.1,49.5,65.5,50,65.5z M50,68c0.5,0,0.9-0.4,0.9-0.9s-0.4-0.9-0.9-0.9c-0.5,0-0.9,0.4-0.9,0.9  S49.5,68,50,68z M50,70.6c0.5,0,0.9-0.4,0.9-0.9c0-0.5-0.4-0.9-0.9-0.9c-0.5,0-0.9,0.4-0.9,0.9C49.1,70.2,49.5,70.6,50,70.6z   M50,73.1c0.5,0,0.9-0.4,0.9-0.9l0,0l0,0c0-0.5-0.4-0.9-0.9-0.9c-0.5,0-0.9,0.4-0.9,0.9l0,0l0,0C49.1,72.7,49.5,73.1,50,73.1z   M69,61.7L69,61.7C69,61.7,69,61.7,69,61.7c0.4,0.2,0.8,0.1,1.1-0.2c0,0,0.1-0.1,0.1-0.1c0-0.1,0-0.1,0.1-0.2c0.1-0.4-0.1-0.8-0.4-1  l0,0l0,0c-0.4-0.2-1,0-1.2,0.4C68.4,60.9,68.6,61.4,69,61.7z M71.3,62.8c0.4,0.2,1,0,1.2-0.4c0.2-0.4,0-1-0.4-1.2s-1,0-1.2,0.4  C70.7,62.1,70.8,62.6,71.3,62.8z M73.5,64c0.4,0.2,1,0,1.2-0.4c0.2-0.4,0-1-0.4-1.2c-0.4-0.2-1,0-1.2,0.4  C72.9,63.2,73.1,63.7,73.5,64z M62.2,58.2c0.4,0.2,1,0,1.2-0.4c0.2-0.4,0-1-0.4-1.2c-0.4-0.2-1,0-1.2,0.4  C61.6,57.5,61.8,58,62.2,58.2z M64.5,59.4c0.4,0.2,1,0,1.2-0.4c0.2-0.4,0-1-0.4-1.2c-0.4-0.2-1,0-1.2,0.4  C63.9,58.6,64.1,59.1,64.5,59.4z M66.7,60.5c0.4,0.2,1,0,1.2-0.4c0.2-0.4,0-1-0.4-1.2c-0.4-0.2-1,0-1.2,0.4  C66.1,59.8,66.3,60.3,66.7,60.5z M28.7,62.8c0.4-0.2,0.6-0.7,0.4-1.2c-0.2-0.4-0.7-0.6-1.2-0.4c-0.4,0.2-0.6,0.7-0.4,1.2  C27.8,62.9,28.3,63,28.7,62.8z M26.5,64c0.4-0.2,0.6-0.7,0.4-1.2c-0.2-0.4-0.7-0.6-1.2-0.4c-0.4,0.2-0.6,0.7-0.4,1.2  S26,64.2,26.5,64z M37.8,58.2c0.4-0.2,0.6-0.7,0.4-1.2c-0.2-0.4-0.7-0.6-1.2-0.4c-0.4,0.2-0.6,0.7-0.4,1.2  C36.8,58.3,37.4,58.4,37.8,58.2z M35.5,59.4c0.4-0.2,0.6-0.7,0.4-1.2c-0.2-0.4-0.7-0.6-1.2-0.4s-0.6,0.7-0.4,1.2  C34.6,59.4,35.1,59.6,35.5,59.4z M33.3,60.5c0.4-0.2,0.6-0.7,0.4-1.2c-0.2-0.4-0.7-0.6-1.2-0.4c-0.4,0.2-0.6,0.7-0.4,1.2  C32.3,60.6,32.8,60.7,33.3,60.5z M31,61.7C31,61.7,31,61.7,31,61.7L31,61.7c0.4-0.2,0.6-0.7,0.4-1.2c-0.2-0.4-0.7-0.6-1.2-0.4  c0,0,0,0,0,0l0,0c-0.4,0.2-0.6,0.7-0.4,1.2C30,61.7,30.6,61.9,31,61.7z M28,38.8c0.4,0.2,1,0,1.2-0.4c0.2-0.4,0-1-0.4-1.2  c-0.4-0.2-1,0-1.2,0.4C27.4,38,27.5,38.5,28,38.8z M25.7,37.6c0.4,0.2,1,0,1.2-0.4c0.2-0.4,0-1-0.4-1.2c-0.4-0.2-1,0-1.2,0.4  C25.1,36.9,25.3,37.4,25.7,37.6z M37,43.4c0.4,0.2,1,0,1.2-0.4c0.2-0.4,0-1-0.4-1.2c-0.4-0.2-1,0-1.2,0.4  C36.4,42.6,36.6,43.1,37,43.4z M34.7,42.2c0.4,0.2,1,0,1.2-0.4c0.2-0.4,0-1-0.4-1.2c-0.4-0.2-1,0-1.2,0.4  C34.1,41.5,34.3,42,34.7,42.2z M32.5,41.1c0.4,0.2,1,0,1.2-0.4c0.2-0.4,0-1-0.4-1.2c-0.4-0.2-1,0-1.2,0.4  C31.9,40.3,32,40.8,32.5,41.1z M30.2,39.9L30.2,39.9C30.2,39.9,30.2,39.9,30.2,39.9c0.4,0.2,1,0,1.2-0.4s0-1-0.4-1.2l0,0l0,0  c-0.4-0.2-0.8-0.1-1.1,0.2c0,0-0.1,0.1-0.1,0.1c0,0.1,0,0.1-0.1,0.2C29.7,39.3,29.8,39.7,30.2,39.9z M69.8,39.9L69.8,39.9L69.8,39.9  c0.4-0.2,0.6-0.7,0.4-1.2c-0.2-0.4-0.7-0.6-1.2-0.4l0,0c0,0,0,0,0,0c-0.4,0.2-0.6,0.7-0.4,1.2C68.8,40,69.4,40.1,69.8,39.9z   M72.1,38.8c0.4-0.2,0.6-0.7,0.4-1.2c-0.2-0.4-0.7-0.6-1.2-0.4c-0.4,0.2-0.6,0.7-0.4,1.2C71.1,38.8,71.6,39,72.1,38.8z M74.3,37.6  c0.4-0.2,0.6-0.7,0.4-1.2c-0.2-0.4-0.7-0.6-1.2-0.4c-0.4,0.2-0.6,0.7-0.4,1.2C73.4,37.7,73.9,37.8,74.3,37.6z M63,43.4  c0.4-0.2,0.6-0.7,0.4-1.2c-0.2-0.4-0.7-0.6-1.2-0.4c-0.4,0.2-0.6,0.7-0.4,1.2C62.1,43.4,62.6,43.6,63,43.4z M65.3,42.2  c0.4-0.2,0.6-0.7,0.4-1.2s-0.7-0.6-1.2-0.4c-0.4,0.2-0.6,0.7-0.4,1.2C64.3,42.3,64.8,42.4,65.3,42.2z M67.5,41.1  c0.4-0.2,0.6-0.7,0.4-1.2c-0.2-0.4-0.7-0.6-1.2-0.4c-0.4,0.2-0.6,0.7-0.4,1.2C66.6,41.1,67.1,41.3,67.5,41.1z M46.7,8.5  c0.2,1.3,0.9,3.1,3.2,3.2c2.3-0.1,3-1.8,3.2-3.1c0.2,0.1,0.5,0.1,0.8-1.2c0.3-1,0.1-1.3-0.1-1.4c0.8-3.8-1-3.9-1-3.9s-0.3-0.5-1-0.9  c-0.5-0.3-1.1-0.5-2-0.4c-0.3,0-0.6,0.1-0.8,0.2l0,0c-0.3,0.1-0.6,0.3-0.9,0.5c-0.3,0.2-0.6,0.5-0.9,0.8c-0.4,0.4-0.8,1-1,1.7  c-0.2,0.6-0.2,1.3,0.1,1.9C46,5.8,45.6,6,46,7.3C46.2,8.2,46.5,8.5,46.7,8.5z M42.3,15.7c0,0,0,1.2,0.2,1.6c0,0,2.8,1.8,7.6,1.8  l0-0.1l0,0.1c4.7,0,7.6-1.8,7.6-1.8c0.2-0.5,0.2-1.6,0.2-1.6c0.1-0.8,0-2.5-1.5-2.9c-1.9-0.5-3.5-1.6-3.5-1.6l-1.2,3.9l-0.2,0.7l0,0  l-0.2,0.6l-0.6-1.8c1.6-2.3-0.4-2.2-0.4-2.2s-2.1-0.1-0.4,2.2l-0.7,1.9l-0.2-0.6l-1.5-4.6c0,0-1.6,1.1-3.5,1.6  C42.3,13.2,42.2,14.9,42.3,15.7L42.3,15.7z M46,87.3c0.3,0.9,0.5,1.2,0.7,1.2c0.2,1.3,0.9,3.1,3.2,3.2c2.3-0.1,3-1.8,3.2-3.1  c0.2,0.1,0.5,0.1,0.8-1.2c0.3-1,0.1-1.3-0.1-1.4c0.8-3.8-1-3.9-1-3.9s-0.3-0.5-1-0.9c-0.5-0.3-1.1-0.5-2-0.4c-0.3,0-0.6,0.1-0.8,0.2  l0,0c-0.3,0.1-0.6,0.3-0.9,0.5c-0.3,0.2-0.6,0.5-0.9,0.8c-0.4,0.4-0.8,1-1,1.7c-0.2,0.6-0.2,1.3,0.1,1.9C46,85.8,45.6,86,46,87.3z   M56.3,92.8c-1.9-0.5-3.5-1.6-3.5-1.6l-1.2,3.9l-0.2,0.7l0,0l-0.2,0.6l-0.6-1.8c1.6-2.3-0.4-2.2-0.4-2.2s-2.1-0.1-0.4,2.2l-0.7,1.9  l-0.2-0.6l-1.5-4.6c0,0-1.6,1.1-3.5,1.6c-1.5,0.4-1.5,2-1.5,2.9l0,0c0,0,0,1.2,0.2,1.6c0,0,2.8,1.8,7.6,1.8l0-0.1l0,0.1  c4.7,0,7.6-1.8,7.6-1.8c0.2-0.5,0.2-1.6,0.2-1.6C57.8,94.9,57.7,93.2,56.3,92.8z M80,61.9c0.3,0.9,0.5,1.2,0.7,1.2  c0.2,1.3,0.9,3.1,3.2,3.2c2.3-0.1,3-1.8,3.2-3.1c0.2,0.1,0.5,0.1,0.8-1.2c0.3-1,0.1-1.3-0.1-1.4c0.8-3.8-1-3.9-1-3.9s-0.3-0.5-1-0.9  c-0.5-0.3-1.1-0.5-2-0.4c-0.3,0-0.6,0.1-0.8,0.2l0,0c-0.3,0.1-0.6,0.3-0.9,0.5c-0.3,0.2-0.6,0.5-0.9,0.8c-0.4,0.4-0.8,1-1,1.7  c-0.2,0.6-0.2,1.3,0.1,1.9C80,60.5,79.6,60.7,80,61.9z M76.3,70.4c0,0,0,1.2,0.2,1.6c0,0,2.8,1.8,7.6,1.8l0-0.1l0,0.1  c4.7,0,7.6-1.8,7.6-1.8c0.2-0.5,0.2-1.6,0.2-1.6c0.1-0.8,0-2.5-1.5-2.9c-1.9-0.5-3.5-1.6-3.5-1.6l-1.2,3.9l-0.2,0.7l0,0l-0.2,0.6  l-0.6-1.8c1.6-2.3-0.4-2.2-0.4-2.2s-2.1-0.1-0.4,2.2l-0.7,1.9l-0.2-0.6l-1.5-4.6c0,0-1.6,1.1-3.5,1.6C76.3,67.9,76.2,69.5,76.3,70.4  L76.3,70.4z M80.7,33.8c0.2,1.3,0.9,3.1,3.2,3.2c2.3-0.1,3-1.8,3.2-3.1c0.2,0.1,0.5,0.1,0.8-1.2c0.3-1,0.1-1.3-0.1-1.4  c0.8-3.8-1-3.9-1-3.9s-0.3-0.5-1-0.9c-0.5-0.3-1.1-0.5-2-0.4c-0.3,0-0.6,0.1-0.8,0.2l0,0c-0.3,0.1-0.6,0.3-0.9,0.5  c-0.3,0.2-0.6,0.5-0.9,0.8c-0.4,0.4-0.8,1-1,1.7c-0.2,0.6-0.2,1.3,0.1,1.9c-0.3,0-0.7,0.2-0.3,1.4C80.2,33.6,80.5,33.8,80.7,33.8z   M76.3,41.1c0,0,0,1.2,0.2,1.6c0,0,2.8,1.8,7.6,1.8l0-0.1l0,0.1c4.7,0,7.6-1.8,7.6-1.8c0.2-0.5,0.2-1.6,0.2-1.6  c0.1-0.8,0-2.5-1.5-2.9c-1.9-0.5-3.5-1.6-3.5-1.6l-1.2,3.9l-0.2,0.7l0,0l-0.2,0.6L84.4,40c1.6-2.3-0.4-2.2-0.4-2.2s-2.1-0.1-0.4,2.2  l-0.7,1.9l-0.2-0.6l-1.5-4.6c0,0-1.6,1.1-3.5,1.6C76.3,38.6,76.2,40.3,76.3,41.1L76.3,41.1z M12,61.9c0.3,0.9,0.5,1.2,0.7,1.2  c0.2,1.3,0.9,3.1,3.2,3.2c2.3-0.1,3-1.8,3.2-3.1c0.2,0.1,0.5,0.1,0.8-1.2c0.3-1,0.1-1.3-0.1-1.4c0.8-3.8-1-3.9-1-3.9s-0.3-0.5-1-0.9  c-0.5-0.3-1.1-0.5-2-0.4c-0.3,0-0.6,0.1-0.8,0.2l0,0c-0.3,0.1-0.6,0.3-0.9,0.5c-0.3,0.2-0.6,0.5-0.9,0.8c-0.4,0.4-0.8,1-1,1.7  c-0.2,0.6-0.2,1.3,0.1,1.9C12,60.5,11.6,60.7,12,61.9z M8.3,70.4c0,0,0,1.2,0.2,1.6c0,0,2.8,1.8,7.6,1.8l0-0.1l0,0.1  c4.7,0,7.6-1.8,7.6-1.8c0.2-0.5,0.2-1.6,0.2-1.6c0.1-0.8,0-2.5-1.5-2.9c-1.9-0.5-3.5-1.6-3.5-1.6l-1.2,3.9l-0.2,0.7l0,0l-0.2,0.6  l-0.6-1.8c1.6-2.3-0.4-2.2-0.4-2.2s-2.1-0.1-0.4,2.2l-0.7,1.9l-0.2-0.6l-1.5-4.6c0,0-1.6,1.1-3.5,1.6C8.3,67.9,8.2,69.5,8.3,70.4  L8.3,70.4z M12.7,33.8c0.2,1.3,0.9,3.1,3.2,3.2c2.3-0.1,3-1.8,3.2-3.1c0.2,0.1,0.5,0.1,0.8-1.2c0.3-1,0.1-1.3-0.1-1.4  c0.8-3.8-1-3.9-1-3.9s-0.3-0.5-1-0.9c-0.5-0.3-1.1-0.5-2-0.4c-0.3,0-0.6,0.1-0.8,0.2l0,0c-0.3,0.1-0.6,0.3-0.9,0.5  c-0.3,0.2-0.6,0.5-0.9,0.8c-0.4,0.4-0.8,1-1,1.7c-0.2,0.6-0.2,1.3,0.1,1.9c-0.3,0-0.7,0.2-0.3,1.4C12.2,33.6,12.5,33.8,12.7,33.8z   M8.3,41.1c0,0,0,1.2,0.2,1.6c0,0,2.8,1.8,7.6,1.8l0-0.1l0,0.1c4.7,0,7.6-1.8,7.6-1.8c0.2-0.5,0.2-1.6,0.2-1.6  c0.1-0.8,0-2.5-1.5-2.9c-1.9-0.5-3.5-1.6-3.5-1.6l-1.2,3.9l-0.2,0.7l0,0l-0.2,0.6L16.4,40c1.6-2.3-0.4-2.2-0.4-2.2s-2.1-0.1-0.4,2.2  l-0.7,1.9l-0.2-0.6l-1.5-4.6c0,0-1.6,1.1-3.5,1.6C8.3,38.6,8.2,40.3,8.3,41.1L8.3,41.1z M42.8,56.3c-3.3-3.8-3.2-9.5,0.4-13.1  c3.7-3.7,9.8-3.7,13.5,0c3.7,3.7,3.7,9.8,0,13.5c-3.1,3.1-7.9,3.6-11.6,1.5l0,0c-1.4,1.1-3,1.3-4.1,1.1c-0.4-0.1-0.4-0.5-0.1-0.7  C41.9,58.2,42.6,57.2,42.8,56.3L42.8,56.3z M52.9,50c0,0.7,0.6,1.2,1.2,1.2c0.7,0,1.2-0.6,1.2-1.2c0-0.7-0.6-1.2-1.2-1.2  S52.9,49.3,52.9,50z M48.8,50c0,0.7,0.6,1.2,1.2,1.2s1.2-0.6,1.2-1.2c0-0.7-0.6-1.2-1.2-1.2S48.8,49.3,48.8,50z M44.6,50  c0,0.7,0.6,1.2,1.2,1.2s1.2-0.6,1.2-1.2c0-0.7-0.6-1.2-1.2-1.2S44.6,49.3,44.6,50z"></path></svg>