<svg height='100px' width='100px'  fill="#006cff" xmlns="http://www.w3.org/2000/svg" xmlns:xlink="http://www.w3.org/1999/xlink" version="1.1" x="0px" y="0px" viewBox="0 0 68 68" style="enable-background:new 0 0 68 68;" xml:space="preserve"><style type="text/css">
	.st0{fill:#006cff;}
</style><g><g><path class="st0" d="M62.9,19.5h-1.1c-2.2,0-4.1,1.8-4.1,4.1v28.1c0,0,0,0.2,0,0.2l3.6,14.2c0.1,0.4,0.5,0.8,1,0.8s0.9-0.3,1-0.8    L67,51.9c0,0,0-0.2,0-0.2V23.6C67,21.3,65.2,19.5,62.9,19.5z M59.8,28.8H65v21.8h-5.2V28.8z M61.8,21.5h1.1c1.1,0,2.1,0.9,2.1,2.1    v3.3h-5.2v-3.3C59.8,22.4,60.7,21.5,61.8,21.5z M62.4,61.8L60,52.7h4.7L62.4,61.8z"></path></g><g><path class="st0" d="M51.3,10.3h-8.8V7.9c0-0.6-0.4-1-1-1h-3.9V6.1c0-2.8-2.5-5.1-5.6-5.1h-8c-3.1,0-5.6,2.3-5.6,5.1v0.7h-3.8    c-0.6,0-1,0.4-1,1v2.4H4.9c-2.1,0-3.9,1.6-3.9,3.6v49.5c0,2,1.7,3.6,3.9,3.6h46.4c2.1,0,3.9-1.6,3.9-3.6V13.9    C55.2,11.9,53.5,10.3,51.3,10.3z M20.5,6.1c0-1.7,1.6-3.1,3.6-3.1h8c2,0,3.6,1.4,3.6,3.1v0.7H20.5V6.1z M40.6,8.9v5.4H15.7    c0-2,0-3.3,0-5.4C35.9,8.9,36.6,8.9,40.6,8.9z M53.2,63.4c0,0.9-0.9,1.6-1.9,1.6H4.9c-1,0-1.9-0.7-1.9-1.6V13.9    c0-0.9,0.9-1.6,1.9-1.6h8.8v2.9c0,0.6,0.4,1,1,1h26.9c0.6,0,1-0.4,1-1v-2.9h8.8c1,0,1.9,0.7,1.9,1.6V63.4z"></path></g><g><path class="st0" d="M7.4,34.9h11.9c0.6,0,1-0.4,1-1v-4c0-0.6-0.4-1-1-1c-0.6,0-1,0.4-1,1v3H8.4v-10h10.9c0.6,0,1-0.4,1-1    c0-0.6-0.4-1-1-1H7.4c-0.6,0-1,0.4-1,1v12C6.4,34.4,6.8,34.9,7.4,34.9z"></path></g><g><path class="st0" d="M19.3,24.6L13.2,29l-1.4-2.8c-0.2-0.5-0.8-0.7-1.3-0.4c-0.5,0.2-0.7,0.8-0.4,1.3l1.9,3.9    c0.1,0.3,0.4,0.5,0.7,0.5c0.3,0.1,0.6,0,0.8-0.2l7.1-5.1c0.4-0.3,0.5-0.9,0.2-1.4C20.3,24.3,19.7,24.2,19.3,24.6z"></path></g><g><path class="st0" d="M38.9,20.7c-5.5,0.3-10,4.8-10.5,10.4c-0.3,3.4,0.9,6.7,3.2,9.1c1.6,1.6,2.6,3.7,2.9,5.9l-0.5,0    c-0.9,0-1.6,0.7-1.6,1.6l0,3.8c0,0.9,0.7,1.6,1.6,1.6c0,0,0,0,0,0l2.1,0l0,0.8l-0.9,0c-0.6,0-1,0.5-1,1c0,0.6,0.5,1,1,1    c0,0,0,0,0,0l1,0c0.3,1.2,1.4,2.1,2.7,2.1c0,0,0,0,0,0l1.4,0c1.3,0,2.4-0.9,2.7-2.1l1,0c0.6,0,1-0.5,1-1c0-0.6-0.5-1-1-1    c0,0,0,0,0,0l-0.9,0l0-0.8l2.1,0c0.4,0,0.8-0.2,1.1-0.5c0.3-0.3,0.5-0.7,0.5-1.1l0-3.8c0-0.9-0.7-1.6-1.6-1.6l-0.5,0    c0.3-2.2,1.3-4.3,2.9-6c2-2.2,3.1-5,3.1-8C50.7,25.6,45.3,20.3,38.9,20.7z M41.2,55.1c0,0.5-0.4,0.9-0.8,0.9l-1.4,0h0    c-0.4,0-0.8-0.4-0.8-0.9l0-2.1l1.5,0l1.5,0L41.2,55.1z M44.8,51l-3.3,0c0,0,0,0,0,0l-1.9,0l-5.3,0l0-3L44.8,48L44.8,51z     M46.2,38.7c-1.9,2-3.1,4.6-3.4,7.4l-2.2,0l0-10.5c0-0.6-0.4-1-1-1c0,0,0,0,0,0c-0.6,0-1,0.5-1,1l0,10.5l-2.1,0    c-0.3-2.7-1.5-5.3-3.5-7.3c-1.9-2-2.9-4.7-2.6-7.5c0.4-4.6,4.1-8.3,8.6-8.6c0.2,0,0.4,0,0.6,0c5,0,9.2,4.2,9.2,9.4    C48.8,34.6,47.8,36.9,46.2,38.7z"></path></g><g><path class="st0" d="M39.5,27.8C39.5,27.8,39.5,27.8,39.5,27.8c-0.6,0-1,0.5-1,1l0,2.7c0,0.6,0.5,1,1,1c0,0,0,0,0,0    c0.6,0,1-0.5,1-1l0-2.7C40.5,28.2,40,27.8,39.5,27.8z"></path></g><g><path class="st0" d="M35,31c-0.4-0.4-1-0.4-1.4,0c-0.4,0.4-0.4,1,0,1.4l1.9,2c0.4,0.4,1,0.4,1.4,0c0.4-0.4,0.4-1,0-1.4L35,31z"></path></g><g><path class="st0" d="M44,31l-1.9,2c-0.4,0.4-0.4,1,0,1.4c0.4,0.4,1,0.4,1.4,0l1.9-2c0.4-0.4,0.4-1,0-1.4C45,30.6,44.3,30.6,44,31z    "></path></g><g><path class="st0" d="M6.9,40.7h20.2c0.6,0,1-0.4,1-1c0-0.6-0.4-1-1-1H6.9c-0.6,0-1,0.4-1,1C5.9,40.2,6.3,40.7,6.9,40.7z"></path></g><g><path class="st0" d="M6.9,47.6h20.2c0.6,0,1-0.4,1-1c0-0.6-0.4-1-1-1H6.9c-0.6,0-1,0.4-1,1C5.9,47.2,6.3,47.6,6.9,47.6z"></path></g><g><path class="st0" d="M6.9,54.5h20.2c0.6,0,1-0.4,1-1c0-0.6-0.4-1-1-1H6.9c-0.6,0-1,0.4-1,1C5.9,54.1,6.3,54.5,6.9,54.5z"></path></g><g><path class="st0" d="M49.3,59.5H6.9c-0.6,0-1,0.4-1,1c0,0.6,0.4,1,1,1h42.4c0.6,0,1-0.4,1-1C50.3,59.9,49.8,59.5,49.3,59.5z"></path></g></g></svg>