<svg height='100px' width='100px'  fill="#006cff" xmlns="http://www.w3.org/2000/svg" xmlns:xlink="http://www.w3.org/1999/xlink" version="1.1" x="0px" y="0px" viewBox="0 0 100 100" enable-background="new 0 0 100 100" xml:space="preserve"><g><path d="M8,42.1c2.1-2.1,0.8-4.4-1.5-4.5c-3.8-0.2-6-4.3-2.9-7.7c3.4-3.1,7.5-0.9,7.7,2.9c0.1,2.3,2.4,3.6,4.5,1.5l5.1-5.1   c1.5-1.5,4-1.5,5.5,0l5.1,5.1c2.1,2.1,4.4,0.8,4.5-1.5c0.2-3.8,4.3-6,7.7-2.8c3.1,3.4,1,7.5-2.9,7.7c-2.3,0.1-3.6,2.4-1.5,4.5   l5.2,5.2c1.5,1.5,1.5,4,0,5.5l-0.1,0.1c0,0,0,0,0,0l-3.7,3.7c-0.4-1.2-1.1-2.4-2-3.3c-3.2-3.2-8-3.1-11.5,0.2l-0.1,0.1l-0.1,0.1   c-3.3,3.5-3.3,8.4-0.2,11.5c0.9,0.9,2,1.6,3.3,2l-3.6,3.6c-1.6,1.5-4.1,1.5-5.6,0l-5.1-5.1c-2.1-2.1-4.4-0.8-4.5,1.5   C11.1,71,7,73.1,3.6,70c-3.1-3.4-1-7.5,2.8-7.7c2.3-0.1,3.6-2.4,1.5-4.5l-5.1-5.1c-1.5-1.5-1.5-4,0-5.5L8,42.1z M29.2,20.9   c-1.5,1.5-1.6,4.1,0,5.6l3.6,3.6c0.4-1.2,1.1-2.4,2-3.3c3.2-3.2,8-3.1,11.5,0.2l0.1,0.1l0.1,0.1c3.3,3.5,3.3,8.4,0.2,11.5   c-0.9,0.9-2,1.6-3.3,2l3.7,3.7c0,0,0,0,0,0l0.1,0.1c1.5,1.5,4,1.5,5.5,0l5.2-5.2c2.1-2.1,4.4-0.8,4.5,1.5c0.2,3.8,4.3,6,7.7,2.9   c3.1-3.4,1-7.5-2.8-7.7c-2.3-0.1-3.6-2.4-1.5-4.5l5.1-5.1c1.5-1.5,1.5-4,0-5.5l-5.1-5.1c-2.1-2.1-0.8-4.4,1.5-4.5   c3.8-0.2,6-4.3,2.9-7.7c-3.4-3.1-7.5-1-7.7,2.9c-0.1,2.3-2.4,3.6-4.5,1.5l-5.1-5.1c-1.5-1.5-4-1.5-5.5,0l-5.1,5.1   c-2.1,2.1-4.3,0.9-4.5-1.5c-0.2-3.8-4.3-6-7.7-2.8c-3.1,3.4-1,7.5,2.8,7.7c2.3,0.1,3.6,2.4,1.5,4.5L29.2,20.9z M73.1,34.7   c3.2,3.2,3.1,8-0.2,11.5l-0.1,0.1l-0.1,0.1c-3.5,3.3-8.4,3.3-11.5,0.2c-0.9-0.9-1.6-2-2-3.3l-3.7,3.7c0,0,0,0,0,0l-0.1,0.1   c-1.5,1.5-1.5,4,0,5.5l5.2,5.2c2.1,2.1,0.8,4.4-1.5,4.5c-3.8,0.2-6,4.3-2.9,7.7c3.4,3.1,7.5,1,7.7-2.8c0.1-2.3,2.4-3.6,4.5-1.5   l5.1,5.1c1.5,1.5,4,1.5,5.5,0l5.1-5.1c2.1-2.1,4.4-0.8,4.5,1.5c0.2,3.8,4.3,6,7.7,2.9c3.1-3.4,1-7.5-2.9-7.7   c-2.3-0.1-3.6-2.4-1.5-4.5l5.1-5.1c1.5-1.5,1.5-4,0-5.5l-5.1-5.1c-2.1-2.1-0.9-4.3,1.5-4.5c3.8-0.2,6-4.3,2.8-7.7   c-3.4-3.1-7.5-1-7.7,2.8c-0.1,2.3-2.4,3.6-4.5,1.5l-5.1-5.1c-1.5-1.5-4.1-1.5-5.6,0l-3.6,3.6C71.1,33.1,72.2,33.8,73.1,34.7z    M32.7,88.7c-3.8,0.2-6,4.3-2.9,7.7c3.4,3.1,7.5,1,7.7-2.9c0.1-2.3,2.4-3.6,4.5-1.5l5.1,5.1c1.5,1.5,4,1.5,5.5,0l5.1-5.1   c2.1-2.1,4.3-0.9,4.5,1.5c0.2,3.8,4.3,6,7.7,2.8c3.1-3.4,1-7.5-2.8-7.7c-2.3-0.1-3.6-2.4-1.5-4.5l5.1-5.1c1.5-1.5,1.5-4.1,0-5.6   l-3.6-3.6c-0.4,1.2-1.1,2.4-2,3.3c-3.2,3.2-8,3.1-11.5-0.2l-0.1-0.1l-0.1-0.1c-3.3-3.5-3.3-8.4-0.2-11.5c0.9-0.9,2-1.6,3.3-2   l-3.7-3.7c0,0,0,0,0,0l-0.1-0.1c-1.5-1.5-4-1.5-5.5,0L42,60.6c-2.1,2.1-4.4,0.8-4.5-1.5c-0.2-3.8-4.3-6-7.7-2.9   c-3.1,3.4-1,7.5,2.8,7.7c2.3,0.1,3.6,2.4,1.5,4.5L29,73.5c-1.5,1.5-1.5,4,0,5.5l5.1,5.1C36.3,86.3,35,88.6,32.7,88.7z"></path></g></svg>