<svg xmlns="http://www.w3.org/2000/svg" xmlns:xlink="http://www.w3.org/1999/xlink" width="1024" height="768" viewBox="0 0 1024 768">
  <defs>
    <filter id="Path_820" x="26.47" y="40" width="163.286" height="163.291" filterUnits="userSpaceOnUse">
      <feOffset input="SourceAlpha"/>
      <feGaussianBlur stdDeviation="7" result="blur"/>
      <feFlood flood-color="#9a9a9a"/>
      <feComposite operator="in" in2="blur"/>
      <feComposite in="SourceGraphic"/>
    </filter>
    <filter id="Rectangle_456" x="117" y="341" width="215" height="201" filterUnits="userSpaceOnUse">
      <feOffset input="SourceAlpha"/>
      <feGaussianBlur stdDeviation="12" result="blur-2"/>
      <feFlood flood-color="#d8d8d8"/>
      <feComposite operator="in" in2="blur-2"/>
      <feComposite in="SourceGraphic"/>
    </filter>
    <filter id="Rectangle_561" x="117" y="496" width="215" height="201" filterUnits="userSpaceOnUse">
      <feOffset input="SourceAlpha"/>
      <feGaussianBlur stdDeviation="12" result="blur-3"/>
      <feFlood flood-color="#d8d8d8"/>
      <feComposite operator="in" in2="blur-3"/>
      <feComposite in="SourceGraphic"/>
    </filter>
    <filter id="Rectangle_457" x="327.5" y="363.5" width="170" height="156" filterUnits="userSpaceOnUse">
      <feOffset input="SourceAlpha"/>
      <feGaussianBlur stdDeviation="4.5" result="blur-4"/>
      <feFlood flood-color="#e5e5e5"/>
      <feComposite operator="in" in2="blur-4"/>
      <feComposite in="SourceGraphic"/>
    </filter>
    <filter id="Rectangle_560" x="327.5" y="518.5" width="170" height="156" filterUnits="userSpaceOnUse">
      <feOffset input="SourceAlpha"/>
      <feGaussianBlur stdDeviation="4.5" result="blur-5"/>
      <feFlood flood-color="#e5e5e5"/>
      <feComposite operator="in" in2="blur-5"/>
      <feComposite in="SourceGraphic"/>
    </filter>
    <filter id="Rectangle_456-2" x="495" y="341" width="215" height="201" filterUnits="userSpaceOnUse">
      <feOffset input="SourceAlpha"/>
      <feGaussianBlur stdDeviation="12" result="blur-6"/>
      <feFlood flood-color="#d8d8d8"/>
      <feComposite operator="in" in2="blur-6"/>
      <feComposite in="SourceGraphic"/>
    </filter>
    <filter id="Rectangle_559" x="495" y="496" width="215" height="201" filterUnits="userSpaceOnUse">
      <feOffset input="SourceAlpha"/>
      <feGaussianBlur stdDeviation="12" result="blur-7"/>
      <feFlood flood-color="#d8d8d8"/>
      <feComposite operator="in" in2="blur-7"/>
      <feComposite in="SourceGraphic"/>
    </filter>
    <filter id="Rectangle_457-2" x="705.5" y="363.5" width="170" height="156" filterUnits="userSpaceOnUse">
      <feOffset input="SourceAlpha"/>
      <feGaussianBlur stdDeviation="4.5" result="blur-8"/>
      <feFlood flood-color="#e5e5e5"/>
      <feComposite operator="in" in2="blur-8"/>
      <feComposite in="SourceGraphic"/>
    </filter>
    <filter id="Rectangle_558" x="705.5" y="518.5" width="170" height="156" filterUnits="userSpaceOnUse">
      <feOffset input="SourceAlpha"/>
      <feGaussianBlur stdDeviation="4.5" result="blur-9"/>
      <feFlood flood-color="#e5e5e5"/>
      <feComposite operator="in" in2="blur-9"/>
      <feComposite in="SourceGraphic"/>
    </filter>
    <filter id="Path_820-2" x="144.953" y="397.494" width="100.542" height="100.544" filterUnits="userSpaceOnUse">
      <feOffset input="SourceAlpha"/>
      <feGaussianBlur stdDeviation="7" result="blur-10"/>
      <feFlood flood-color="#9a9a9a"/>
      <feComposite operator="in" in2="blur-10"/>
      <feComposite in="SourceGraphic"/>
    </filter>
    <filter id="Path_820-3" x="144.953" y="552.494" width="100.542" height="100.544" filterUnits="userSpaceOnUse">
      <feOffset input="SourceAlpha"/>
      <feGaussianBlur stdDeviation="7" result="blur-11"/>
      <feFlood flood-color="#9a9a9a"/>
      <feComposite operator="in" in2="blur-11"/>
      <feComposite in="SourceGraphic"/>
    </filter>
    <filter id="Path_820-4" x="334.753" y="392.494" width="100.542" height="100.544" filterUnits="userSpaceOnUse">
      <feOffset input="SourceAlpha"/>
      <feGaussianBlur stdDeviation="7" result="blur-12"/>
      <feFlood flood-color="#9a9a9a"/>
      <feComposite operator="in" in2="blur-12"/>
      <feComposite in="SourceGraphic"/>
    </filter>
    <filter id="Path_820-5" x="334.753" y="547.494" width="100.542" height="100.544" filterUnits="userSpaceOnUse">
      <feOffset input="SourceAlpha"/>
      <feGaussianBlur stdDeviation="7" result="blur-13"/>
      <feFlood flood-color="#9a9a9a"/>
      <feComposite operator="in" in2="blur-13"/>
      <feComposite in="SourceGraphic"/>
    </filter>
    <filter id="Path_820-6" x="518.871" y="394.494" width="100.542" height="100.544" filterUnits="userSpaceOnUse">
      <feOffset input="SourceAlpha"/>
      <feGaussianBlur stdDeviation="7" result="blur-14"/>
      <feFlood flood-color="#9a9a9a"/>
      <feComposite operator="in" in2="blur-14"/>
      <feComposite in="SourceGraphic"/>
    </filter>
    <filter id="Path_820-7" x="518.871" y="549.494" width="100.542" height="100.544" filterUnits="userSpaceOnUse">
      <feOffset input="SourceAlpha"/>
      <feGaussianBlur stdDeviation="7" result="blur-15"/>
      <feFlood flood-color="#9a9a9a"/>
      <feComposite operator="in" in2="blur-15"/>
      <feComposite in="SourceGraphic"/>
    </filter>
    <filter id="Path_820-8" x="708.053" y="397.494" width="100.542" height="100.544" filterUnits="userSpaceOnUse">
      <feOffset input="SourceAlpha"/>
      <feGaussianBlur stdDeviation="7" result="blur-16"/>
      <feFlood flood-color="#9a9a9a"/>
      <feComposite operator="in" in2="blur-16"/>
      <feComposite in="SourceGraphic"/>
    </filter>
    <filter id="Path_820-9" x="708.053" y="552.494" width="100.542" height="100.544" filterUnits="userSpaceOnUse">
      <feOffset input="SourceAlpha"/>
      <feGaussianBlur stdDeviation="7" result="blur-17"/>
      <feFlood flood-color="#9a9a9a"/>
      <feComposite operator="in" in2="blur-17"/>
      <feComposite in="SourceGraphic"/>
    </filter>
    <filter id="Customised_date_range" x="739" y="60" width="294" height="40" filterUnits="userSpaceOnUse">
      <feOffset dy="3" input="SourceAlpha"/>
      <feGaussianBlur stdDeviation="3" result="blur-18"/>
      <feFlood flood-opacity="0.161"/>
      <feComposite operator="in" in2="blur-18"/>
      <feComposite in="SourceGraphic"/>
    </filter>
    <filter id="Rectangle_556" x="432" y="284" width="167" height="58" filterUnits="userSpaceOnUse">
      <feOffset input="SourceAlpha"/>
      <feGaussianBlur stdDeviation="6" result="blur-19"/>
      <feFlood flood-color="#cbcbcb"/>
      <feComposite operator="in" in2="blur-19"/>
      <feComposite in="SourceGraphic"/>
    </filter>
    <clipPath id="clip-P2p_-_CSM">
      <rect width="1024" height="768"/>
    </clipPath>
  </defs>
  <g id="P2p_-_CSM" data-name="P2p - CSM" clip-path="url(#clip-P2p_-_CSM)">
    <rect id="Rectangle_460" data-name="Rectangle 460" width="1024" height="164" transform="translate(0 40)" fill="#f8f8f8"/>
    <rect id="Rectangle_547" data-name="Rectangle 547" width="253" height="33" rx="16.5" transform="translate(730 61)" fill="#0093dd"/>
    <rect id="Rectangle_424" data-name="Rectangle 424" width="1024" height="40" fill="#16325c"/>
    <g id="Group_304" data-name="Group 304" transform="translate(47.47 61)">
      <g transform="matrix(1, 0, 0, 1, -47.47, -61)" filter="url(#Path_820)">
        <path id="Path_820-10" data-name="Path 820" d="M383.286,172.643a60.439,60.439,0,0,1-4.884,23.88l-.2.463a60.743,60.743,0,0,1-66.081,35.39q-.546-.1-1.091-.2a60.1,60.1,0,0,1-10.969-3.235q-.864-.347-1.715-.719c-.388-.169-.775-.343-1.159-.522a60.649,60.649,0,1,1,86.1-55.056Z" transform="translate(-214.53 -51)" fill="#0093dd"/>
      </g>
      <path id="Path_823" data-name="Path 823" d="M482.353,302.838a23.978,23.978,0,0,0,1.382,12.307,21.854,21.854,0,0,0,4.146-23.388A23.978,23.978,0,0,0,482.353,302.838Z" transform="translate(-442.574 -259.504)" opacity="0.2"/>
      <path id="Path_831" data-name="Path 831" d="M23.642,0A23.642,23.642,0,1,1,0,23.642,23.642,23.642,0,0,1,23.642,0Z" transform="translate(36.877 26.789)" fill="#f8f8f8"/>
      <path id="Path_826" data-name="Path 826" d="M547.833,460.175s2.955,14.037,2.955,15.515,14.037,8.127,14.037,8.127l12.56-2.216,4.433-13.3s-7.388-11.082-7.388-15.515Z" transform="translate(-496.55 -391.644)" fill="#f8f8f8"/>
      <path id="Path_827" data-name="Path 827" d="M481.172,529.089l-.2.463a60.743,60.743,0,0,1-66.081,35.39q-.546-.1-1.091-.2a60.107,60.107,0,0,1-10.97-3.235q-.864-.347-1.715-.72c-.388-.169-.775-.343-1.159-.522a60.568,60.568,0,0,1-9.913-5.792l-2.8-8.129,1.575-1.2,3.24-2.474,3.457-2.639.9-.687,13.566-10.356,1-.764,7.051-5.383,0,0s7.625,12.425,18.708,8.731a15.282,15.282,0,0,0,10.84-14.287Z" transform="translate(-364.77 -444.566)" fill="#2f2e41"/>
      <path id="Path_828" data-name="Path 828" d="M459.605,227.127s7.506-16.263,21.893-12.51,22.519,9.383,23.144,15.012-.313,14.074-.313,14.074-1.564-11.572-11.572-9.07-25.646.626-25.646.626l-2.5,22.519s-2.815-4.066-5.942-1.564S449.6,232.131,459.605,227.127Z" transform="translate(-419.589 -195.744)" fill="#2f2e41"/>
      <path id="Path_829" data-name="Path 829" d="M389.109,694.433q-.864-.347-1.715-.719c-.388-.169-.775-.343-1.159-.522a60.793,60.793,0,0,1-15.715-10.532,21.26,21.26,0,0,1,3-3.389H384.6l1.661,5.587Z" transform="translate(-351.05 -577.492)" fill="#2f2e41"/>
      <path id="Path_830" data-name="Path 830" d="M853.576,576.32,863.084,578A60.636,60.636,0,0,1,852.9,593.89Z" transform="translate(-746.882 -493.013)" fill="#2f2e41"/>
    </g>
    <g transform="matrix(1, 0, 0, 1, 0, 0)" filter="url(#Rectangle_456)">
      <rect id="Rectangle_456-3" data-name="Rectangle 456" width="143" height="129" rx="15" transform="translate(153 377)" fill="#fff"/>
    </g>
    <g transform="matrix(1, 0, 0, 1, 0, 0)" filter="url(#Rectangle_561)">
      <rect id="Rectangle_561-2" data-name="Rectangle 561" width="143" height="129" rx="15" transform="translate(153 532)" fill="#fff"/>
    </g>
    <path id="Rectangle_458" data-name="Rectangle 458" d="M15,0H128a15,15,0,0,1,15,15v7a0,0,0,0,1,0,0H0a0,0,0,0,1,0,0V15A15,15,0,0,1,15,0Z" transform="translate(153 377)" fill="#0093dd"/>
    <path id="Path_879" data-name="Path 879" d="M15,0H128a15,15,0,0,1,15,15v7H0V15A15,15,0,0,1,15,0Z" transform="translate(153 532)" fill="#ffd246"/>
    <g transform="matrix(1, 0, 0, 1, 0, 0)" filter="url(#Rectangle_457)">
      <rect id="Rectangle_457-3" data-name="Rectangle 457" width="143" height="129" rx="15" transform="translate(341 377)" fill="#fff"/>
    </g>
    <g transform="matrix(1, 0, 0, 1, 0, 0)" filter="url(#Rectangle_560)">
      <rect id="Rectangle_560-2" data-name="Rectangle 560" width="143" height="129" rx="15" transform="translate(341 532)" fill="#fff"/>
    </g>
    <path id="Rectangle_459" data-name="Rectangle 459" d="M15,0H128a15,15,0,0,1,15,15v7a0,0,0,0,1,0,0H0a0,0,0,0,1,0,0V15A15,15,0,0,1,15,0Z" transform="translate(341 377)" fill="#f22f00"/>
    <path id="Rectangle_563" data-name="Rectangle 563" d="M15,0H128a15,15,0,0,1,15,15v7a0,0,0,0,1,0,0H0a0,0,0,0,1,0,0V15A15,15,0,0,1,15,0Z" transform="translate(341 532)" fill="#f22f00"/>
    <g transform="matrix(1, 0, 0, 1, 0, 0)" filter="url(#Rectangle_456-2)">
      <rect id="Rectangle_456-4" data-name="Rectangle 456" width="143" height="129" rx="15" transform="translate(531 377)" fill="#fff"/>
    </g>
    <g transform="matrix(1, 0, 0, 1, 0, 0)" filter="url(#Rectangle_559)">
      <rect id="Rectangle_559-2" data-name="Rectangle 559" width="143" height="129" rx="15" transform="translate(531 532)" fill="#fff"/>
    </g>
    <path id="Rectangle_458-2" data-name="Rectangle 458" d="M15,0H128a15,15,0,0,1,15,15v7a0,0,0,0,1,0,0H0a0,0,0,0,1,0,0V15A15,15,0,0,1,15,0Z" transform="translate(531 377)" fill="#0093dd"/>
    <path id="Rectangle_564" data-name="Rectangle 564" d="M15,0H128a15,15,0,0,1,15,15v7a0,0,0,0,1,0,0H0a0,0,0,0,1,0,0V15A15,15,0,0,1,15,0Z" transform="translate(531 532)" fill="#0093dd"/>
    <g transform="matrix(1, 0, 0, 1, 0, 0)" filter="url(#Rectangle_457-2)">
      <rect id="Rectangle_457-4" data-name="Rectangle 457" width="143" height="129" rx="15" transform="translate(719 377)" fill="#fff"/>
    </g>
    <g transform="matrix(1, 0, 0, 1, 0, 0)" filter="url(#Rectangle_558)">
      <rect id="Rectangle_558-2" data-name="Rectangle 558" width="143" height="129" rx="15" transform="translate(719 532)" fill="#fff"/>
    </g>
    <path id="Rectangle_459-2" data-name="Rectangle 459" d="M15,0H128a15,15,0,0,1,15,15v7a0,0,0,0,1,0,0H0a0,0,0,0,1,0,0V15A15,15,0,0,1,15,0Z" transform="translate(719 377)" fill="#0093dd"/>
    <path id="Path_878" data-name="Path 878" d="M15,0H128a15,15,0,0,1,15,15v7H0V15A15,15,0,0,1,15,0Z" transform="translate(719 532)" fill="#ffd246"/>
    <g id="Group_305" data-name="Group 305" transform="translate(165.953 418.494)">
      <g transform="matrix(1, 0, 0, 1, -165.95, -418.49)" filter="url(#Path_820-2)">
        <path id="Path_820-11" data-name="Path 820" d="M320.543,141.271a29.173,29.173,0,0,1-2.357,11.527l-.1.223a29.32,29.32,0,0,1-31.9,17.082q-.264-.047-.527-.1a29.009,29.009,0,0,1-5.295-1.561q-.417-.168-.828-.347c-.187-.081-.374-.165-.56-.252a29.274,29.274,0,1,1,41.559-26.574Z" transform="translate(-96.05 306.49)" fill="#f8f8f8"/>
      </g>
      <path id="Path_823-2" data-name="Path 823" d="M482.2,297.1a11.573,11.573,0,0,0,.667,5.94,10.548,10.548,0,0,0,2-11.289A11.574,11.574,0,0,0,482.2,297.1Z" transform="translate(-462.999 -276.189)" opacity="0.2"/>
      <path id="Path_831-2" data-name="Path 831" d="M11.411,0A11.411,11.411,0,1,1,0,11.411,11.411,11.411,0,0,1,11.411,0Z" transform="translate(17.8 12.93)" fill="#f8f8f8"/>
      <path id="Path_826-2" data-name="Path 826" d="M547.833,456.353s1.426,6.776,1.426,7.489,6.776,3.923,6.776,3.923l6.062-1.07,2.14-6.419s-3.566-5.349-3.566-7.489Z" transform="translate(-523.08 -423.275)" fill="#f8f8f8"/>
      <path id="Path_827-2" data-name="Path 827" d="M432.579,522.98l-.1.223a29.32,29.32,0,0,1-31.9,17.082q-.264-.047-.526-.1a29.012,29.012,0,0,1-5.295-1.561q-.417-.168-.828-.347c-.187-.081-.374-.165-.559-.252a29.236,29.236,0,0,1-4.785-2.8l-1.353-3.924.76-.58,1.564-1.194,1.669-1.274.434-.332,6.548-5,.483-.369,3.4-2.6h0s3.681,6,9.03,4.214a7.376,7.376,0,0,0,5.232-6.9Z" transform="translate(-376.394 -482.182)" fill="#2f2e41"/>
      <path id="Path_828-2" data-name="Path 828" d="M456.729,220.364s3.623-7.85,10.567-6.038,10.869,4.529,11.171,7.246a38.774,38.774,0,0,1-.151,6.793s-.755-5.586-5.586-4.378-12.379.3-12.379.3l-1.208,10.869s-1.359-1.963-2.868-.755S451.9,222.78,456.729,220.364Z" transform="translate(-437.414 -205.216)" fill="#2f2e41"/>
      <path id="Path_829-2" data-name="Path 829" d="M379.493,686.589q-.417-.168-.828-.347c-.187-.081-.374-.165-.56-.252a29.346,29.346,0,0,1-7.585-5.083,10.264,10.264,0,0,1,1.448-1.636h5.349l.8,2.7Z" transform="translate(-361.122 -630.144)" fill="#2f2e41"/>
      <path id="Path_830-2" data-name="Path 830" d="M853.227,576.32l4.589.811a29.269,29.269,0,0,1-4.916,7.67Z" transform="translate(-801.727 -536.109)" fill="#2f2e41"/>
    </g>
    <g id="Group_333" data-name="Group 333" transform="translate(165.953 573.494)">
      <g transform="matrix(1, 0, 0, 1, -165.95, -573.49)" filter="url(#Path_820-3)">
        <path id="Path_820-12" data-name="Path 820" d="M320.543,141.271a29.173,29.173,0,0,1-2.357,11.527l-.1.223a29.32,29.32,0,0,1-31.9,17.082q-.264-.047-.527-.1a29.009,29.009,0,0,1-5.295-1.561q-.417-.168-.828-.347c-.187-.081-.374-.165-.56-.252a29.274,29.274,0,1,1,41.559-26.574Z" transform="translate(-96.05 461.49)" fill="#f8f8f8"/>
      </g>
      <path id="Path_823-3" data-name="Path 823" d="M482.2,297.1a11.573,11.573,0,0,0,.667,5.94,10.548,10.548,0,0,0,2-11.289A11.574,11.574,0,0,0,482.2,297.1Z" transform="translate(-462.999 -276.189)" opacity="0.2"/>
      <path id="Path_831-3" data-name="Path 831" d="M11.411,0A11.411,11.411,0,1,1,0,11.411,11.411,11.411,0,0,1,11.411,0Z" transform="translate(17.8 12.93)" fill="#f8f8f8"/>
      <path id="Path_826-3" data-name="Path 826" d="M547.833,456.353s1.426,6.776,1.426,7.489,6.776,3.923,6.776,3.923l6.062-1.07,2.14-6.419s-3.566-5.349-3.566-7.489Z" transform="translate(-523.08 -423.275)" fill="#f8f8f8"/>
      <path id="Path_827-3" data-name="Path 827" d="M432.579,522.98l-.1.223a29.32,29.32,0,0,1-31.9,17.082q-.264-.047-.526-.1a29.012,29.012,0,0,1-5.295-1.561q-.417-.168-.828-.347c-.187-.081-.374-.165-.559-.252a29.236,29.236,0,0,1-4.785-2.8l-1.353-3.924.76-.58,1.564-1.194,1.669-1.274.434-.332,6.548-5,.483-.369,3.4-2.6h0s3.681,6,9.03,4.214a7.376,7.376,0,0,0,5.232-6.9Z" transform="translate(-376.394 -482.182)" fill="#2f2e41"/>
      <path id="Path_828-3" data-name="Path 828" d="M456.729,220.364s3.623-7.85,10.567-6.038,10.869,4.529,11.171,7.246a38.774,38.774,0,0,1-.151,6.793s-.755-5.586-5.586-4.378-12.379.3-12.379.3l-1.208,10.869s-1.359-1.963-2.868-.755S451.9,222.78,456.729,220.364Z" transform="translate(-437.414 -205.216)" fill="#2f2e41"/>
      <path id="Path_829-3" data-name="Path 829" d="M379.493,686.589q-.417-.168-.828-.347c-.187-.081-.374-.165-.56-.252a29.346,29.346,0,0,1-7.585-5.083,10.264,10.264,0,0,1,1.448-1.636h5.349l.8,2.7Z" transform="translate(-361.122 -630.144)" fill="#2f2e41"/>
      <path id="Path_830-3" data-name="Path 830" d="M853.227,576.32l4.589.811a29.269,29.269,0,0,1-4.916,7.67Z" transform="translate(-801.727 -536.109)" fill="#2f2e41"/>
    </g>
    <g id="Group_306" data-name="Group 306" transform="translate(355.753 413.494)">
      <g transform="matrix(1, 0, 0, 1, -355.75, -413.49)" filter="url(#Path_820-4)">
        <path id="Path_820-13" data-name="Path 820" d="M320.543,141.271a29.173,29.173,0,0,1-2.357,11.527l-.1.223a29.32,29.32,0,0,1-31.9,17.082q-.264-.047-.527-.1a29.009,29.009,0,0,1-5.295-1.561q-.417-.168-.828-.347c-.187-.081-.374-.165-.56-.252a29.274,29.274,0,1,1,41.559-26.574Z" transform="translate(93.75 301.49)" fill="#f8f8f8"/>
      </g>
      <path id="Path_823-4" data-name="Path 823" d="M482.2,297.1a11.573,11.573,0,0,0,.667,5.94,10.548,10.548,0,0,0,2-11.289A11.574,11.574,0,0,0,482.2,297.1Z" transform="translate(-462.999 -276.189)" opacity="0.2"/>
      <path id="Path_831-4" data-name="Path 831" d="M11.411,0A11.411,11.411,0,1,1,0,11.411,11.411,11.411,0,0,1,11.411,0Z" transform="translate(17.8 12.93)" fill="#f8f8f8"/>
      <path id="Path_826-4" data-name="Path 826" d="M547.833,456.353s1.426,6.776,1.426,7.489,6.776,3.923,6.776,3.923l6.062-1.07,2.14-6.419s-3.566-5.349-3.566-7.489Z" transform="translate(-523.08 -423.275)" fill="#f8f8f8"/>
      <path id="Path_827-4" data-name="Path 827" d="M432.579,522.98l-.1.223a29.32,29.32,0,0,1-31.9,17.082q-.264-.047-.526-.1a29.012,29.012,0,0,1-5.295-1.561q-.417-.168-.828-.347c-.187-.081-.374-.165-.559-.252a29.236,29.236,0,0,1-4.785-2.8l-1.353-3.924.76-.58,1.564-1.194,1.669-1.274.434-.332,6.548-5,.483-.369,3.4-2.6h0s3.681,6,9.03,4.214a7.376,7.376,0,0,0,5.232-6.9Z" transform="translate(-376.394 -482.182)" fill="#2f2e41"/>
      <path id="Path_828-4" data-name="Path 828" d="M456.729,220.364s3.623-7.85,10.567-6.038,10.869,4.529,11.171,7.246a38.774,38.774,0,0,1-.151,6.793s-.755-5.586-5.586-4.378-12.379.3-12.379.3l-1.208,10.869s-1.359-1.963-2.868-.755S451.9,222.78,456.729,220.364Z" transform="translate(-437.414 -205.216)" fill="#2f2e41"/>
      <path id="Path_829-4" data-name="Path 829" d="M379.493,686.589q-.417-.168-.828-.347c-.187-.081-.374-.165-.56-.252a29.346,29.346,0,0,1-7.585-5.083,10.264,10.264,0,0,1,1.448-1.636h5.349l.8,2.7Z" transform="translate(-361.122 -630.144)" fill="#2f2e41"/>
      <path id="Path_830-4" data-name="Path 830" d="M853.227,576.32l4.589.811a29.269,29.269,0,0,1-4.916,7.67Z" transform="translate(-801.727 -536.109)" fill="#2f2e41"/>
    </g>
    <g id="Group_331" data-name="Group 331" transform="translate(355.753 568.494)">
      <g transform="matrix(1, 0, 0, 1, -355.75, -568.49)" filter="url(#Path_820-5)">
        <path id="Path_820-14" data-name="Path 820" d="M320.543,141.271a29.173,29.173,0,0,1-2.357,11.527l-.1.223a29.32,29.32,0,0,1-31.9,17.082q-.264-.047-.527-.1a29.009,29.009,0,0,1-5.295-1.561q-.417-.168-.828-.347c-.187-.081-.374-.165-.56-.252a29.274,29.274,0,1,1,41.559-26.574Z" transform="translate(93.75 456.49)" fill="#f8f8f8"/>
      </g>
      <path id="Path_823-5" data-name="Path 823" d="M482.2,297.1a11.573,11.573,0,0,0,.667,5.94,10.548,10.548,0,0,0,2-11.289A11.574,11.574,0,0,0,482.2,297.1Z" transform="translate(-462.999 -276.189)" opacity="0.2"/>
      <path id="Path_831-5" data-name="Path 831" d="M11.411,0A11.411,11.411,0,1,1,0,11.411,11.411,11.411,0,0,1,11.411,0Z" transform="translate(17.8 12.93)" fill="#f8f8f8"/>
      <path id="Path_826-5" data-name="Path 826" d="M547.833,456.353s1.426,6.776,1.426,7.489,6.776,3.923,6.776,3.923l6.062-1.07,2.14-6.419s-3.566-5.349-3.566-7.489Z" transform="translate(-523.08 -423.275)" fill="#f8f8f8"/>
      <path id="Path_827-5" data-name="Path 827" d="M432.579,522.98l-.1.223a29.32,29.32,0,0,1-31.9,17.082q-.264-.047-.526-.1a29.012,29.012,0,0,1-5.295-1.561q-.417-.168-.828-.347c-.187-.081-.374-.165-.559-.252a29.236,29.236,0,0,1-4.785-2.8l-1.353-3.924.76-.58,1.564-1.194,1.669-1.274.434-.332,6.548-5,.483-.369,3.4-2.6h0s3.681,6,9.03,4.214a7.376,7.376,0,0,0,5.232-6.9Z" transform="translate(-376.394 -482.182)" fill="#2f2e41"/>
      <path id="Path_828-5" data-name="Path 828" d="M456.729,220.364s3.623-7.85,10.567-6.038,10.869,4.529,11.171,7.246a38.774,38.774,0,0,1-.151,6.793s-.755-5.586-5.586-4.378-12.379.3-12.379.3l-1.208,10.869s-1.359-1.963-2.868-.755S451.9,222.78,456.729,220.364Z" transform="translate(-437.414 -205.216)" fill="#2f2e41"/>
      <path id="Path_829-5" data-name="Path 829" d="M379.493,686.589q-.417-.168-.828-.347c-.187-.081-.374-.165-.56-.252a29.346,29.346,0,0,1-7.585-5.083,10.264,10.264,0,0,1,1.448-1.636h5.349l.8,2.7Z" transform="translate(-361.122 -630.144)" fill="#2f2e41"/>
      <path id="Path_830-5" data-name="Path 830" d="M853.227,576.32l4.589.811a29.269,29.269,0,0,1-4.916,7.67Z" transform="translate(-801.727 -536.109)" fill="#2f2e41"/>
    </g>
    <g id="Group_307" data-name="Group 307" transform="translate(539.871 415.494)">
      <g transform="matrix(1, 0, 0, 1, -539.87, -415.49)" filter="url(#Path_820-6)">
        <path id="Path_820-15" data-name="Path 820" d="M320.543,141.271a29.173,29.173,0,0,1-2.357,11.527l-.1.223a29.32,29.32,0,0,1-31.9,17.082q-.264-.047-.527-.1a29.009,29.009,0,0,1-5.295-1.561q-.417-.168-.828-.347c-.187-.081-.374-.165-.56-.252a29.274,29.274,0,1,1,41.559-26.574Z" transform="translate(277.87 303.49)" fill="#f8f8f8"/>
      </g>
      <path id="Path_823-6" data-name="Path 823" d="M482.2,297.1a11.573,11.573,0,0,0,.667,5.94,10.548,10.548,0,0,0,2-11.289A11.574,11.574,0,0,0,482.2,297.1Z" transform="translate(-462.999 -276.189)" opacity="0.2"/>
      <path id="Path_831-6" data-name="Path 831" d="M11.411,0A11.411,11.411,0,1,1,0,11.411,11.411,11.411,0,0,1,11.411,0Z" transform="translate(17.8 12.93)" fill="#f8f8f8"/>
      <path id="Path_826-6" data-name="Path 826" d="M547.833,456.353s1.426,6.776,1.426,7.489,6.776,3.923,6.776,3.923l6.062-1.07,2.14-6.419s-3.566-5.349-3.566-7.489Z" transform="translate(-523.08 -423.275)" fill="#f8f8f8"/>
      <path id="Path_827-6" data-name="Path 827" d="M432.579,522.98l-.1.223a29.32,29.32,0,0,1-31.9,17.082q-.264-.047-.526-.1a29.012,29.012,0,0,1-5.295-1.561q-.417-.168-.828-.347c-.187-.081-.374-.165-.559-.252a29.236,29.236,0,0,1-4.785-2.8l-1.353-3.924.76-.58,1.564-1.194,1.669-1.274.434-.332,6.548-5,.483-.369,3.4-2.6h0s3.681,6,9.03,4.214a7.376,7.376,0,0,0,5.232-6.9Z" transform="translate(-376.394 -482.182)" fill="#2f2e41"/>
      <path id="Path_828-6" data-name="Path 828" d="M456.729,220.364s3.623-7.85,10.567-6.038,10.869,4.529,11.171,7.246a38.774,38.774,0,0,1-.151,6.793s-.755-5.586-5.586-4.378-12.379.3-12.379.3l-1.208,10.869s-1.359-1.963-2.868-.755S451.9,222.78,456.729,220.364Z" transform="translate(-437.414 -205.216)" fill="#2f2e41"/>
      <path id="Path_829-6" data-name="Path 829" d="M379.493,686.589q-.417-.168-.828-.347c-.187-.081-.374-.165-.56-.252a29.346,29.346,0,0,1-7.585-5.083,10.264,10.264,0,0,1,1.448-1.636h5.349l.8,2.7Z" transform="translate(-361.122 -630.144)" fill="#2f2e41"/>
      <path id="Path_830-6" data-name="Path 830" d="M853.227,576.32l4.589.811a29.269,29.269,0,0,1-4.916,7.67Z" transform="translate(-801.727 -536.109)" fill="#2f2e41"/>
    </g>
    <g id="Group_329" data-name="Group 329" transform="translate(539.871 570.494)">
      <g transform="matrix(1, 0, 0, 1, -539.87, -570.49)" filter="url(#Path_820-7)">
        <path id="Path_820-16" data-name="Path 820" d="M320.543,141.271a29.173,29.173,0,0,1-2.357,11.527l-.1.223a29.32,29.32,0,0,1-31.9,17.082q-.264-.047-.527-.1a29.009,29.009,0,0,1-5.295-1.561q-.417-.168-.828-.347c-.187-.081-.374-.165-.56-.252a29.274,29.274,0,1,1,41.559-26.574Z" transform="translate(277.87 458.49)" fill="#f8f8f8"/>
      </g>
      <path id="Path_823-7" data-name="Path 823" d="M482.2,297.1a11.573,11.573,0,0,0,.667,5.94,10.548,10.548,0,0,0,2-11.289A11.574,11.574,0,0,0,482.2,297.1Z" transform="translate(-462.999 -276.189)" opacity="0.2"/>
      <path id="Path_831-7" data-name="Path 831" d="M11.411,0A11.411,11.411,0,1,1,0,11.411,11.411,11.411,0,0,1,11.411,0Z" transform="translate(17.8 12.93)" fill="#f8f8f8"/>
      <path id="Path_826-7" data-name="Path 826" d="M547.833,456.353s1.426,6.776,1.426,7.489,6.776,3.923,6.776,3.923l6.062-1.07,2.14-6.419s-3.566-5.349-3.566-7.489Z" transform="translate(-523.08 -423.275)" fill="#f8f8f8"/>
      <path id="Path_827-7" data-name="Path 827" d="M432.579,522.98l-.1.223a29.32,29.32,0,0,1-31.9,17.082q-.264-.047-.526-.1a29.012,29.012,0,0,1-5.295-1.561q-.417-.168-.828-.347c-.187-.081-.374-.165-.559-.252a29.236,29.236,0,0,1-4.785-2.8l-1.353-3.924.76-.58,1.564-1.194,1.669-1.274.434-.332,6.548-5,.483-.369,3.4-2.6h0s3.681,6,9.03,4.214a7.376,7.376,0,0,0,5.232-6.9Z" transform="translate(-376.394 -482.182)" fill="#2f2e41"/>
      <path id="Path_828-7" data-name="Path 828" d="M456.729,220.364s3.623-7.85,10.567-6.038,10.869,4.529,11.171,7.246a38.774,38.774,0,0,1-.151,6.793s-.755-5.586-5.586-4.378-12.379.3-12.379.3l-1.208,10.869s-1.359-1.963-2.868-.755S451.9,222.78,456.729,220.364Z" transform="translate(-437.414 -205.216)" fill="#2f2e41"/>
      <path id="Path_829-7" data-name="Path 829" d="M379.493,686.589q-.417-.168-.828-.347c-.187-.081-.374-.165-.56-.252a29.346,29.346,0,0,1-7.585-5.083,10.264,10.264,0,0,1,1.448-1.636h5.349l.8,2.7Z" transform="translate(-361.122 -630.144)" fill="#2f2e41"/>
      <path id="Path_830-7" data-name="Path 830" d="M853.227,576.32l4.589.811a29.269,29.269,0,0,1-4.916,7.67Z" transform="translate(-801.727 -536.109)" fill="#2f2e41"/>
    </g>
    <g id="Group_308" data-name="Group 308" transform="translate(729.053 418.494)">
      <g transform="matrix(1, 0, 0, 1, -729.05, -418.49)" filter="url(#Path_820-8)">
        <path id="Path_820-17" data-name="Path 820" d="M320.543,141.271a29.173,29.173,0,0,1-2.357,11.527l-.1.223a29.32,29.32,0,0,1-31.9,17.082q-.264-.047-.527-.1a29.009,29.009,0,0,1-5.295-1.561q-.417-.168-.828-.347c-.187-.081-.374-.165-.56-.252a29.274,29.274,0,1,1,41.559-26.574Z" transform="translate(467.05 306.49)" fill="#f8f8f8"/>
      </g>
      <path id="Path_823-8" data-name="Path 823" d="M482.2,297.1a11.573,11.573,0,0,0,.667,5.94,10.548,10.548,0,0,0,2-11.289A11.574,11.574,0,0,0,482.2,297.1Z" transform="translate(-462.999 -276.189)" opacity="0.2"/>
      <path id="Path_831-8" data-name="Path 831" d="M11.411,0A11.411,11.411,0,1,1,0,11.411,11.411,11.411,0,0,1,11.411,0Z" transform="translate(17.8 12.93)" fill="#f8f8f8"/>
      <path id="Path_826-8" data-name="Path 826" d="M547.833,456.353s1.426,6.776,1.426,7.489,6.776,3.923,6.776,3.923l6.062-1.07,2.14-6.419s-3.566-5.349-3.566-7.489Z" transform="translate(-523.08 -423.275)" fill="#f8f8f8"/>
      <path id="Path_827-8" data-name="Path 827" d="M432.579,522.98l-.1.223a29.32,29.32,0,0,1-31.9,17.082q-.264-.047-.526-.1a29.012,29.012,0,0,1-5.295-1.561q-.417-.168-.828-.347c-.187-.081-.374-.165-.559-.252a29.236,29.236,0,0,1-4.785-2.8l-1.353-3.924.76-.58,1.564-1.194,1.669-1.274.434-.332,6.548-5,.483-.369,3.4-2.6h0s3.681,6,9.03,4.214a7.376,7.376,0,0,0,5.232-6.9Z" transform="translate(-376.394 -482.182)" fill="#2f2e41"/>
      <path id="Path_828-8" data-name="Path 828" d="M456.729,220.364s3.623-7.85,10.567-6.038,10.869,4.529,11.171,7.246a38.774,38.774,0,0,1-.151,6.793s-.755-5.586-5.586-4.378-12.379.3-12.379.3l-1.208,10.869s-1.359-1.963-2.868-.755S451.9,222.78,456.729,220.364Z" transform="translate(-437.414 -205.216)" fill="#2f2e41"/>
      <path id="Path_829-8" data-name="Path 829" d="M379.493,686.589q-.417-.168-.828-.347c-.187-.081-.374-.165-.56-.252a29.346,29.346,0,0,1-7.585-5.083,10.264,10.264,0,0,1,1.448-1.636h5.349l.8,2.7Z" transform="translate(-361.122 -630.144)" fill="#2f2e41"/>
      <path id="Path_830-8" data-name="Path 830" d="M853.227,576.32l4.589.811a29.269,29.269,0,0,1-4.916,7.67Z" transform="translate(-801.727 -536.109)" fill="#2f2e41"/>
    </g>
    <g id="Group_326" data-name="Group 326" transform="translate(729.053 573.494)">
      <g transform="matrix(1, 0, 0, 1, -729.05, -573.49)" filter="url(#Path_820-9)">
        <path id="Path_820-18" data-name="Path 820" d="M320.543,141.271a29.173,29.173,0,0,1-2.357,11.527l-.1.223a29.32,29.32,0,0,1-31.9,17.082q-.264-.047-.527-.1a29.009,29.009,0,0,1-5.295-1.561q-.417-.168-.828-.347c-.187-.081-.374-.165-.56-.252a29.274,29.274,0,1,1,41.559-26.574Z" transform="translate(467.05 461.49)" fill="#f8f8f8"/>
      </g>
      <path id="Path_823-9" data-name="Path 823" d="M482.2,297.1a11.573,11.573,0,0,0,.667,5.94,10.548,10.548,0,0,0,2-11.289A11.574,11.574,0,0,0,482.2,297.1Z" transform="translate(-462.999 -276.189)" opacity="0.2"/>
      <path id="Path_831-9" data-name="Path 831" d="M11.411,0A11.411,11.411,0,1,1,0,11.411,11.411,11.411,0,0,1,11.411,0Z" transform="translate(17.8 12.93)" fill="#f8f8f8"/>
      <path id="Path_826-9" data-name="Path 826" d="M547.833,456.353s1.426,6.776,1.426,7.489,6.776,3.923,6.776,3.923l6.062-1.07,2.14-6.419s-3.566-5.349-3.566-7.489Z" transform="translate(-523.08 -423.275)" fill="#f8f8f8"/>
      <path id="Path_827-9" data-name="Path 827" d="M432.579,522.98l-.1.223a29.32,29.32,0,0,1-31.9,17.082q-.264-.047-.526-.1a29.012,29.012,0,0,1-5.295-1.561q-.417-.168-.828-.347c-.187-.081-.374-.165-.559-.252a29.236,29.236,0,0,1-4.785-2.8l-1.353-3.924.76-.58,1.564-1.194,1.669-1.274.434-.332,6.548-5,.483-.369,3.4-2.6h0s3.681,6,9.03,4.214a7.376,7.376,0,0,0,5.232-6.9Z" transform="translate(-376.394 -482.182)" fill="#2f2e41"/>
      <path id="Path_828-9" data-name="Path 828" d="M456.729,220.364s3.623-7.85,10.567-6.038,10.869,4.529,11.171,7.246a38.774,38.774,0,0,1-.151,6.793s-.755-5.586-5.586-4.378-12.379.3-12.379.3l-1.208,10.869s-1.359-1.963-2.868-.755S451.9,222.78,456.729,220.364Z" transform="translate(-437.414 -205.216)" fill="#2f2e41"/>
      <path id="Path_829-9" data-name="Path 829" d="M379.493,686.589q-.417-.168-.828-.347c-.187-.081-.374-.165-.56-.252a29.346,29.346,0,0,1-7.585-5.083,10.264,10.264,0,0,1,1.448-1.636h5.349l.8,2.7Z" transform="translate(-361.122 -630.144)" fill="#2f2e41"/>
      <path id="Path_830-9" data-name="Path 830" d="M853.227,576.32l4.589.811a29.269,29.269,0,0,1-4.916,7.67Z" transform="translate(-801.727 -536.109)" fill="#2f2e41"/>
    </g>
    <text id="rahulbose_xyz.com" data-name="rahulbose@xyz.com" transform="translate(206 133)" fill="#16325c" font-size="14" font-family="HelveticaNeue-Light, Helvetica Neue" font-weight="300"><tspan x="0" y="0">rahulbose@xyz.com</tspan></text>
    <text id="_9090909090" data-name="9090909090" transform="translate(206 154)" fill="#16325c" font-size="14" font-family="HelveticaNeue-Light, Helvetica Neue" font-weight="300"><tspan x="0" y="0">9090909090</tspan></text>
    <text id="mahesh" transform="translate(258.5 429)" fill="#3c277a" font-size="9" font-family="HelveticaNeue, Helvetica Neue"><tspan x="-18.999" y="0">MAHESH</tspan></text>
    <text id="MAHIMA" transform="translate(258.5 584)" fill="#3c277a" font-size="9" font-family="HelveticaNeue, Helvetica Neue"><tspan x="-18.086" y="0">MAHIMA</tspan></text>
    <text id="health_score" data-name="health score" transform="translate(258.5 473)" fill="#6dc742" font-size="6" font-family="HelveticaNeue, Helvetica Neue"><tspan x="-17.334" y="0">Health Score</tspan></text>
    <text id="health_score-2" data-name="health score" transform="translate(258.5 628)" fill="#6dc742" font-size="6" font-family="HelveticaNeue, Helvetica Neue"><tspan x="-17.334" y="0">Health Score</tspan></text>
    <text id="health_score-3" data-name="health score" transform="translate(455.5 473)" fill="#6dc742" font-size="6" font-family="HelveticaNeue, Helvetica Neue"><tspan x="-17.334" y="0">Health Score</tspan></text>
    <text id="health_score-4" data-name="health score" transform="translate(455.5 628)" fill="#6dc742" font-size="6" font-family="HelveticaNeue, Helvetica Neue"><tspan x="-17.334" y="0">Health Score</tspan></text>
    <text id="Mahi" transform="translate(455.5 429)" fill="#3c277a" font-size="9" font-family="HelveticaNeue-Light, Helvetica Neue" font-weight="300"><tspan x="-10.696" y="0">MAHI</tspan></text>
    <text id="PAUL" transform="translate(455.5 584)" fill="#3c277a" font-size="9" font-family="HelveticaNeue-Light, Helvetica Neue" font-weight="300"><tspan x="-10.836" y="0">PAUL</tspan></text>
    <text id="Kinney" transform="translate(641.5 429)" fill="#3c277a" font-size="9" font-family="HelveticaNeue-Light, Helvetica Neue" font-weight="300"><tspan x="-15.669" y="0">KINNEY</tspan></text>
    <text id="KIARA" transform="translate(641.5 584)" fill="#3c277a" font-size="9" font-family="HelveticaNeue-Light, Helvetica Neue" font-weight="300"><tspan x="-12.587" y="0">KIARA</tspan></text>
    <text id="bose" transform="translate(824.5 429)" fill="#3c277a" font-size="9" font-family="HelveticaNeue-Light, Helvetica Neue" font-weight="300"><tspan x="-11.839" y="0">BOSE</tspan></text>
    <text id="BISWAS" transform="translate(824.5 584)" fill="#3c277a" font-size="9" font-family="HelveticaNeue-Light, Helvetica Neue" font-weight="300"><tspan x="-16.506" y="0">BISWAS</tspan></text>
    <text id="Rahul_Bose" data-name="Rahul Bose" transform="translate(204 82)" fill="#16325c" font-size="19" font-family="HelveticaNeue-Medium, Helvetica Neue" font-weight="500"><tspan x="0" y="19">RAHUL BOSE</tspan></text>
    <g transform="matrix(1, 0, 0, 1, 0, 0)" filter="url(#Customised_date_range)">
      <text id="Customised_date_range-2" data-name="Customised date range" transform="translate(748 66)" fill="#eff" font-size="19" font-family="HelveticaNeue-Light, Helvetica Neue" font-weight="300"><tspan x="0" y="18">Customised Date Range</tspan></text>
    </g>
    <text id="Converted_Inquiry" data-name="Converted Inquiry" transform="translate(409 286)" fill="#16325c" font-size="20" font-family="HelveticaNeue, Helvetica Neue"><tspan x="0" y="0">CONVERTED INQUIRY</tspan></text>
    <g id="Group_320" data-name="Group 320" transform="translate(7 38)">
      <g transform="matrix(1, 0, 0, 1, -7, -38)" filter="url(#Rectangle_556)">
        <rect id="Rectangle_556-2" data-name="Rectangle 556" width="131" height="22" rx="11" transform="translate(450 302)" fill="#eff"/>
      </g>
      <rect id="Rectangle_557" data-name="Rectangle 557" width="70" height="22" rx="11" transform="translate(445 264)" fill="#0093dd"/>
      <text id="B2B" transform="translate(463 281)" fill="#f8f8f8" font-size="16" font-family="HelveticaNeue, Helvetica Neue"><tspan x="0" y="0">B2B</tspan></text>
      <text id="B2c" transform="translate(525 281)" fill="#0093dd" font-size="16" font-family="HelveticaNeue, Helvetica Neue"><tspan x="0" y="0">B2C</tspan></text>
    </g>
    <g id="Group_319" data-name="Group 319" transform="translate(0 -0.205)">
      <rect id="Rectangle_546" data-name="Rectangle 546" width="1024" height="31" transform="translate(0 204.205)" fill="#eff"/>
      <g id="Group_318" data-name="Group 318" transform="translate(156 208.873)">
        <text id="Active_Customers" data-name="Active Customers" transform="translate(33 16.332)" fill="#16325c" font-size="14" font-family="HelveticaNeue, Helvetica Neue"><tspan x="0" y="0">Active Customers</tspan></text>
        <text id="_Subscription_to_Expire_" data-name=" Subscription to Expire " transform="translate(298 15.332)" fill="#16325c" font-size="14" font-family="HelveticaNeue, Helvetica Neue"><tspan x="0" y="0" xml:space="preserve"> Subscription to Expire </tspan></text>
        <text id="Inactive_Customers_" data-name="Inactive Customers " transform="translate(575 16.332)" fill="#16325c" font-size="14" font-family="HelveticaNeue, Helvetica Neue"><tspan x="0" y="0">Inactive Customers </tspan></text>
        <circle id="Ellipse_260" data-name="Ellipse 260" cx="10.5" cy="10.5" r="10.5" transform="translate(0 1.332)" fill="#0093dd"/>
        <path id="Path_876" data-name="Path 876" d="M10.5,0A10.5,10.5,0,1,1,0,10.5,10.5,10.5,0,0,1,10.5,0Z" transform="translate(270)" fill="#ffd246"/>
        <circle id="Ellipse_262" data-name="Ellipse 262" cx="10.5" cy="10.5" r="10.5" transform="translate(542 1.332)" fill="#f22f00"/>
      </g>
    </g>
    <path id="Path_877" data-name="Path 877" d="M1011.352,8455.355H1026.8l-7.256,8.05Z" transform="translate(-51.646 -8381.903)" fill="#eff" opacity="0.384"/>
    <g id="Group_321" data-name="Group 321" transform="translate(-19 27)">
      <circle id="Ellipse_281" data-name="Ellipse 281" cx="10.5" cy="10.5" r="10.5" transform="translate(267 416)" fill="#d7fcc5"/>
      <text id="_5_10" data-name="5/10" transform="translate(277 429)" fill="#16325c" font-size="8" font-family="HelveticaNeue-Light, Helvetica Neue" font-weight="300"><tspan x="-8.004" y="0">5/10</tspan></text>
    </g>
    <g id="Group_332" data-name="Group 332" transform="translate(-19 182)">
      <circle id="Ellipse_281-2" data-name="Ellipse 281" cx="10.5" cy="10.5" r="10.5" transform="translate(267 416)" fill="#d7fcc5"/>
      <text id="_7_10" data-name="7/10" transform="translate(277 429)" fill="#16325c" font-size="8" font-family="HelveticaNeue-Light, Helvetica Neue" font-weight="300"><tspan x="-8.004" y="0">7/10</tspan></text>
    </g>
    <g id="Group_322" data-name="Group 322" transform="translate(178 27)">
      <circle id="Ellipse_281-3" data-name="Ellipse 281" cx="10.5" cy="10.5" r="10.5" transform="translate(267 416)" fill="#d7fcc5"/>
      <text id="_9_10" data-name="9/10" transform="translate(277 429)" fill="#16325c" font-size="8" font-family="HelveticaNeue-Light, Helvetica Neue" font-weight="300"><tspan x="-8.004" y="0">9/10</tspan></text>
    </g>
    <g id="Group_330" data-name="Group 330" transform="translate(178 182)">
      <circle id="Ellipse_281-4" data-name="Ellipse 281" cx="10.5" cy="10.5" r="10.5" transform="translate(267 416)" fill="#d7fcc5"/>
      <text id="_8_10" data-name="8/10" transform="translate(277 429)" fill="#16325c" font-size="8" font-family="HelveticaNeue-Light, Helvetica Neue" font-weight="300"><tspan x="-8.004" y="0">8/10</tspan></text>
    </g>
    <g id="Group_324" data-name="Group 324" transform="translate(0 64)">
      <text id="health_score-5" data-name="health score" transform="translate(641.5 409)" fill="#6dc742" font-size="6" font-family="HelveticaNeue, Helvetica Neue"><tspan x="-17.334" y="0">Health Score</tspan></text>
      <g id="Group_323" data-name="Group 323" transform="translate(364 -37)">
        <circle id="Ellipse_281-5" data-name="Ellipse 281" cx="10.5" cy="10.5" r="10.5" transform="translate(267 416)" fill="#d7fcc5"/>
        <text id="_4_10" data-name="4/10" transform="translate(277 429)" fill="#16325c" font-size="8" font-family="HelveticaNeue-Light, Helvetica Neue" font-weight="300"><tspan x="-8.004" y="0">4/10</tspan></text>
      </g>
    </g>
    <g id="Group_328" data-name="Group 328" transform="translate(0 219)">
      <text id="health_score-6" data-name="health score" transform="translate(641.5 409)" fill="#6dc742" font-size="6" font-family="HelveticaNeue, Helvetica Neue"><tspan x="-17.334" y="0">Health Score</tspan></text>
      <g id="Group_323-2" data-name="Group 323" transform="translate(364 -37)">
        <circle id="Ellipse_281-6" data-name="Ellipse 281" cx="10.5" cy="10.5" r="10.5" transform="translate(267 416)" fill="#d7fcc5"/>
        <text id="_7_10-2" data-name="7/10" transform="translate(277 429)" fill="#16325c" font-size="8" font-family="HelveticaNeue-Light, Helvetica Neue" font-weight="300"><tspan x="-8.004" y="0">7/10</tspan></text>
      </g>
    </g>
    <g id="Group_325" data-name="Group 325" transform="translate(183 64)">
      <text id="health_score-7" data-name="health score" transform="translate(641.5 409)" fill="#6dc742" font-size="6" font-family="HelveticaNeue, Helvetica Neue"><tspan x="-17.334" y="0">Health Score</tspan></text>
      <g id="Group_323-3" data-name="Group 323" transform="translate(364 -37)">
        <circle id="Ellipse_281-7" data-name="Ellipse 281" cx="10.5" cy="10.5" r="10.5" transform="translate(267 416)" fill="#d7fcc5"/>
        <text id="_8_10-2" data-name="8/10" transform="translate(277 429)" fill="#16325c" font-size="8" font-family="HelveticaNeue-Light, Helvetica Neue" font-weight="300"><tspan x="-8.004" y="0">8/10</tspan></text>
      </g>
    </g>
    <g id="Group_327" data-name="Group 327" transform="translate(183 219)">
      <text id="health_score-8" data-name="health score" transform="translate(641.5 409)" fill="#6dc742" font-size="6" font-family="HelveticaNeue, Helvetica Neue"><tspan x="-17.334" y="0">Health Score</tspan></text>
      <g id="Group_323-4" data-name="Group 323" transform="translate(364 -37)">
        <circle id="Ellipse_281-8" data-name="Ellipse 281" cx="10.5" cy="10.5" r="10.5" transform="translate(267 416)" fill="#d7fcc5"/>
        <text id="_6_10" data-name="6/10" transform="translate(277 429)" fill="#16325c" font-size="8" font-family="HelveticaNeue-Light, Helvetica Neue" font-weight="300"><tspan x="-8.004" y="0">6/10</tspan></text>
      </g>
    </g>
  </g>
</svg>
